<svg width="375" height="338" fill="none" xmlns="http://www.w3.org/2000/svg"><path d="M154.973 80.95l.661-.75a1 1 0 00-.661-.25v1zm3.196 2.818l-.661.75.661-.75zm.831-3.262l-.351-.937a1 1 0 00-.649.937h1zM146.004 73a6 6 0 016-6v-2a8 8 0 00-8 8h2zm0 .95V73h-2v.95h2zm6 6a6 6 0 01-6-6h-2a8 8 0 008 8v-2zm2.969 0h-2.969v2h2.969v-2zm-.661 1.75l3.196 2.818 1.323-1.5-3.197-2.819-1.322 1.5zm3.196 2.818c.969.854 2.492.166 2.492-1.125h-2a.5.5 0 01.831-.375l-1.323 1.5zM160 83.393v-2.887h-2v2.887h2zm2.541-9.444a6.003 6.003 0 01-3.892 5.62l.702 1.873a8.002 8.002 0 005.19-7.492h-2zm0-.949v.95h2V73h-2zm-6-6a6 6 0 016 6h2a8 8 0 00-8-8v2zm-4.537 0h4.537v-2h-4.537v2z" fill="#000"/><rect x="146" y="109" width="19" height="13" rx="2" stroke="#000" stroke-width="2"/><path d="M164.5 113h-18m11.5 5h4" stroke="#000" stroke-width="2"/><path d="M157.25 30L152 35.25l5.25 5.25" stroke="#000" stroke-width="2" stroke-linecap="round" stroke-linejoin="round"/><path d="M38.5 107.5L35 104l-3.5 3.5M38 111h1a2 2 0 012 2v8a2 2 0 01-2 2h-8a2 2 0 01-2-2v-8a2 2 0 012-2h1m3-6.5V117m204 82l4-4-4-4m-4-4h-6a2 2 0 00-2 2v12a2 2 0 002 2h6m7.5-8H231" stroke="#000" stroke-width="2"/><path d="M192.5 30l5 5-5 5" stroke="#000" stroke-width="2" stroke-linecap="round" stroke-linejoin="round"/><path d="M200 192.5l-5 5-5-5" stroke="#000" stroke-width="2" stroke-linejoin="round"/><path d="M200 70c0 1.49-.458 3.44-1.363 4.988-.906 1.55-2.134 2.512-3.637 2.512-1.503 0-2.731-.962-3.637-2.512C190.458 73.439 190 71.49 190 70a5 5 0 0110 0zm-1.5 8c2.142 2.073 5.5 2.738 5.5 4.5 0 2-3.477 3-9 3s-9-1-9-3c0-1.762 2.858-2.427 5-4.5m-78.165 1.34l.038.039.672.671a2 2 0 002.828 0l4.629-4.629a3.406 3.406 0 10-4.817-4.817l-.184.184-.684-.684.684.684a1.5 1.5 0 01-2.121 0m-1.045 8.552l1.045-8.552m-1.045 8.552l-.043-.034m.043.034l-.043-.034m1.088-8.518l-.184-.184a3.406 3.406 0 10-4.817 4.817l3.634 3.635c.09.09.183.173.279.25m1.088-8.518l-1.088 8.518m-80.607 1.151l-.039-.039-.042-.034a4.587 4.587 0 01-.368-.33l-4.537-4.537a4.5 4.5 0 016.363-6.364l.318.318a1.5 1.5 0 002.121 0l.318-.318a4.5 4.5 0 116.363 6.364l-6.304 6.304a2 2 0 01-2.829 0l-1.364-1.364z" stroke="#000" stroke-width="2"/><circle cx="107.5" cy="35.5" r="2.5" fill="#000"/><circle cx="115.5" cy="35.5" r="2.5" fill="#000"/><circle cx="123.5" cy="35.5" r="2.5" fill="#000"/><path d="M227.5 35l5 5 10-10M68 42l14-14m-14 0l14 14M35.5 26.5V42m7.75-7.75h-15.5M69 71l.77 9.25A3 3 0 0072.76 83h4.48a3 3 0 002.99-2.75L81 71m-14-2h16m-5 0v0a2 2 0 00-2-2h-2a2 2 0 00-2 2v0" stroke="#000" stroke-width="2"/><mask id="a" fill="#fff"><path fill-rule="evenodd" clip-rule="evenodd" d="M272.917 24.91a1 1 0 01.996-.91h2.174a1 1 0 01.996.91l.059.657c.039.422.342.77.744.906.38.128.747.281 1.102.457.381.188.841.157 1.167-.115l.507-.423a1 1 0 011.348.061l1.537 1.537a1 1 0 01.061 1.348l-.423.507c-.272.326-.303.786-.115 1.167.176.354.329.722.457 1.102.136.402.484.705.906.744l.658.06a1 1 0 01.909.995v2.174a1 1 0 01-.909.996l-.658.06c-.422.038-.77.341-.906.743a8.81 8.81 0 01-.457 1.102c-.188.38-.157.84.115 1.167l.423.507a1 1 0 01-.061 1.348l-1.537 1.537a1 1 0 01-1.348.06l-.507-.422c-.326-.272-.786-.303-1.167-.115a8.915 8.915 0 01-1.102.457c-.402.136-.705.483-.744.906l-.059.657a1 1 0 01-.996.91h-2.174a1 1 0 01-.996-.91l-.059-.657c-.039-.422-.342-.77-.744-.906a8.915 8.915 0 01-1.102-.457c-.381-.188-.841-.157-1.167.115l-.507.423a1 1 0 01-1.348-.061l-1.537-1.537a1 1 0 01-.061-1.348l.423-.507c.272-.326.303-.786.115-1.167a8.832 8.832 0 01-.457-1.102c-.136-.402-.484-.705-.906-.744l-.658-.06a1 1 0 01-.909-.995v-2.174a1 1 0 01.909-.996l.658-.06c.422-.038.77-.341.906-.743a8.81 8.81 0 01.457-1.102c.188-.38.157-.84-.115-1.167l-.423-.507a1 1 0 01.061-1.348l1.537-1.537a1 1 0 011.348-.06l.507.422c.326.272.786.303 1.167.115a8.915 8.915 0 011.102-.457c.402-.136.705-.483.744-.906l.059-.657z"/></mask><path d="M272.114 26.473l-.641-1.895.641 1.895zm.744-.906l-1.992-.181 1.992.18zm-6.405 2.423l-1.414-1.414 1.414 1.414zm.362 1.855l-1.536 1.28 1.536-1.28zm-1.906 3.072l-.181-1.992.181 1.992zm0 4.166l.182-1.992-.182 1.992zm1.564.803l-1.895.641 1.895-.64zm-.906-.744l-.181 1.992.181-1.992zm1.248 3.013l-1.536-1.28 1.536 1.28zm-.362 1.855l-1.414 1.414 1.414-1.414zm-.061-1.348l-1.536-1.28 1.536 1.28zm2.946 2.946l-1.281-1.537 1.281 1.537zm-1.348-.061l1.415-1.415-1.415 1.415zm1.855-.362l1.28 1.536-1.28-1.536zm3.013 1.248l-1.992.181 1.992-.18zm-.744-.906l-.641 1.895.641-1.895zm.803 1.563l-1.991.182 1.991-.181zm4.969-1.563l-.641-1.894.641 1.894zm-.744.906l-1.991-.18 1.991.18zm3.013-1.248l1.28-1.537-1.28 1.537zm-1.167-.115l-.887-1.792.887 1.792zm1.674.538l-1.28 1.536 1.28-1.536zm2.946-2.946l1.536-1.28-1.536 1.28zm-.538-1.674l1.793.888-1.793-.888zm.115 1.167l-1.537 1.28 1.537-1.28zm.342-2.269l-1.894-.64 1.894.64zm0-5.772l-1.894.64 1.894-.64zm.906.744l-.181 1.991.181-1.991zm-1.248-3.013l1.536 1.28-1.536-1.28zm-.115 1.167l1.793-.887-1.793.887zm.538-1.674l-1.537-1.28 1.537 1.28zm-2.946-2.946l1.281 1.537-1.281-1.537zm1.348.061l1.414-1.414-1.414 1.414zm-3.022.477l-.887 1.792.887-1.792zm-1.846-1.363l1.992-.181-1.992.18zm.744.906l.641-1.895-.641 1.895zm-.803-1.563l1.991-.182-1.991.181zm-.996-2.91h-2.174v4h2.174v-4zm3.047 3.386l-.06-.658-3.983.362.06.658 3.983-.363zm-1.889 2.981c.295.1.58.219.856.355l1.775-3.585a10.918 10.918 0 00-1.349-.559l-1.282 3.79zm2.137-3.511l-.507.423 2.56 3.073.508-.423-2.561-3.073zm5.579 1.72l-1.537-1.537-2.829 2.829 1.537 1.537 2.829-2.829zm-.24 4.55l.423-.508-3.073-2.56-.423.507 3.073 2.56zm-3.443.773c.136.276.255.561.355.856l3.789-1.282a10.897 10.897 0 00-.559-1.348l-3.585 1.774zm3.994-.974l-.658-.06-.362 3.984.657.06.363-3.983zM288 36.087v-2.174h-4v2.174h4zm-3.386 3.047l.658-.06-.363-3.983-.657.06.362 3.983zm-2.981-1.889c-.1.295-.219.58-.355.856l3.585 1.775c.215-.434.402-.884.559-1.349l-3.789-1.282zm3.511 2.137l-.423-.507-3.073 2.56.423.508 3.073-2.561zm-1.72 5.579l1.537-1.537-2.829-2.828-1.537 1.536 2.829 2.829zm-4.549-.24l.507.423 2.561-3.073-.508-.422-2.56 3.072zm-.774-3.443a6.942 6.942 0 01-.856.355l1.282 3.789c.465-.157.915-.344 1.349-.56l-1.775-3.584zm.973 3.994l.06-.657-3.983-.363-.06.657 3.983.363zM273.913 48h2.174v-4h-2.174v4zm-3.047-3.386l.06.658 3.983-.362-.06-.658-3.983.362zm1.889-2.981a7.07 7.07 0 01-.856-.355l-1.775 3.585c.434.215.884.402 1.349.559l1.282-3.79zm-2.137 3.511l.507-.423-2.56-3.072-.508.422 2.561 3.073zm-5.579-1.72l1.537 1.537 2.829-2.829-1.537-1.536-2.829 2.828zm.24-4.55l-.423.508 3.073 2.56.423-.507-3.073-2.56zm3.443-.773a7.075 7.075 0 01-.355-.856l-3.789 1.282c.157.465.344.915.559 1.349l3.585-1.775zm-3.994.974l.658.06.362-3.984-.657-.06-.363 3.983zM262 33.913v2.174h4v-2.174h-4zm3.386-3.047l-.658.06.363 3.983.657-.06-.362-3.983zm2.981 1.889c.1-.295.219-.58.355-.856l-3.585-1.774c-.215.433-.402.883-.559 1.348l3.789 1.282zm-3.511-2.137l.423.507 3.073-2.56-.423-.508-3.073 2.561zm1.72-5.579l-1.537 1.537 2.829 2.828 1.537-1.536-2.829-2.829zm4.549.24l-.507-.423-2.561 3.073.508.423 2.56-3.073zm.774 3.443a7.07 7.07 0 01.856-.355l-1.282-3.789c-.465.157-.915.345-1.349.56l1.775 3.584zm-.973-3.994l-.06.657 3.983.363.06-.658-3.983-.362zm1.829 3.64c1.064-.36 1.976-1.321 2.094-2.62l-3.983-.363a.926.926 0 01.607-.807l1.282 3.79zm-4.19-.016c1.002.834 2.326.869 3.334.37l-1.775-3.585a.926.926 0 011.001.142l-2.56 3.073zm.84-.484a1 1 0 01-1.348.06l2.561-3.072a3 3 0 00-4.042.183l2.829 2.829zm-1.476.19a1 1 0 01-.061 1.346l-2.829-2.828a3 3 0 00-.183 4.042l3.073-2.56zm.793 3.841c.499-1.008.465-2.332-.37-3.334l-3.073 2.56a.925.925 0 01-.142-1l3.585 1.774zm-2.974 2.95c1.299-.118 2.259-1.03 2.619-2.094l-3.789-1.282a.926.926 0 01.808-.607l.362 3.983zm.252-.936a1 1 0 01-.909.996l-.363-3.983A3 3 0 00262 33.913h4zm-.909 1.178a1 1 0 01.909.996h-4a3 3 0 002.728 2.987l.363-3.983zm3.276 2.154c-.36-1.064-1.32-1.976-2.619-2.094l-.362 3.983a.926.926 0 01-.808-.607l3.789-1.282zm-.015 4.19c.835-1.002.869-2.326.37-3.334l-3.585 1.775a.925.925 0 01.142-1.001l3.073 2.56zm-.484-.84a1 1 0 01.061 1.348l-3.073-2.561a3 3 0 00.183 4.042l2.829-2.828zm.189 1.476a1 1 0 011.348.061l-2.829 2.829a3 3 0 004.042.183l-2.561-3.073zm3.842-.793c-1.008-.499-2.332-.465-3.334.37l2.56 3.073a.926.926 0 01-1.001.142l1.775-3.585zm2.95 2.974c-.118-1.299-1.03-2.26-2.094-2.62l-1.282 3.79a.926.926 0 01-.607-.807l3.983-.363zm-.936-.252a1 1 0 01.996.91l-3.983.362A3 3 0 00273.913 48v-4zm1.178.91a1 1 0 01.996-.91v4a3 3 0 002.987-2.728l-3.983-.362zm2.154-3.277c-1.064.36-1.976 1.32-2.094 2.62l3.983.361a.926.926 0 01-.607.808l-1.282-3.79zm4.19.015c-1.002-.835-2.326-.869-3.334-.37l1.775 3.585a.926.926 0 01-1.001-.142l2.56-3.072zm-.84.484a1 1 0 011.348-.06l-2.561 3.072a3 3 0 004.042-.183l-2.829-2.829zm1.476-.19a1 1 0 01.061-1.346l2.829 2.828a3 3 0 00.183-4.042l-3.073 2.56zm-.793-3.841c-.499 1.008-.465 2.332.37 3.334l3.073-2.56c.292.35.264.754.142 1l-3.585-1.774zm2.974-2.95c-1.299.118-2.259 1.03-2.619 2.094l3.789 1.282a.926.926 0 01-.808.607l-.362-3.983zm-.252.936a1 1 0 01.909-.996l.363 3.983A3 3 0 00288 36.087h-4zm.909-1.178a1 1 0 01-.909-.996h4a3 3 0 00-2.728-2.987l-.363 3.983zm-3.276-2.154c.36 1.064 1.32 1.976 2.619 2.094l.362-3.983c.454.041.72.347.808.607l-3.789 1.282zm.015-4.19c-.835 1.002-.869 2.326-.37 3.334l3.585-1.774a.925.925 0 01-.142 1l-3.073-2.56zm.484.84a1 1 0 01-.061-1.348l3.073 2.56a3 3 0 00-.183-4.04l-2.829 2.827zm-.189-1.476a1 1 0 01-1.348-.061l2.829-2.829a3 3 0 00-4.042-.183l2.561 3.073zm-3.842.793c1.008.499 2.332.464 3.334-.37l-2.56-3.073a.926.926 0 011.001-.142l-1.775 3.585zm-2.95-2.974c.118 1.299 1.03 2.26 2.094 2.62l1.282-3.79c.26.088.566.354.607.808l-3.983.362zM273.913 22a3 3 0 00-2.987 2.728l3.983.362a1 1 0 01-.996.91v-4zm2.174 4a1 1 0 01-.996-.91l3.983-.362A3 3 0 00276.087 22v4z" fill="#000" mask="url(#a)"/><circle cx="275" cy="35" r="1" stroke="#000" stroke-width="2"/><path d="M67 120.84v-11.086c0-.409.249-.777.629-.928l4.062-1.625c.22-.088.463-.095.688-.021l4.672 1.558a3.004 3.004 0 001.898 0l2.735-.912a1 1 0 011.316.949v11.117a1 1 0 01-.572.904l-4 1.895.428.903-.428-.903a1.003 1.003 0 01-.856 0l-4.288-2.031a3 3 0 00-2.568 0l-2.288 1.083A1 1 0 0167 120.84zm5-13.34V120m6-11v13.5m30-15.5h14a1 1 0 011 1v.096c0 .288-.124.561-.339.751l-5.217 4.589a1 1 0 00-.337.687l-.466 7.207a.998.998 0 01-.637.868l-.864.335a1 1 0 01-1.354-.819l-.875-7.622a1.006 1.006 0 00-.333-.637l-5.239-4.608a1.002 1.002 0 01-.339-.751V108a1 1 0 011-1z" stroke="#000" stroke-width="2"/><path d="M33.267 158.875H31.16l1.318-8.39h2.106l-1.317 8.39zm7.635-8.185a5.074 5.074 0 00-1.89-.357c-2.08 0-3.544 1.143-3.553 2.776-.017 1.205 1.049 1.874 1.846 2.276.815.411 1.092.678 1.092 1.044-.008.562-.659.822-1.265.822-.84 0-1.291-.134-1.976-.447l-.277-.134-.295 1.884c.494.231 1.404.437 2.349.446 2.21 0 3.648-1.125 3.666-2.865.008-.955-.555-1.687-1.768-2.285-.737-.384-1.188-.643-1.188-1.035.008-.357.381-.723 1.213-.723a3.485 3.485 0 011.569.321l.19.089.287-1.812zm2.799 5.213l.84-2.347c-.008.017.174-.491.278-.804l.147.723s.399 2.008.486 2.428H43.7zm2.6-5.418h-1.63c-.502 0-.883.152-1.1.697l-3.129 7.693h2.21l.442-1.259h2.704c.061.295.252 1.259.252 1.259H48l-1.7-8.39zm-16.9 0l-2.063 5.721-.225-1.16c-.381-1.339-1.577-2.793-2.912-3.517l1.89 7.337h2.227l3.31-8.381h-2.227z" fill="#00579F"/><path d="M25.423 150.482h-3.388l-.035.17c2.643.696 4.394 2.374 5.113 4.391l-.736-3.856c-.122-.535-.494-.687-.954-.705z" fill="#FAA61A"/><path d="M78.34 149.467h-6.68v10.755h6.68v-10.755z" fill="#FF5F00"/><path d="M72.34 154.843c0-1.036.232-2.059.678-2.991a6.82 6.82 0 011.9-2.389 6.668 6.668 0 00-7.12-.775 6.792 6.792 0 00-2.77 2.525A6.917 6.917 0 0064 154.844c0 1.285.356 2.543 1.028 3.632a6.783 6.783 0 002.77 2.524 6.66 6.66 0 003.67.65 6.702 6.702 0 003.45-1.424 6.812 6.812 0 01-1.9-2.39 6.912 6.912 0 01-.677-2.993z" fill="#EB001B"/><path d="M86 154.845a6.837 6.837 0 01-3.856 6.156 6.856 6.856 0 01-7.225-.776 6.842 6.842 0 000-10.761A6.848 6.848 0 0186 154.843v.002z" fill="#F79E1B"/><path d="M120.065 156.353h1.444c.041 0 .137-.014.178-.014a.645.645 0 00.509-.646.667.667 0 00-.509-.646c-.041-.014-.123-.014-.178-.014h-1.444v1.32z" fill="#40A737"/><path d="M121.344 147.239a2.502 2.502 0 00-2.502 2.502v2.598h3.533c.082 0 .178 0 .247.014.797.041 1.388.453 1.388 1.168 0 .564-.398 1.045-1.141 1.141v.027c.811.055 1.43.509 1.43 1.21 0 .756-.687 1.251-1.595 1.251h-3.876v5.086h3.67a2.502 2.502 0 002.502-2.502v-12.495h-3.656z" fill="#40A737"/><path d="M122.017 153.686c0-.33-.233-.55-.508-.591-.028 0-.097-.014-.138-.014h-1.306v1.21h1.306c.041 0 .124 0 .138-.014a.584.584 0 00.508-.591z" fill="#40A737"/><path d="M107.515 147.239a2.502 2.502 0 00-2.501 2.502v6.172c.701.343 1.429.563 2.158.563.866 0 1.333-.522 1.333-1.237v-2.914h2.144v2.9c0 1.128-.701 2.049-3.079 2.049-1.443 0-2.57-.317-2.57-.317v5.265h3.67a2.502 2.502 0 002.502-2.502v-12.481h-3.657z" fill="#0066B1"/><path d="M114.43 147.239a2.502 2.502 0 00-2.502 2.502v3.271c.632-.536 1.732-.879 3.505-.797.948.041 1.966.303 1.966.303v1.058a4.766 4.766 0 00-1.897-.55c-1.347-.096-2.158.564-2.158 1.718 0 1.169.811 1.829 2.158 1.719.783-.055 1.388-.303 1.897-.55v1.058s-1.004.261-1.966.303c-1.773.082-2.873-.262-3.505-.798v5.774h3.67a2.502 2.502 0 002.502-2.502v-12.509h-3.67z" fill="#DC0436"/><path d="M145.171 147.312h19.44a1.39 1.39 0 011.389 1.389v13.192c0 .766-.622 1.388-1.389 1.388h-19.44a1.389 1.389 0 01-1.389-1.388v-13.192a1.39 1.39 0 011.389-1.389z" fill="#26A6D1"/><path d="M147.365 152.866l-2.194 4.855h2.627l.325-.774h.744l.326.774h2.891v-.59l.258.59h1.495l.258-.603v.603h6.012l.732-.754.684.754 3.088.007-2.201-2.421 2.201-2.441h-3.04l-.712.74-.663-.74h-6.541l-.561 1.253-.575-1.253h-2.621v.571l-.292-.571h-2.241zm.508.69h1.281l1.455 3.292v-3.292h1.402l1.124 2.36 1.036-2.36h1.396v3.484h-.849l-.007-2.731-1.238 2.731h-.76l-1.245-2.731v2.731h-1.747l-.331-.782h-1.789l-.33.781h-.936l1.538-3.483zm8.471 0h3.452l1.056 1.14 1.091-1.14h1.056l-1.605 1.751 1.605 1.73h-1.104l-1.056-1.154-1.096 1.154h-3.399v-3.481zm-7.848.589l-.589 1.391h1.178l-.589-1.391zm8.7.132v.636h1.884v.709h-1.884v.694h2.113l.982-1.023-.94-1.017h-2.155v.001z" fill="#fff"/><path d="M183.295 156.078c-.274.247-.629.355-1.192.355h-.233v-2.951h.233c.563 0 .904.101 1.192.361.301.268.482.683.482 1.111 0 .428-.181.856-.482 1.124zm-1.017-3.352H181v4.463h1.271c.676 0 1.164-.16 1.592-.516.509-.421.81-1.056.81-1.713 0-1.317-.984-2.234-2.395-2.234zm2.796 4.463h.87v-4.463h-.87v4.463zm2.999-2.751c-.522-.193-.676-.32-.676-.562 0-.281.274-.494.649-.494.261 0 .475.107.702.361l.455-.596a1.949 1.949 0 00-1.311-.495c-.79 0-1.392.548-1.392 1.279 0 .615.28.929 1.098 1.224.341.12.514.2.602.254a.533.533 0 01.261.462c0 .361-.288.629-.676.629-.415 0-.75-.208-.95-.595l-.563.541c.401.589.883.85 1.545.85.905 0 1.54-.602 1.54-1.465 0-.71-.294-1.03-1.284-1.393zm1.558.522c0 1.312 1.03 2.329 2.356 2.329.374 0 .695-.073 1.091-.26v-1.025c-.348.349-.656.489-1.051.489-.876 0-1.499-.635-1.499-1.539 0-.857.642-1.533 1.459-1.533.415 0 .729.148 1.091.502v-1.024c-.382-.194-.696-.274-1.071-.274-1.318 0-2.376 1.038-2.376 2.335z" fill="#201D1C"/><circle cx="195.737" cy="155.011" r="2.285" fill="url(#paint0_linear)"/><path d="M199.98 155.723l-1.19-2.997h-.951l1.894 4.577h.468l1.928-4.577h-.943l-1.206 2.997zm2.543 1.466h2.469v-.756h-1.599v-1.205h1.54v-.755h-1.54v-.991h1.599v-.756h-2.469v4.463zm4.169-2.409h-.254v-1.351h.268c.542 0 .836.227.836.661 0 .449-.294.69-.85.69zm1.746-.737c0-.835-.575-1.317-1.579-1.317h-1.291v4.463h.87v-1.793h.113l1.205 1.793h1.07l-1.404-1.881c.655-.133 1.016-.581 1.016-1.265z" fill="#201D1C"/><path d="M280.502 147.076c-.919-1.047-2.579-1.496-4.704-1.496h-6.166a.883.883 0 00-.872.745l-2.567 16.282a.53.53 0 00.523.612h3.806l.956-6.064-.029.19a.88.88 0 01.869-.745h1.808c3.554 0 6.336-1.443 7.149-5.618.024-.124.045-.244.063-.361-.102-.055-.102-.055 0 0 .242-1.544-.001-2.594-.836-3.545z" fill="#003087"/><path d="M281.338 150.621a9.173 9.173 0 01-.063.361c-.812 4.174-3.595 5.618-7.148 5.618h-1.81a.878.878 0 00-.868.745l-.926 5.873-.263 1.667a.463.463 0 00.457.535h3.209a.77.77 0 00.762-.651l.031-.164.605-3.833.039-.211a.772.772 0 01.762-.652h.481c3.108 0 5.542-1.263 6.253-4.915.297-1.526.143-2.801-.642-3.696a3.046 3.046 0 00-.879-.677" fill="#009CDE"/><path d="M280.487 150.281a6.118 6.118 0 00-.79-.175 10.04 10.04 0 00-1.595-.117h-4.834a.772.772 0 00-.762.652l-1.027 6.514-.03.19a.88.88 0 01.868-.745h1.81c3.553 0 6.336-1.443 7.148-5.618.025-.124.045-.243.064-.361a4.408 4.408 0 00-.669-.283c-.06-.019-.121-.039-.183-.057z" fill="#012069"/><path d="M236.888 146.183c4.764-.023 9.112 3.885 9.112 8.639 0 5.199-4.348 8.792-9.112 8.79h-4.099c-4.821.002-8.789-3.592-8.789-8.79 0-4.755 3.968-8.662 8.789-8.639h4.099z" fill="#0079BE"/><path d="M232.808 162.892a7.979 7.979 0 010-15.957 7.98 7.98 0 010 15.957zm-5.056-7.979a5.068 5.068 0 003.246 4.72v-9.438a5.064 5.064 0 00-3.246 4.718zm6.865-4.72v9.44a5.062 5.062 0 003.248-4.72 5.063 5.063 0 00-3.248-4.72z" fill="#fff"/><path d="M238.571 72.024c0 1.096-.339 2.539-1.006 3.68-.668 1.143-1.538 1.796-2.565 1.796s-1.897-.653-2.565-1.796c-.667-1.141-1.006-2.584-1.006-3.68a3.571 3.571 0 117.142 0zm3.286 11.119c0-3.857-2.558-3.445-4.19-5.024m-9.524 5.024c0-3.429 2.177-3.445 3.809-5.024" stroke="#000" stroke-width="2"/><circle cx="235" cy="75" r="11" stroke="#000" stroke-width="2"/><circle cx="155" cy="235" r="10" stroke="#000" stroke-width="2"/><path d="M152 232.5v-.25a2.75 2.75 0 012.75-2.75v0a2.75 2.75 0 012.75 2.75v.078c0 .751-.298 1.47-.828 2l-1.086 1.086a2 2 0 00-.586 1.414v.672" stroke="#000" stroke-width="2"/><circle cx="155" cy="240" r="1" fill="#000"/><circle cx="155" cy="195" r="9" stroke="#000" stroke-width="2"/><path d="M162.071 188c-3.905 3.905-10.237 3.905-14.142 0m14.142 14.071c-3.905-3.905-10.237-3.905-14.142 0M164 195h-18" stroke="#000" stroke-width="2"/><path d="M235 110.5h-8m16 9h-3m-11 0h-2" stroke="#000" stroke-width="2" stroke-linecap="round"/><path d="M240.5 113a2.5 2.5 0 110-5 2.5 2.5 0 010 5zm-6 9a2.5 2.5 0 110-5 2.5 2.5 0 010 5z" stroke="#000" stroke-width="2"/><path d="M68 201h7m-7-6h14m-14-6h14" stroke="#000" stroke-width="2" stroke-linecap="round"/><path d="M182 105h4.194l4.473 14h11.777l2.556-9.545h-15.333" stroke="#000" stroke-width="2" stroke-linejoin="round"/><circle cx="191" cy="124" r="2" fill="#000"/><circle cx="201" cy="124" r="2" fill="#000"/><mask id="b" fill="#fff"><path d="M267 71.964c0-4.398 3.617-7.964 8.016-7.964 4.381 0 7.984 3.552 7.984 7.933a7.932 7.932 0 01-1.289 4.334l-5.101 7.82a2 2 0 01-3.36-.016l-4.997-7.819A7.967 7.967 0 01267 71.964z"/></mask><path d="M281.711 76.267l1.675 1.093-1.675-1.093zm-13.458-.015l-1.685 1.077 1.685-1.077zm4.997 7.82l1.685-1.078-1.685 1.077zm3.36.015l-1.675-1.093 1.675 1.093zm-1.675-1.093l-4.997-7.819-3.37 2.154 4.996 7.82 3.371-2.155zm5.101-7.82l-5.101 7.82 3.35 2.186 5.101-7.82-3.35-2.186zm.964-3.241a5.932 5.932 0 01-.964 3.241l3.35 2.185A9.932 9.932 0 00285 71.933h-4zm-11.062 3.242a5.97 5.97 0 01-.938-3.211h-4c0 1.901.544 3.763 1.568 5.365l3.37-2.153zm1.626 9.973c1.565 2.448 5.134 2.465 6.721.032l-3.35-2.186-3.371 2.154zM275.016 66c3.293 0 5.984 2.673 5.984 5.933h4c0-5.503-4.515-9.933-9.984-9.933v4zm0-4C269.53 62 265 66.444 265 71.964h4c0-3.277 2.705-5.964 6.016-5.964v-4z" fill="#000" mask="url(#b)"/><circle cx="275" cy="72" r="2" fill="#000"/><path fill-rule="evenodd" clip-rule="evenodd" d="M114.391 185a6.653 6.653 0 00-6.653 6.653c0 1.725.676 3.377 1.719 4.752 1.242 1.638 2.916 4.162 4.18 7.244.4.977 2.225.991 2.637.019 1.311-3.093 3.011-5.625 4.265-7.267 1.047-1.371 1.723-3.023 1.723-4.748a6.653 6.653 0 00-6.653-6.653h-1.218zm.609 9.078a1.816 1.816 0 100-3.632 1.816 1.816 0 000 3.632z" fill="#3CA5F1"/><path d="M269.5 108v12" stroke="#000" stroke-width="3"/><path d="M266 108v14" stroke="#000" stroke-width="2"/><path d="M277.5 108v12" stroke="#000" stroke-width="3"/><path d="M274 108v12m7-12v12m3-12v14m22.707-84.655a2 2 0 01.556-1.066l11.093-11.094a2 2 0 012.829 0l.901.9a2 2 0 010 2.83l-11.094 11.093a2 2 0 01-1.067.555l-2.5.442a1 1 0 01-1.159-1.159l.441-2.5zM323.5 45h-18M318 26l4 4" stroke="#000" stroke-width="2"/><path d="M34.64 199.562l-5.489-6.664c-.323-.392.076-.96.554-.789l5.054 1.805a.5.5 0 00.452-.059l11.942-8.21c.494-.34 1.058.318.648.754l-12.412 13.188a.5.5 0 01-.75-.025z" fill="#3CA5F1"/><path d="M34.78 183v2.945m0 17.67v2.945M23 194.78h2.945m17.67 0h2.945m-21.982-5.89l2.55 1.473m15.303 8.835l2.551 1.472m-20.404 0l2.55-1.472m1.762-14.62l1.473 2.551m8.835 15.303l1.472 2.55m0-20.404l-1.472 2.551m-8.835 15.303l-1.473 2.55" stroke="#000" stroke-width="1.5" stroke-linecap="round"/><path d="M314 76.5a1.5 1.5 0 100-3 1.5 1.5 0 000 3zm0-4.5a1.5 1.5 0 100-3 1.5 1.5 0 000 3zm0 9a1.5 1.5 0 100-3 1.5 1.5 0 000 3zm5-4.5a1.5 1.5 0 100-3 1.5 1.5 0 000 3zm0-4.5a1.5 1.5 0 100-3 1.5 1.5 0 000 3zm-10 4.5a1.5 1.5 0 100-3 1.5 1.5 0 000 3zm0 4.5a1.5 1.5 0 100-3 1.5 1.5 0 000 3z" fill="#000"/><rect x="303" y="65" width="22" height="20" rx="2" stroke="#000" stroke-width="2"/><path d="M307.5 113.121a.946.946 0 00-1.355 0 .986.986 0 000 1.379c.374.38.981.38 1.355 0a.988.988 0 000-1.379zm2.5 2.379a.948.948 0 00-1.355 0 .986.986 0 000 1.379c.374.38.981.38 1.355 0a.988.988 0 000-1.379zm2.5 2.5a.948.948 0 00-1.355 0 .988.988 0 000 1.379.946.946 0 001.355 0 .988.988 0 000-1.379zm2.355 2.5a.946.946 0 00-1.355 0 .988.988 0 000 1.379c.374.38.981.38 1.355 0a.986.986 0 000-1.379z" fill="#000" stroke="#000" stroke-width=".5"/><path d="M302.839 116.503l.707.707-.707-.707zm0 2.828l-.707.707.707-.707zm11.664-14.492l-.707-.707.707.707zm2.828 0l-.707.707.707-.707zm1.383 1.383l.838.545.442-.679-.573-.573-.707.707zm3.082 3.082l.707-.707-.573-.573-.679.441.545.839zm1.528 1.528l-.707.707.707-.707zm0 2.828l.707.707-.707-.707zm-11.664 11.664l.707.707-.707-.707zm-2.828 0l-.707.707.707-.707zm-1.528-1.528l-.839-.545-.441.679.573.573.707-.707zm-3.082-3.082l-.707.707.573.573.679-.442-.545-.838zm-2.09-4.918a2.998 2.998 0 000 4.242l1.414-1.414a1 1 0 010-1.414l-1.414-1.414zm11.664-11.664l-11.664 11.664 1.414 1.414 11.664-11.664-1.414-1.414zm4.242 0a2.998 2.998 0 00-4.242 0l1.414 1.414a1 1 0 011.414 0l1.414-1.414zm1.383 1.383l-1.383-1.383-1.414 1.414 1.383 1.383 1.414-1.414zm-.066 1.92c0-.248.073-.476.197-.668l-1.676-1.09a3.218 3.218 0 00-.521 1.758h2zm1.228 1.227a1.227 1.227 0 01-1.228-1.227h-2a3.227 3.227 0 003.228 3.227v-2zm.668-.197c-.192.125-.42.197-.668.197v2c.647 0 1.252-.191 1.758-.52l-1.09-1.677zm2.78 1.66l-1.528-1.528-1.414 1.414 1.528 1.528 1.414-1.414zm0 4.242a2.998 2.998 0 000-4.242l-1.414 1.414a1 1 0 010 1.414l1.414 1.414zm-11.664 11.664l11.664-11.664-1.414-1.414-11.664 11.664 1.414 1.414zm-4.242 0a2.998 2.998 0 004.242 0l-1.414-1.414a1 1 0 01-1.414 0l-1.414 1.414zm-1.528-1.528l1.528 1.528 1.414-1.414-1.528-1.528-1.414 1.414zm.065-1.92c0 .248-.072.476-.197.668l1.677 1.09c.329-.506.52-1.111.52-1.758h-2zm-1.227-1.228c.678 0 1.227.55 1.227 1.228h2a3.227 3.227 0 00-3.227-3.228v2zm-.668.197c.192-.124.42-.197.668-.197v-2c-.647 0-1.252.192-1.758.521l1.09 1.676zm-2.635-1.514l1.383 1.383 1.414-1.414-1.383-1.383-1.414 1.414z" fill="#000"/><path d="M311.049 147.927c.299-.921 1.603-.921 1.902 0l1.07 3.292a1 1 0 00.951.691h3.461c.969 0 1.371 1.239.588 1.809l-2.801 2.034a1 1 0 00-.363 1.118l1.07 3.292c.299.921-.755 1.688-1.539 1.118l-2.8-2.034a1 1 0 00-1.176 0l-2.8 2.034c-.784.57-1.838-.197-1.539-1.118l1.07-3.292a1 1 0 00-.363-1.118l-2.801-2.034c-.783-.57-.381-1.809.588-1.809h3.461a1 1 0 00.951-.691l1.07-3.292zm0 30c.299-.921 1.603-.921 1.902 0l1.07 3.292a1 1 0 00.951.691h3.461c.969 0 1.371 1.239.588 1.809l-2.801 2.034a1 1 0 00-.363 1.118l1.07 3.292c.299.921-.755 1.688-1.539 1.118l-2.8-2.034a1 1 0 00-1.176 0l-2.8 2.034c-.784.57-1.838-.197-1.539-1.118l1.07-3.292a1 1 0 00-.363-1.118l-2.801-2.034c-.783-.57-.381-1.809.588-1.809h3.461a1 1 0 00.951-.691l1.07-3.292z" fill="#48A0F1"/><mask id="c" maskUnits="userSpaceOnUse" x="312" y="176" width="8" height="16"><path transform="matrix(-1 0 0 1 320 176)" fill="#C4C4C4" d="M0 0h8v16H0z"/></mask><g mask="url(#c)"><path d="M311.049 177.927c.299-.921 1.603-.921 1.902 0l1.07 3.292a1 1 0 00.951.691h3.461c.969 0 1.371 1.239.588 1.809l-2.801 2.034a1 1 0 00-.363 1.118l1.07 3.292c.299.921-.755 1.688-1.539 1.118l-2.8-2.034a1 1 0 00-1.176 0l-2.8 2.034c-.784.57-1.838-.197-1.539-1.118l1.07-3.292a1 1 0 00-.363-1.118l-2.801-2.034c-.783-.57-.381-1.809.588-1.809h3.461a1 1 0 00.951-.691l1.07-3.292z" fill="#D9DBDD"/></g><path d="M311.049 207.927c.299-.921 1.603-.921 1.902 0l1.07 3.292a1 1 0 00.951.691h3.461c.969 0 1.371 1.239.588 1.809l-2.801 2.034a1 1 0 00-.363 1.118l1.07 3.292c.299.921-.755 1.688-1.539 1.118l-2.8-2.034a1 1 0 00-1.176 0l-2.8 2.034c-.784.57-1.838-.197-1.539-1.118l1.07-3.292a1 1 0 00-.363-1.118l-2.801-2.034c-.783-.57-.381-1.809.588-1.809h3.461a1 1 0 00.951-.691l1.07-3.292z" fill="#D9DBDD"/><path d="M269 189a1 1 0 00-2 0h2zm14 0a1 1 0 00-2 0h2zm-16 0v13h2v-13h-2zm3 16h10v-2h-10v2zm13-3v-13h-2v13h2zm-3 3a3 3 0 003-3h-2a1 1 0 01-1 1v2zm-13-3a3 3 0 003 3v-2a1 1 0 01-1-1h-2z" fill="#000"/><path d="M266.5 187a1 1 0 000 2v-2zm17 2a1 1 0 000-2v2zm-17 0h17v-2h-17v2zm12 4a1 1 0 00-2 0h2zm-2 6a1 1 0 002 0h-2zm0-6v6h2v-6h-2zm-3 0a1 1 0 00-2 0h2zm-2 6a1 1 0 002 0h-2zm0-6v6h2v-6h-2z" fill="#000"/><path d="M269.944 187.222a1 1 0 102 0h-2zm7.778 0a1 1 0 102 0h-2zm-5.778 0V186h-2v1.222h2zm0-1.222h5.778v-2h-5.778v2zm5.778 0v1.222h2V186h-2zm0 0h2a2 2 0 00-2-2v2zm-5.778 0v-2a2 2 0 00-2 2h2zM36.14 246v-10.035h3.243l.486-3.911h-3.73v-2.497c0-1.133.304-1.904 1.867-1.904l1.994-.001v-3.498c-.345-.048-1.529-.154-2.906-.154-2.874 0-4.843 1.822-4.843 5.17v2.884H29v3.911h3.251V246h3.889z" fill="#000"/><rect x="65" y="225" width="20" height="20" rx="6" stroke="#000" stroke-width="2"/><path d="M82 229.5a1.5 1.5 0 11-3 0 1.5 1.5 0 013 0z" fill="#000"/><circle cx="75" cy="235" r="4" stroke="#000" stroke-width="2"/><path d="M125 236.131v7.025h-4.072v-6.554c0-1.647-.589-2.77-2.063-2.77-1.126 0-1.795.757-2.09 1.489-.107.262-.135.627-.135.993v6.842h-4.074s.055-11.101 0-12.251h4.074v1.737l-.027.039h.027v-.039c.541-.834 1.507-2.025 3.671-2.025 2.68 0 4.689 1.751 4.689 5.514zM108.305 225c-1.393 0-2.305.914-2.305 2.116 0 1.176.885 2.118 2.251 2.118h.027c1.421 0 2.304-.942 2.304-2.118-.026-1.202-.883-2.116-2.277-2.116zm-2.063 18.156h4.072v-12.251h-4.072v12.251z" fill="#000"/><path d="M281.98 242.73l-4.48-4.48" stroke="#000" stroke-width="2" stroke-linecap="round"/><circle cx="273" cy="233" r="6" stroke="#000" stroke-width="2"/><path d="M233.192 224.574l2.972 2.363 3.593-1.228 1.015 3.658 3.629 1.118-1.329 3.557 2.278 3.037-3.166 2.096.058 3.797-3.793-.165-2.184 3.105-2.972-2.363-3.593 1.229-1.015-3.659-3.629-1.118 1.329-3.556-2.278-3.038 3.166-2.096-.058-3.796 3.793.165 2.184-3.106z" stroke="#000" stroke-width="2" stroke-linejoin="round"/><path d="M233.5 232a1.5 1.5 0 11-3.001-.001 1.5 1.5 0 013.001.001zm6 6a1.5 1.5 0 11-3.001-.001 1.5 1.5 0 013.001.001z" fill="#000"/><path d="M237.5 232.5L232 238" stroke="#000" stroke-width="2" stroke-linecap="round"/><g clip-path="url(#clip0)" stroke-width="2"><path d="M201 233a6.003 6.003 0 00-1.757-4.243 6.003 6.003 0 00-8.486 0A6.003 6.003 0 00189 233c0 7-3 9-3 9h18s-3-2-3-9zm-4.27 10a2.002 2.002 0 01-2.728.73 2.002 2.002 0 01-.732-.73" stroke="#0A1F44" stroke-linecap="round" stroke-linejoin="round"/><circle cx="201" cy="229" r="5" fill="#3CA5F1" stroke="#fff"/></g><defs><linearGradient id="paint0_linear" x1="194.448" y1="153.331" x2="197.125" y2="157.084" gradientUnits="userSpaceOnUse"><stop stop-color="#DE4526"/><stop offset=".589" stop-color="#E97725"/><stop offset="1" stop-color="#F4D229"/></linearGradient><clipPath id="clip0"><path fill="#fff" transform="translate(183 223)" d="M0 0h24v24H0z"/></clipPath></defs></svg>