<svg width="375" height="338" viewBox="0 0 375 338" fill="none" xmlns="http://www.w3.org/2000/svg">
<path d="M154.973 80.9495L155.634 80.1994C155.452 80.0384 155.216 79.9495 154.973 79.9495V80.9495ZM158.169 83.7677L157.508 84.5178H157.508L158.169 83.7677ZM159 80.5056L158.649 79.5693C158.259 79.7157 158 80.0888 158 80.5056H159ZM146.004 73C146.004 69.6863 148.69 67 152.004 67V65C147.586 65 144.004 68.5817 144.004 73H146.004ZM146.004 73.9495V73H144.004V73.9495H146.004ZM152.004 79.9495C148.69 79.9495 146.004 77.2632 146.004 73.9495H144.004C144.004 78.3678 147.586 81.9495 152.004 81.9495V79.9495ZM154.973 79.9495H152.004V81.9495H154.973V79.9495ZM154.312 81.6996L157.508 84.5178L158.831 83.0176L155.634 80.1994L154.312 81.6996ZM157.508 84.5178C158.477 85.3718 160 84.684 160 83.3926H158C158 82.9622 158.508 82.7329 158.831 83.0176L157.508 84.5178ZM160 83.3926V80.5056H158V83.3926H160ZM162.541 73.9495C162.541 76.5201 160.924 78.7155 158.649 79.5693L159.351 81.4418C162.382 80.3048 164.541 77.3806 164.541 73.9495H162.541ZM162.541 73V73.9495H164.541V73H162.541ZM156.541 67C159.855 67 162.541 69.6863 162.541 73H164.541C164.541 68.5817 160.96 65 156.541 65V67ZM152.004 67H156.541V65H152.004V67Z" fill="black"/>
<rect x="146" y="109" width="19" height="13" rx="2" stroke="black" stroke-width="2"/>
<path d="M164.5 113H146.5" stroke="black" stroke-width="2"/>
<path d="M158 118H162" stroke="black" stroke-width="2"/>
<path d="M157.25 30L152 35.25L157.25 40.5" stroke="black" stroke-width="2" stroke-linecap="round" stroke-linejoin="round"/>
<path d="M38.5 107.5L35 104L31.5 107.5" stroke="black" stroke-width="2"/>
<path d="M38 111H39C40.1046 111 41 111.895 41 113V121C41 122.105 40.1046 123 39 123H31C29.8954 123 29 122.105 29 121V113C29 111.895 29.8954 111 31 111H32" stroke="black" stroke-width="2"/>
<path d="M35 104.5V117" stroke="black" stroke-width="2"/>
<path d="M239 199L243 195L239 191" stroke="black" stroke-width="2"/>
<path d="M235 187L229 187C227.895 187 227 187.895 227 189L227 201C227 202.105 227.895 203 229 203L235 203" stroke="black" stroke-width="2"/>
<path d="M242.5 195L231 195" stroke="black" stroke-width="2"/>
<path d="M192.5 30L197.5 35L192.5 40" stroke="black" stroke-width="2" stroke-linecap="round" stroke-linejoin="round"/>
<path d="M200 192.5L195 197.5L190 192.5" stroke="black" stroke-width="2" stroke-linejoin="round"/>
<path d="M200 70C200 71.4903 199.542 73.4394 198.637 74.988C197.731 76.5381 196.503 77.5 195 77.5C193.497 77.5 192.269 76.5381 191.363 74.988C190.458 73.4394 190 71.4903 190 70C190 67.2386 192.239 65 195 65C197.761 65 200 67.2386 200 70Z" stroke="black" stroke-width="2"/>
<path d="M198.5 78C200.642 80.0727 204 80.7381 204 82.5C204 84.5 200.523 85.5 195 85.5C189.477 85.5 186 84.5 186 82.5C186 80.7381 188.858 80.0727 191 78" stroke="black" stroke-width="2"/>
<path d="M112.835 79.3404L112.873 79.3788L113.545 80.0504C114.326 80.8314 115.592 80.8314 116.373 80.0504L121.002 75.4212C122.333 74.091 122.333 71.9343 121.002 70.6041C119.672 69.2739 117.516 69.2739 116.185 70.6041L116.001 70.7883L115.317 70.1037L116.001 70.7883C115.415 71.3741 114.466 71.3741 113.88 70.7883M112.835 79.3404L112.792 79.3064M112.835 79.3404L112.792 79.3064M113.88 70.7883L113.696 70.6041C112.365 69.2739 110.209 69.2739 108.879 70.6041C107.548 71.9343 107.548 74.091 108.879 75.4212L112.513 79.0561C112.603 79.1457 112.696 79.2291 112.792 79.3064" stroke="black" stroke-width="2"/>
<path d="M32.1847 80.4566L32.1463 80.4182L32.1039 80.3842C31.977 80.2821 31.854 80.172 31.7358 80.0538L27.1989 75.5169C25.4417 73.7597 25.4417 70.9107 27.1989 69.1535C28.956 67.3963 31.805 67.3963 33.5622 69.1535L33.8798 69.4711C34.4656 70.0569 35.4153 70.0569 36.0011 69.4711L36.3188 69.1535C38.0759 67.3963 40.9249 67.3963 42.6821 69.1535C44.4393 70.9107 44.4393 73.7597 42.6821 75.5168L36.3777 81.8212C35.5967 82.6023 34.3304 82.6023 33.5493 81.8212L32.1847 80.4566Z" stroke="black" stroke-width="2"/>
<circle cx="107.5" cy="35.5" r="2.5" fill="black"/>
<circle cx="115.5" cy="35.5" r="2.5" fill="black"/>
<circle cx="123.5" cy="35.5" r="2.5" fill="black"/>
<path d="M227.5 35L232.5 40L242.5 30" stroke="black" stroke-width="2"/>
<path d="M68 42L82 28" stroke="black" stroke-width="2"/>
<path d="M68 28L82 42" stroke="black" stroke-width="2"/>
<path d="M35.5 26.5V42" stroke="black" stroke-width="2"/>
<path d="M43.25 34.25L27.75 34.25" stroke="black" stroke-width="2"/>
<path d="M69 71L69.7708 80.2491C69.9003 81.804 71.2001 83 72.7604 83H77.2396C78.7999 83 80.0997 81.804 80.2292 80.2491L81 71" stroke="black" stroke-width="2"/>
<path d="M67 69H83" stroke="black" stroke-width="2"/>
<path d="M78 69V69C78 67.8954 77.1046 67 76 67H74C72.8954 67 72 67.8954 72 69V69" stroke="black" stroke-width="2"/>
<mask id="path-29-inside-1" fill="white">
<path fill-rule="evenodd" clip-rule="evenodd" d="M272.917 24.9095C272.964 24.3944 273.396 24 273.913 24H276.087C276.604 24 277.036 24.3944 277.083 24.9095L277.142 25.5666C277.181 25.9895 277.484 26.3367 277.886 26.4728C278.266 26.6011 278.633 26.754 278.988 26.9296C279.369 27.1181 279.829 27.087 280.155 26.8151L280.662 26.3922C281.06 26.0611 281.644 26.0876 282.01 26.4533L283.547 27.9903C283.912 28.356 283.939 28.9403 283.608 29.3376L283.185 29.845C282.913 30.1712 282.882 30.6313 283.07 31.0119C283.246 31.3665 283.399 31.7344 283.527 32.1137C283.663 32.5159 284.011 32.8191 284.433 32.8576L285.091 32.9173C285.606 32.9641 286 33.396 286 33.9132V36.0868C286 36.604 285.606 37.0359 285.091 37.0827L284.433 37.1424C284.011 37.1809 283.663 37.4841 283.527 37.8863C283.399 38.2656 283.246 38.6334 283.07 38.9881C282.882 39.3687 282.913 39.8287 283.185 40.155L283.608 40.6624C283.939 41.0597 283.912 41.644 283.547 42.0097L282.01 43.5467C281.644 43.9124 281.06 43.9389 280.662 43.6078L280.155 43.1849C279.829 42.913 279.369 42.8819 278.988 43.0704C278.633 43.246 278.266 43.3989 277.886 43.5272C277.484 43.6633 277.181 44.0105 277.142 44.4334L277.083 45.0905C277.036 45.6056 276.604 46 276.087 46H273.913C273.396 46 272.964 45.6056 272.917 45.0905L272.858 44.4334C272.819 44.0105 272.516 43.6633 272.114 43.5272C271.734 43.3989 271.367 43.246 271.012 43.0704C270.631 42.8819 270.171 42.913 269.845 43.1849L269.338 43.6078C268.94 43.9389 268.356 43.9124 267.99 43.5466L266.453 42.0097C266.088 41.644 266.061 41.0597 266.392 40.6624L266.815 40.155C267.087 39.8287 267.118 39.3687 266.93 38.9881C266.754 38.6334 266.601 38.2656 266.473 37.8863C266.337 37.4841 265.989 37.1809 265.567 37.1424L264.909 37.0827C264.394 37.0359 264 36.604 264 36.0868V33.9132C264 33.396 264.394 32.9641 264.909 32.9173L265.567 32.8576C265.989 32.8191 266.337 32.5159 266.473 32.1137C266.601 31.7344 266.754 31.3665 266.93 31.0119C267.118 30.6313 267.087 30.1712 266.815 29.845L266.392 29.3376C266.061 28.9403 266.088 28.356 266.453 27.9903L267.99 26.4534C268.356 26.0876 268.94 26.0611 269.338 26.3922L269.845 26.8151C270.171 27.087 270.631 27.1181 271.012 26.9296C271.367 26.754 271.734 26.6011 272.114 26.4728C272.516 26.3367 272.819 25.9895 272.858 25.5666L272.917 24.9095Z"/>
</mask>
<path d="M272.114 26.4728L271.473 24.5783L272.114 26.4728ZM272.858 25.5666L270.866 25.3855L272.858 25.5666ZM266.453 27.9903L265.039 26.5761L266.453 27.9903ZM266.815 29.845L265.279 31.1254L266.815 29.845ZM264.909 32.9173L264.728 30.9255L264.909 32.9173ZM264.909 37.0827L265.091 35.0909L264.909 37.0827ZM266.473 37.8863L264.578 38.5274L266.473 37.8863ZM265.567 37.1424L265.386 39.1342L265.567 37.1424ZM266.815 40.155L265.279 38.8746L266.815 40.155ZM266.453 42.0097L265.039 43.4239L266.453 42.0097ZM266.392 40.6624L264.856 39.382L266.392 40.6624ZM269.338 43.6078L268.057 42.0713L269.338 43.6078ZM267.99 43.5466L269.405 42.1324L267.99 43.5466ZM269.845 43.1849L271.125 44.7214L269.845 43.1849ZM272.858 44.4334L270.866 44.6145L272.858 44.4334ZM272.114 43.5272L271.473 45.4217L272.114 43.5272ZM272.917 45.0905L270.926 45.2716L272.917 45.0905ZM277.886 43.5272L277.245 41.6327L277.886 43.5272ZM277.142 44.4334L275.151 44.2524L277.142 44.4334ZM280.155 43.1849L281.435 41.6485L280.155 43.1849ZM278.988 43.0704L278.101 41.278L278.988 43.0704ZM280.662 43.6078L279.382 45.1442L280.662 43.6078ZM283.608 40.6624L285.144 39.382L283.608 40.6624ZM283.07 38.9881L284.863 39.8755L283.07 38.9881ZM283.185 40.155L281.648 41.4354L283.185 40.155ZM283.527 37.8863L281.633 37.2453L283.527 37.8863ZM283.527 32.1137L281.633 32.7547L283.527 32.1137ZM284.433 32.8576L284.252 34.8494L284.433 32.8576ZM283.185 29.845L284.721 31.1254L283.185 29.845ZM283.07 31.0119L284.863 30.1245L283.07 31.0119ZM283.608 29.3376L282.071 28.0572L283.608 29.3376ZM280.662 26.3922L281.943 27.9287L280.662 26.3922ZM282.01 26.4533L283.424 25.0391L282.01 26.4533ZM278.988 26.9296L278.101 28.722L278.988 26.9296ZM277.142 25.5666L279.134 25.3855L277.142 25.5666ZM277.886 26.4728L278.527 24.5783L277.886 26.4728ZM277.083 24.9095L279.074 24.7284L277.083 24.9095ZM276.087 22H273.913V26H276.087V22ZM279.134 25.3855L279.074 24.7284L275.091 25.0905L275.151 25.7476L279.134 25.3855ZM277.245 28.3673C277.54 28.4669 277.825 28.5856 278.101 28.722L279.876 25.1373C279.442 24.9225 278.992 24.7354 278.527 24.5783L277.245 28.3673ZM279.382 24.8558L278.875 25.2786L281.435 28.3515L281.943 27.9287L279.382 24.8558ZM284.961 26.5761L283.424 25.0391L280.595 27.8676L282.132 29.4045L284.961 26.5761ZM284.721 31.1254L285.144 30.6179L282.071 28.0572L281.648 28.5646L284.721 31.1254ZM281.278 31.8993C281.414 32.1748 281.533 32.4604 281.633 32.7547L285.422 31.4726C285.265 31.0084 285.078 30.5583 284.863 30.1245L281.278 31.8993ZM285.272 30.9255L284.614 30.8658L284.252 34.8494L284.909 34.9091L285.272 30.9255ZM288 36.0868V33.9132H284V36.0868H288ZM284.614 39.1342L285.272 39.0745L284.909 35.0909L284.252 35.1506L284.614 39.1342ZM281.633 37.2453C281.533 37.5396 281.414 37.8252 281.278 38.1007L284.863 39.8755C285.078 39.4417 285.265 38.9916 285.422 38.5274L281.633 37.2453ZM285.144 39.382L284.721 38.8746L281.648 41.4354L282.071 41.9428L285.144 39.382ZM283.424 44.9609L284.961 43.4239L282.132 40.5955L280.595 42.1324L283.424 44.9609ZM278.875 44.7214L279.382 45.1442L281.943 42.0713L281.435 41.6485L278.875 44.7214ZM278.101 41.278C277.825 41.4144 277.54 41.5331 277.245 41.6327L278.527 45.4217C278.992 45.2646 279.442 45.0775 279.876 44.8627L278.101 41.278ZM279.074 45.2716L279.134 44.6145L275.151 44.2524L275.091 44.9095L279.074 45.2716ZM273.913 48H276.087V44H273.913V48ZM270.866 44.6145L270.926 45.2716L274.909 44.9095L274.849 44.2524L270.866 44.6145ZM272.755 41.6327C272.46 41.5331 272.175 41.4144 271.899 41.278L270.124 44.8627C270.558 45.0775 271.008 45.2646 271.473 45.4217L272.755 41.6327ZM270.618 45.1442L271.125 44.7214L268.565 41.6485L268.057 42.0713L270.618 45.1442ZM265.039 43.4239L266.576 44.9609L269.405 42.1324L267.868 40.5955L265.039 43.4239ZM265.279 38.8746L264.856 39.382L267.929 41.9428L268.352 41.4354L265.279 38.8746ZM268.722 38.1007C268.586 37.8252 268.467 37.5396 268.367 37.2453L264.578 38.5274C264.735 38.9916 264.922 39.4417 265.137 39.8755L268.722 38.1007ZM264.728 39.0745L265.386 39.1342L265.748 35.1506L265.091 35.0909L264.728 39.0745ZM262 33.9132V36.0868H266V33.9132H262ZM265.386 30.8658L264.728 30.9255L265.091 34.9091L265.748 34.8494L265.386 30.8658ZM268.367 32.7547C268.467 32.4604 268.586 32.1748 268.722 31.8993L265.137 30.1245C264.922 30.5583 264.735 31.0084 264.578 31.4726L268.367 32.7547ZM264.856 30.618L265.279 31.1254L268.352 28.5646L267.929 28.0572L264.856 30.618ZM266.576 25.0391L265.039 26.5761L267.868 29.4045L269.405 27.8676L266.576 25.0391ZM271.125 25.2786L270.618 24.8558L268.057 27.9287L268.565 28.3515L271.125 25.2786ZM271.899 28.722C272.175 28.5856 272.46 28.4669 272.755 28.3673L271.473 24.5783C271.008 24.7354 270.558 24.9225 270.124 25.1373L271.899 28.722ZM270.926 24.7284L270.866 25.3855L274.849 25.7476L274.909 25.0905L270.926 24.7284ZM272.755 28.3673C273.819 28.0071 274.731 27.0465 274.849 25.7476L270.866 25.3855C270.907 24.9324 271.213 24.6663 271.473 24.5783L272.755 28.3673ZM268.565 28.3515C269.567 29.1865 270.891 29.221 271.899 28.722L270.124 25.1373C270.371 25.0151 270.776 24.9874 271.125 25.2786L268.565 28.3515ZM269.405 27.8676C269.039 28.2333 268.455 28.2598 268.057 27.9287L270.618 24.8558C269.426 23.8625 267.673 23.942 266.576 25.0391L269.405 27.8676ZM267.929 28.0572C268.26 28.4546 268.233 29.0388 267.868 29.4045L265.039 26.5761C263.942 27.6732 263.862 29.426 264.856 30.618L267.929 28.0572ZM268.722 31.8993C269.221 30.8914 269.187 29.5666 268.352 28.5646L265.279 31.1254C264.987 30.7759 265.015 30.3712 265.137 30.1245L268.722 31.8993ZM265.748 34.8494C267.047 34.7313 268.007 33.8191 268.367 32.7547L264.578 31.4726C264.666 31.2127 264.932 30.907 265.386 30.8658L265.748 34.8494ZM266 33.9132C266 34.4304 265.606 34.8623 265.091 34.9091L264.728 30.9255C263.183 31.066 262 32.3616 262 33.9132H266ZM265.091 35.0909C265.606 35.1377 266 35.5696 266 36.0868H262C262 37.6384 263.183 38.934 264.728 39.0745L265.091 35.0909ZM268.367 37.2453C268.007 36.1809 267.047 35.2687 265.748 35.1506L265.386 39.1342C264.932 39.093 264.666 38.7873 264.578 38.5274L268.367 37.2453ZM268.352 41.4354C269.187 40.4334 269.221 39.1086 268.722 38.1007L265.137 39.8755C265.015 39.6288 264.987 39.2241 265.279 38.8746L268.352 41.4354ZM267.868 40.5955C268.233 40.9612 268.26 41.5454 267.929 41.9428L264.856 39.382C263.862 40.574 263.942 42.3268 265.039 43.4239L267.868 40.5955ZM268.057 42.0713C268.455 41.7402 269.039 41.7667 269.405 42.1324L266.576 44.9609C267.673 46.058 269.426 46.1375 270.618 45.1442L268.057 42.0713ZM271.899 41.278C270.891 40.779 269.567 40.8135 268.565 41.6485L271.125 44.7214C270.776 45.0126 270.371 44.9849 270.124 44.8627L271.899 41.278ZM274.849 44.2524C274.731 42.9535 273.819 41.9929 272.755 41.6327L271.473 45.4217C271.213 45.3337 270.907 45.0676 270.866 44.6145L274.849 44.2524ZM273.913 44C274.43 44 274.862 44.3944 274.909 44.9095L270.926 45.2716C271.066 46.8168 272.362 48 273.913 48V44ZM275.091 44.9095C275.138 44.3944 275.57 44 276.087 44V48C277.638 48 278.934 46.8168 279.074 45.2716L275.091 44.9095ZM277.245 41.6327C276.181 41.9929 275.269 42.9535 275.151 44.2524L279.134 44.6145C279.093 45.0676 278.787 45.3337 278.527 45.4217L277.245 41.6327ZM281.435 41.6485C280.433 40.8135 279.109 40.779 278.101 41.278L279.876 44.8627C279.629 44.9849 279.224 45.0126 278.875 44.7214L281.435 41.6485ZM280.595 42.1324C280.961 41.7667 281.545 41.7402 281.943 42.0713L279.382 45.1442C280.574 46.1375 282.327 46.058 283.424 44.9609L280.595 42.1324ZM282.071 41.9428C281.74 41.5455 281.767 40.9612 282.132 40.5955L284.961 43.4239C286.058 42.3268 286.138 40.574 285.144 39.382L282.071 41.9428ZM281.278 38.1007C280.779 39.1086 280.813 40.4334 281.648 41.4354L284.721 38.8746C285.013 39.2241 284.985 39.6288 284.863 39.8755L281.278 38.1007ZM284.252 35.1506C282.953 35.2687 281.993 36.1809 281.633 37.2453L285.422 38.5274C285.334 38.7873 285.068 39.093 284.614 39.1342L284.252 35.1506ZM284 36.0868C284 35.5696 284.394 35.1377 284.909 35.0909L285.272 39.0745C286.817 38.934 288 37.6384 288 36.0868H284ZM284.909 34.9091C284.394 34.8623 284 34.4304 284 33.9132H288C288 32.3616 286.817 31.066 285.272 30.9255L284.909 34.9091ZM281.633 32.7547C281.993 33.8191 282.953 34.7313 284.252 34.8494L284.614 30.8658C285.068 30.907 285.334 31.2127 285.422 31.4726L281.633 32.7547ZM281.648 28.5646C280.813 29.5666 280.779 30.8914 281.278 31.8993L284.863 30.1245C284.985 30.3712 285.013 30.7759 284.721 31.1254L281.648 28.5646ZM282.132 29.4045C281.767 29.0388 281.74 28.4545 282.071 28.0572L285.144 30.6179C286.138 29.426 286.058 27.6732 284.961 26.5761L282.132 29.4045ZM281.943 27.9287C281.545 28.2598 280.961 28.2333 280.595 27.8676L283.424 25.0391C282.327 23.942 280.574 23.8625 279.382 24.8558L281.943 27.9287ZM278.101 28.722C279.109 29.221 280.433 29.1865 281.435 28.3515L278.875 25.2786C279.224 24.9874 279.629 25.0151 279.876 25.1373L278.101 28.722ZM275.151 25.7476C275.269 27.0465 276.181 28.0071 277.245 28.3673L278.527 24.5783C278.787 24.6663 279.093 24.9324 279.134 25.3855L275.151 25.7476ZM273.913 22C272.362 22 271.066 23.1832 270.926 24.7284L274.909 25.0905C274.862 25.6056 274.43 26 273.913 26V22ZM276.087 26C275.57 26 275.138 25.6056 275.091 25.0905L279.074 24.7284C278.934 23.1832 277.638 22 276.087 22V26Z" fill="black" mask="url(#path-29-inside-1)"/>
<circle cx="275" cy="35" r="1" stroke="black" stroke-width="2"/>
<path d="M67 120.84V109.754C67 109.345 67.249 108.977 67.6286 108.826L71.6912 107.201C71.9108 107.113 72.1544 107.106 72.3788 107.18L77.0513 108.738C77.6671 108.943 78.3329 108.943 78.9487 108.738L81.6838 107.826C82.3313 107.61 83 108.092 83 108.775V119.892C83 120.279 82.7773 120.631 82.4281 120.796L78.4281 122.691L78.8562 123.594L78.4281 122.691C78.1571 122.819 77.8429 122.819 77.5719 122.691L73.2843 120.66C72.4714 120.275 71.5286 120.275 70.7157 120.66L68.4281 121.743C67.7646 122.058 67 121.574 67 120.84Z" stroke="black" stroke-width="2"/>
<path d="M72 107.5V120" stroke="black" stroke-width="2"/>
<path d="M78 109V122.5" stroke="black" stroke-width="2"/>
<path d="M108 107H122C122.552 107 123 107.448 123 108V108.096C123 108.384 122.876 108.657 122.661 108.847L117.444 113.436C117.245 113.611 117.124 113.858 117.107 114.123L116.641 121.33C116.616 121.719 116.368 122.058 116.004 122.198L115.14 122.533C114.53 122.769 113.86 122.365 113.786 121.714L112.911 114.092C112.882 113.846 112.764 113.619 112.578 113.455L107.339 108.847C107.124 108.657 107 108.384 107 108.096V108C107 107.448 107.448 107 108 107Z" stroke="black" stroke-width="2"/>
<path d="M33.2666 158.875H31.1604L32.4778 150.485H34.5839L33.2666 158.875Z" fill="#00579F"/>
<path d="M40.9018 150.69C40.4864 150.521 39.8274 150.333 39.0127 150.333C36.9328 150.333 35.4681 151.476 35.4591 153.109C35.4418 154.314 36.5078 154.983 37.305 155.385C38.1199 155.796 38.3969 156.063 38.3969 156.429C38.3886 156.991 37.7384 157.251 37.132 157.251C36.2911 157.251 35.8406 157.117 35.1558 156.804L34.8785 156.67L34.5838 158.554C35.0777 158.785 35.9879 158.991 36.9328 159C39.1427 159 40.5815 157.875 40.5985 156.135C40.607 155.18 40.0441 154.448 38.8306 153.85C38.0939 153.466 37.6428 153.207 37.6428 152.815C37.6514 152.458 38.0244 152.092 38.8559 152.092C39.5407 152.074 40.0437 152.243 40.4249 152.413L40.6154 152.502L40.9018 150.69Z" fill="#00579F"/>
<path d="M43.701 155.903C43.8744 155.421 44.5419 153.556 44.5419 153.556C44.5331 153.573 44.715 153.065 44.819 152.752L44.9662 153.475C44.9662 153.475 45.365 155.483 45.4516 155.903C45.1225 155.903 44.117 155.903 43.701 155.903ZM46.3008 150.485H44.6717C44.1693 150.485 43.7876 150.637 43.5708 151.182L40.4424 158.875H42.6523C42.6523 158.875 43.0162 157.839 43.0944 157.616C43.3368 157.616 45.4867 157.616 45.7985 157.616C45.859 157.911 46.0499 158.875 46.0499 158.875H48L46.3008 150.485Z" fill="#00579F"/>
<path d="M29.4011 150.485L27.3384 156.206L27.1131 155.046C26.7317 153.707 25.5357 152.253 24.2011 151.529L26.0904 158.866H28.3177L31.6282 150.485H29.4011Z" fill="#00579F"/>
<path d="M25.4232 150.482H22.0346L21.9999 150.652C24.6433 151.348 26.3939 153.026 27.1132 155.043L26.3765 151.187C26.2553 150.652 25.8826 150.5 25.4232 150.482Z" fill="#FAA61A"/>
<path d="M78.3406 149.467H71.6592V160.222H78.3406V149.467Z" fill="#FF5F00"/>
<path d="M72.3409 154.843C72.3401 153.807 72.5718 152.784 73.0183 151.852C73.4649 150.92 74.1147 150.103 74.9185 149.463C73.9229 148.669 72.7273 148.176 71.4683 148.039C70.2093 147.902 68.9377 148.127 67.7988 148.688C66.66 149.25 65.6998 150.125 65.028 151.213C64.3562 152.302 64 153.56 64 154.844C64 156.129 64.3562 157.387 65.028 158.476C65.6998 159.564 66.66 160.439 67.7988 161C68.9377 161.562 70.2093 161.787 71.4683 161.65C72.7273 161.513 73.9229 161.019 74.9185 160.226C74.1144 159.586 73.4645 158.769 73.0179 157.836C72.5713 156.904 72.3398 155.88 72.3409 154.843Z" fill="#EB001B"/>
<path d="M86 154.845C86 156.13 85.6384 157.388 84.9566 158.476C84.2747 159.565 83.3001 160.44 82.1442 161.001C80.9883 161.562 79.6977 161.787 78.42 161.65C77.1422 161.513 75.9289 161.019 74.9186 160.225C75.734 159.585 76.3932 158.768 76.8466 157.836C77.2999 156.904 77.5354 155.881 77.5354 154.844C77.5354 153.808 77.2999 152.785 76.8466 151.853C76.3932 150.921 75.734 150.104 74.9186 149.464C75.9289 148.67 77.1422 148.176 78.42 148.039C79.6977 147.902 80.9883 148.127 82.1442 148.688C83.3001 149.249 84.2747 150.124 84.9566 151.213C85.6384 152.301 86 153.559 86 154.843V154.845Z" fill="#F79E1B"/>
<path d="M120.065 156.353H121.509C121.55 156.353 121.646 156.339 121.687 156.339C121.962 156.284 122.196 156.036 122.196 155.693C122.196 155.363 121.962 155.115 121.687 155.047C121.646 155.033 121.564 155.033 121.509 155.033H120.065V156.353Z" fill="#40A737"/>
<path d="M121.344 147.239C119.969 147.239 118.842 148.353 118.842 149.741V152.339H122.375C122.457 152.339 122.553 152.339 122.622 152.353C123.419 152.394 124.01 152.806 124.01 153.521C124.01 154.085 123.612 154.566 122.869 154.662V154.689C123.68 154.744 124.299 155.198 124.299 155.899C124.299 156.655 123.612 157.15 122.704 157.15H118.828V162.236H122.498C123.873 162.236 125 161.122 125 159.734V147.239H121.344Z" fill="#40A737"/>
<path d="M122.017 153.686C122.017 153.356 121.784 153.136 121.509 153.095C121.481 153.095 121.412 153.081 121.371 153.081H120.065V154.291H121.371C121.412 154.291 121.495 154.291 121.509 154.277C121.784 154.236 122.017 154.016 122.017 153.686Z" fill="#40A737"/>
<path d="M107.515 147.239C106.141 147.239 105.014 148.353 105.014 149.741V155.913C105.715 156.256 106.443 156.476 107.172 156.476C108.038 156.476 108.505 155.954 108.505 155.239V152.325H110.649V155.225C110.649 156.353 109.948 157.274 107.57 157.274C106.127 157.274 105 156.957 105 156.957V162.222H108.67C110.045 162.222 111.172 161.109 111.172 159.72V147.239H107.515Z" fill="#0066B1"/>
<path d="M114.43 147.239C113.055 147.239 111.928 148.353 111.928 149.741V153.012C112.56 152.476 113.66 152.133 115.433 152.215C116.381 152.256 117.399 152.518 117.399 152.518V153.576C116.89 153.315 116.285 153.081 115.502 153.026C114.155 152.93 113.344 153.59 113.344 154.744C113.344 155.913 114.155 156.573 115.502 156.463C116.285 156.408 116.89 156.16 117.399 155.913V156.971C117.399 156.971 116.395 157.232 115.433 157.274C113.66 157.356 112.56 157.012 111.928 156.476V162.25H115.598C116.973 162.25 118.1 161.136 118.1 159.748V147.239H114.43Z" fill="#DC0436"/>
<path d="M145.171 147.312H164.611C165.378 147.312 166 147.934 166 148.701V161.893C166 162.659 165.378 163.281 164.611 163.281H145.171C144.404 163.281 143.782 162.659 143.782 161.893V148.701C143.782 147.934 144.405 147.312 145.171 147.312Z" fill="#26A6D1"/>
<path d="M147.365 152.866L145.171 157.721H147.798L148.123 156.947H148.867L149.193 157.721H152.084V157.131L152.342 157.721H153.837L154.095 157.118V157.721H160.107L160.839 156.967L161.523 157.721L164.611 157.728L162.41 155.307L164.611 152.866H161.571L160.859 153.606L160.196 152.866H153.655L153.094 154.119L152.519 152.866H149.898V153.437L149.606 152.866C149.606 152.866 147.365 152.866 147.365 152.866ZM147.873 153.556H149.154L150.609 156.848V153.556H152.011L153.135 155.916L154.171 153.556H155.567V157.04H154.718L154.711 154.309L153.473 157.04H152.713L151.468 154.309V157.04H149.721L149.39 156.258H147.601L147.271 157.039H146.335L147.873 153.556ZM156.344 153.556H159.796L160.852 154.696L161.943 153.556H162.999L161.394 155.307L162.999 157.037H161.895L160.839 155.883L159.743 157.037H156.344V153.556ZM148.496 154.145L147.907 155.536H149.085L148.496 154.145ZM157.196 154.277V154.913H159.08V155.622H157.196V156.316H159.309L160.291 155.293L159.351 154.276H157.196V154.277Z" fill="white"/>
<path d="M183.295 156.078C183.021 156.325 182.666 156.433 182.103 156.433H181.87V153.482H182.103C182.666 153.482 183.007 153.583 183.295 153.843C183.596 154.111 183.777 154.526 183.777 154.954C183.777 155.382 183.596 155.81 183.295 156.078ZM182.278 152.726H181V157.189H182.271C182.947 157.189 183.435 157.029 183.863 156.673C184.372 156.252 184.673 155.617 184.673 154.96C184.673 153.643 183.689 152.726 182.278 152.726Z" fill="#201D1C"/>
<path d="M185.074 157.189H185.944V152.726H185.074V157.189Z" fill="#201D1C"/>
<path d="M188.073 154.438C187.551 154.245 187.397 154.118 187.397 153.876C187.397 153.595 187.671 153.382 188.046 153.382C188.307 153.382 188.521 153.489 188.748 153.743L189.203 153.147C188.829 152.819 188.381 152.652 187.892 152.652C187.102 152.652 186.5 153.2 186.5 153.931C186.5 154.546 186.78 154.86 187.598 155.155C187.939 155.275 188.112 155.355 188.2 155.409C188.374 155.522 188.461 155.683 188.461 155.871C188.461 156.232 188.173 156.5 187.785 156.5C187.37 156.5 187.035 156.292 186.835 155.905L186.272 156.446C186.673 157.035 187.155 157.296 187.817 157.296C188.722 157.296 189.357 156.694 189.357 155.831C189.357 155.121 189.063 154.801 188.073 154.438Z" fill="#201D1C"/>
<path d="M189.631 154.96C189.631 156.272 190.661 157.289 191.987 157.289C192.361 157.289 192.682 157.216 193.078 157.029V156.004C192.73 156.353 192.422 156.493 192.027 156.493C191.151 156.493 190.528 155.858 190.528 154.954C190.528 154.097 191.17 153.421 191.987 153.421C192.402 153.421 192.716 153.569 193.078 153.923V152.899C192.696 152.705 192.382 152.625 192.007 152.625C190.689 152.625 189.631 153.663 189.631 154.96Z" fill="#201D1C"/>
<circle cx="195.737" cy="155.011" r="2.28536" fill="url(#paint0_linear)"/>
<path d="M199.98 155.723L198.79 152.726H197.839L199.733 157.303H200.201L202.129 152.726H201.186L199.98 155.723Z" fill="#201D1C"/>
<path d="M202.523 157.189H204.992V156.433H203.393V155.228H204.933V154.473H203.393V153.482H204.992V152.726H202.523V157.189Z" fill="#201D1C"/>
<path d="M206.692 154.78H206.438V153.429H206.706C207.248 153.429 207.542 153.656 207.542 154.09C207.542 154.539 207.248 154.78 206.692 154.78ZM208.438 154.043C208.438 153.208 207.863 152.726 206.859 152.726H205.568V157.189H206.438V155.396H206.551L207.756 157.189H208.826L207.422 155.308C208.077 155.175 208.438 154.727 208.438 154.043Z" fill="#201D1C"/>
<path d="M280.502 147.076C279.583 146.029 277.923 145.58 275.798 145.58H269.632C269.198 145.58 268.828 145.896 268.76 146.325L266.193 162.607C266.142 162.928 266.391 163.219 266.716 163.219H270.522L271.478 157.155L271.449 157.345C271.517 156.916 271.883 156.6 272.318 156.6H274.126C277.68 156.6 280.462 155.157 281.275 150.982C281.299 150.858 281.32 150.738 281.338 150.621C281.236 150.566 281.236 150.566 281.338 150.621C281.58 149.077 281.337 148.027 280.502 147.076Z" fill="#003087"/>
<path d="M281.338 150.621C281.32 150.739 281.299 150.858 281.275 150.982C280.463 155.156 277.68 156.6 274.127 156.6H272.317C271.883 156.6 271.516 156.916 271.449 157.345L270.523 163.218L270.26 164.885C270.215 165.166 270.433 165.42 270.717 165.42H273.926C274.306 165.42 274.629 165.144 274.688 164.769L274.719 164.605L275.324 160.772L275.363 160.561C275.422 160.186 275.746 159.909 276.125 159.909H276.606C279.714 159.909 282.148 158.646 282.859 154.994C283.156 153.468 283.002 152.193 282.217 151.298C281.979 151.027 281.683 150.803 281.338 150.621" fill="#009CDE"/>
<path d="M280.487 150.281C280.363 150.245 280.235 150.212 280.104 150.183C279.972 150.154 279.836 150.128 279.697 150.106C279.208 150.027 278.675 149.989 278.102 149.989H273.268C273.149 149.989 273.036 150.016 272.935 150.065C272.712 150.172 272.547 150.383 272.506 150.641L271.479 157.155L271.449 157.345C271.517 156.916 271.883 156.6 272.317 156.6H274.127C277.68 156.6 280.463 155.157 281.275 150.982C281.3 150.858 281.32 150.739 281.339 150.621C281.133 150.512 280.91 150.418 280.67 150.338C280.61 150.319 280.549 150.299 280.487 150.281Z" fill="#012069"/>
<path d="M236.888 146.183C241.652 146.16 246 150.068 246 154.822C246 160.021 241.652 163.614 236.888 163.612H232.789C227.968 163.614 224 160.02 224 154.822C224 150.067 227.968 146.16 232.789 146.183H236.888Z" fill="#0079BE"/>
<path d="M232.808 162.892C228.403 162.891 224.833 159.32 224.832 154.913C224.833 150.507 228.403 146.937 232.808 146.935C237.214 146.937 240.784 150.507 240.785 154.913C240.784 159.32 237.214 162.891 232.808 162.892ZM227.752 154.913C227.757 157.067 229.102 158.903 230.998 159.633V150.195C229.102 150.924 227.757 152.759 227.752 154.913ZM234.617 150.193V159.633C236.515 158.905 237.861 157.068 237.865 154.913C237.861 152.758 236.515 150.922 234.617 150.193Z" fill="white"/>
<path d="M238.571 72.0238C238.571 73.1196 238.232 74.5628 237.565 75.704C236.897 76.8468 236.027 77.5 235 77.5C233.973 77.5 233.103 76.8468 232.435 75.704C231.768 74.5628 231.429 73.1196 231.429 72.0238C231.429 70.0513 233.028 68.4524 235 68.4524C236.972 68.4524 238.571 70.0513 238.571 72.0238Z" stroke="black" stroke-width="2"/>
<path d="M241.857 83.1429C241.857 79.2857 239.299 79.6982 237.667 78.119M228.143 83.1429C228.143 79.7143 230.32 79.6982 231.952 78.119" stroke="black" stroke-width="2"/>
<circle cx="235" cy="75" r="11" stroke="black" stroke-width="2"/>
<circle cx="155" cy="235" r="10" stroke="black" stroke-width="2"/>
<path d="M152 232.5V232.25C152 230.731 153.231 229.5 154.75 229.5V229.5C156.269 229.5 157.5 230.731 157.5 232.25V232.328C157.5 233.079 157.202 233.798 156.672 234.328L155.586 235.414C155.211 235.789 155 236.298 155 236.828V237.5" stroke="black" stroke-width="2"/>
<circle cx="155" cy="240" r="1" fill="black"/>
<circle cx="155" cy="195" r="9" stroke="black" stroke-width="2"/>
<path d="M162.071 188C158.166 191.905 151.834 191.905 147.929 188" stroke="black" stroke-width="2"/>
<path d="M162.071 202.071C158.166 198.166 151.834 198.166 147.929 202.071" stroke="black" stroke-width="2"/>
<path d="M164 195H146" stroke="black" stroke-width="2"/>
<path d="M235 110.5L227 110.5" stroke="black" stroke-width="2" stroke-linecap="round"/>
<path d="M243 119.5L240 119.5" stroke="black" stroke-width="2" stroke-linecap="round"/>
<path d="M229 119.5L227 119.5" stroke="black" stroke-width="2" stroke-linecap="round"/>
<path d="M240.5 113C239.119 113 238 111.881 238 110.5C238 109.119 239.119 108 240.5 108C241.881 108 243 109.119 243 110.5C243 111.881 241.881 113 240.5 113Z" stroke="black" stroke-width="2"/>
<path d="M234.5 122C233.119 122 232 120.881 232 119.5C232 118.119 233.119 117 234.5 117C235.881 117 237 118.119 237 119.5C237 120.881 235.881 122 234.5 122Z" stroke="black" stroke-width="2"/>
<path d="M68 201L75 201" stroke="black" stroke-width="2" stroke-linecap="round"/>
<path d="M68 195L82 195" stroke="black" stroke-width="2" stroke-linecap="round"/>
<path d="M68 189L82 189" stroke="black" stroke-width="2" stroke-linecap="round"/>
<path d="M182 105H186.194L190.667 119H202.444L205 109.455H189.667" stroke="black" stroke-width="2" stroke-linejoin="round"/>
<circle cx="191" cy="124" r="2" fill="black"/>
<circle cx="201" cy="124" r="2" fill="black"/>
<mask id="path-85-inside-2" fill="white">
<path d="M267 71.964C267 67.5656 270.617 64 275.016 64C279.397 64 283 67.5516 283 71.9327C283 73.4718 282.552 74.9777 281.711 76.2668L276.61 84.0869C275.816 85.3034 274.032 85.295 273.25 84.0711L268.253 76.2524C267.435 74.9718 267 73.4838 267 71.964Z"/>
</mask>
<path d="M281.711 76.2668L283.386 77.3595L281.711 76.2668ZM268.253 76.2524L266.568 77.3294L268.253 76.2524ZM273.25 84.0711L274.935 82.9941L273.25 84.0711ZM276.61 84.0869L274.935 82.9941L276.61 84.0869ZM274.935 82.9941L269.938 75.1755L266.568 77.3294L271.564 85.1481L274.935 82.9941ZM280.036 75.1741L274.935 82.9941L278.285 85.1796L283.386 77.3595L280.036 75.1741ZM281 71.9327C281 73.0838 280.665 74.21 280.036 75.1741L283.386 77.3595C284.439 75.7454 285 73.8599 285 71.9327H281ZM269.938 75.1755C269.326 74.2165 269 73.1021 269 71.964H265C265 73.8654 265.544 75.7272 266.568 77.3294L269.938 75.1755ZM271.564 85.1481C273.129 87.5958 276.698 87.6126 278.285 85.1796L274.935 82.9941L274.935 82.9941L271.564 85.1481ZM275.016 66C278.309 66 281 68.673 281 71.9327H285C285 66.4302 280.485 62 275.016 62V66ZM275.016 62C269.53 62 265 66.4442 265 71.964H269C269 68.687 271.705 66 275.016 66V62Z" fill="black" mask="url(#path-85-inside-2)"/>
<circle cx="275" cy="72" r="2" fill="black"/>
<path fill-rule="evenodd" clip-rule="evenodd" d="M114.391 185C110.716 185 107.738 187.979 107.738 191.653C107.738 193.378 108.414 195.03 109.457 196.405C110.699 198.043 112.373 200.567 113.637 203.649C114.037 204.626 115.862 204.64 116.274 203.668C117.585 200.575 119.285 198.043 120.539 196.401C121.586 195.03 122.262 193.378 122.262 191.653C122.262 187.979 119.284 185 115.609 185H114.391ZM115 194.078C116.003 194.078 116.816 193.265 116.816 192.262C116.816 191.26 116.003 190.447 115 190.447C113.997 190.447 113.184 191.26 113.184 192.262C113.184 193.265 113.997 194.078 115 194.078Z" fill="#3CA5F1"/>
<path d="M269.5 108V120" stroke="black" stroke-width="3"/>
<path d="M266 108V122" stroke="black" stroke-width="2"/>
<path d="M277.5 108V120" stroke="black" stroke-width="3"/>
<path d="M274 108V120" stroke="black" stroke-width="2"/>
<path d="M281 108V120" stroke="black" stroke-width="2"/>
<path d="M284 108V122" stroke="black" stroke-width="2"/>
<path d="M306.707 37.3453C306.779 36.9412 306.972 36.5688 307.263 36.2786L318.356 25.1848C319.137 24.4038 320.404 24.4038 321.185 25.1849L322.086 26.0858C322.867 26.8668 322.867 28.1332 322.086 28.9142L310.992 40.008C310.702 40.2982 310.329 40.4921 309.925 40.5634L307.425 41.0047C306.741 41.1253 306.145 40.5298 306.266 39.8461L306.707 37.3453Z" stroke="black" stroke-width="2"/>
<path d="M323.5 45H305.5" stroke="black" stroke-width="2"/>
<path d="M318 26L322 30" stroke="black" stroke-width="2"/>
<path d="M34.6391 199.562L29.1511 192.898C28.8284 192.506 29.2272 191.938 29.7052 192.109L34.7592 193.914C34.9104 193.968 35.0784 193.946 35.2107 193.855L47.1533 185.645C47.6469 185.305 48.2112 185.963 47.8006 186.399L35.3891 199.587C35.1827 199.806 34.8306 199.794 34.6391 199.562Z" fill="#3CA5F1"/>
<path d="M34.7801 183V185.945" stroke="black" stroke-width="1.5" stroke-linecap="round"/>
<path d="M34.7801 203.615V206.56" stroke="black" stroke-width="1.5" stroke-linecap="round"/>
<path d="M23 194.78L25.945 194.78" stroke="black" stroke-width="1.5" stroke-linecap="round"/>
<path d="M43.6152 194.78L46.5602 194.78" stroke="black" stroke-width="1.5" stroke-linecap="round"/>
<path d="M24.5782 188.89L27.1287 190.363" stroke="black" stroke-width="1.5" stroke-linecap="round"/>
<path d="M42.4315 199.198L44.982 200.67" stroke="black" stroke-width="1.5" stroke-linecap="round"/>
<path d="M24.5782 200.67L27.1287 199.198" stroke="black" stroke-width="1.5" stroke-linecap="round"/>
<path d="M28.8901 184.578L30.3626 187.129" stroke="black" stroke-width="1.5" stroke-linecap="round"/>
<path d="M39.1976 202.432L40.6702 204.982" stroke="black" stroke-width="1.5" stroke-linecap="round"/>
<path d="M40.6702 184.578L39.1977 187.129" stroke="black" stroke-width="1.5" stroke-linecap="round"/>
<path d="M30.3626 202.432L28.8901 204.982" stroke="black" stroke-width="1.5" stroke-linecap="round"/>
<path d="M314 76.5C314.828 76.5 315.5 75.8284 315.5 75C315.5 74.1716 314.828 73.5 314 73.5C313.172 73.5 312.5 74.1716 312.5 75C312.5 75.8284 313.172 76.5 314 76.5Z" fill="black"/>
<path d="M314 72C314.828 72 315.5 71.3284 315.5 70.5C315.5 69.6716 314.828 69 314 69C313.172 69 312.5 69.6716 312.5 70.5C312.5 71.3284 313.172 72 314 72Z" fill="black"/>
<path d="M314 81C314.828 81 315.5 80.3284 315.5 79.5C315.5 78.6716 314.828 78 314 78C313.172 78 312.5 78.6716 312.5 79.5C312.5 80.3284 313.172 81 314 81Z" fill="black"/>
<path d="M319 76.5C319.828 76.5 320.5 75.8284 320.5 75C320.5 74.1716 319.828 73.5 319 73.5C318.172 73.5 317.5 74.1716 317.5 75C317.5 75.8284 318.172 76.5 319 76.5Z" fill="black"/>
<path d="M319 72C319.828 72 320.5 71.3284 320.5 70.5C320.5 69.6716 319.828 69 319 69C318.172 69 317.5 69.6716 317.5 70.5C317.5 71.3284 318.172 72 319 72Z" fill="black"/>
<path d="M309 76.5C309.828 76.5 310.5 75.8284 310.5 75C310.5 74.1716 309.828 73.5 309 73.5C308.172 73.5 307.5 74.1716 307.5 75C307.5 75.8284 308.172 76.5 309 76.5Z" fill="black"/>
<path d="M309 81C309.828 81 310.5 80.3284 310.5 79.5C310.5 78.6716 309.828 78 309 78C308.172 78 307.5 78.6716 307.5 79.5C307.5 80.3284 308.172 81 309 81Z" fill="black"/>
<rect x="303" y="65" width="22" height="20" rx="2" stroke="black" stroke-width="2"/>
<path d="M307.5 113.121C307.126 112.74 306.519 112.74 306.145 113.121C305.77 113.501 305.77 114.119 306.145 114.5C306.519 114.88 307.126 114.88 307.5 114.5C307.874 114.12 307.874 113.501 307.5 113.121Z" fill="black" stroke="black" stroke-width="0.5"/>
<path d="M310 115.5C309.626 115.12 309.019 115.12 308.645 115.5C308.27 115.881 308.27 116.498 308.645 116.879C309.019 117.259 309.626 117.259 310 116.879C310.374 116.498 310.374 115.881 310 115.5Z" fill="black" stroke="black" stroke-width="0.5"/>
<path d="M312.5 118C312.126 117.62 311.519 117.62 311.145 118C310.771 118.381 310.771 118.999 311.145 119.379C311.519 119.76 312.126 119.76 312.5 119.379C312.874 118.999 312.874 118.381 312.5 118Z" fill="black" stroke="black" stroke-width="0.5"/>
<path d="M314.855 120.5C314.481 120.119 313.874 120.119 313.5 120.5C313.126 120.88 313.126 121.498 313.5 121.879C313.874 122.259 314.481 122.259 314.855 121.879C315.23 121.499 315.23 120.881 314.855 120.5Z" fill="black" stroke="black" stroke-width="0.5"/>
<path d="M302.839 116.503L303.546 117.21H303.546L302.839 116.503ZM302.839 119.331L302.132 120.038L302.132 120.038L302.839 119.331ZM314.503 104.839L313.796 104.132V104.132L314.503 104.839ZM317.331 104.839L316.624 105.546L316.624 105.546L317.331 104.839ZM318.714 106.222L319.552 106.767L319.994 106.088L319.421 105.515L318.714 106.222ZM321.796 109.304L322.503 108.597L321.93 108.024L321.251 108.465L321.796 109.304ZM323.324 110.832L322.617 111.539L322.617 111.539L323.324 110.832ZM323.324 113.66L324.031 114.367L324.031 114.367L323.324 113.66ZM311.66 125.324L312.367 126.031H312.367L311.66 125.324ZM308.832 125.324L308.125 126.031H308.125L308.832 125.324ZM307.304 123.796L306.465 123.251L306.024 123.93L306.597 124.503L307.304 123.796ZM304.222 120.714L303.515 121.421L304.088 121.994L304.767 121.552L304.222 120.714ZM302.132 115.796C300.96 116.967 300.96 118.867 302.132 120.038L303.546 118.624C303.156 118.233 303.156 117.6 303.546 117.21L302.132 115.796ZM313.796 104.132L302.132 115.796L303.546 117.21L315.21 105.546L313.796 104.132ZM318.038 104.132C316.867 102.96 314.967 102.96 313.796 104.132L315.21 105.546C315.6 105.156 316.233 105.156 316.624 105.546L318.038 104.132ZM319.421 105.515L318.038 104.132L316.624 105.546L318.007 106.929L319.421 105.515ZM319.355 107.435C319.355 107.187 319.428 106.959 319.552 106.767L317.876 105.677C317.547 106.183 317.355 106.788 317.355 107.435H319.355ZM320.583 108.662C319.905 108.662 319.355 108.113 319.355 107.435H317.355C317.355 109.217 318.8 110.662 320.583 110.662V108.662ZM321.251 108.465C321.059 108.59 320.831 108.662 320.583 108.662V110.662C321.23 110.662 321.835 110.471 322.341 110.142L321.251 108.465ZM324.031 110.125L322.503 108.597L321.089 110.011L322.617 111.539L324.031 110.125ZM324.031 114.367C325.203 113.196 325.203 111.296 324.031 110.125L322.617 111.539C323.007 111.929 323.007 112.563 322.617 112.953L324.031 114.367ZM312.367 126.031L324.031 114.367L322.617 112.953L310.953 124.617L312.367 126.031ZM308.125 126.031C309.296 127.203 311.196 127.203 312.367 126.031L310.953 124.617C310.563 125.007 309.929 125.007 309.539 124.617L308.125 126.031ZM306.597 124.503L308.125 126.031L309.539 124.617L308.011 123.089L306.597 124.503ZM306.662 122.583C306.662 122.831 306.59 123.059 306.465 123.251L308.142 124.341C308.471 123.835 308.662 123.23 308.662 122.583H306.662ZM305.435 121.355C306.113 121.355 306.662 121.905 306.662 122.583H308.662C308.662 120.8 307.217 119.355 305.435 119.355V121.355ZM304.767 121.552C304.959 121.428 305.187 121.355 305.435 121.355V119.355C304.788 119.355 304.183 119.547 303.677 119.876L304.767 121.552ZM302.132 120.038L303.515 121.421L304.929 120.007L303.546 118.624L302.132 120.038Z" fill="black"/>
<path d="M311.049 147.927C311.348 147.006 312.652 147.006 312.951 147.927L314.021 151.219C314.155 151.631 314.538 151.91 314.972 151.91H318.433C319.402 151.91 319.804 153.149 319.021 153.719L316.22 155.753C315.87 156.008 315.723 156.459 315.857 156.871L316.927 160.163C317.226 161.084 316.172 161.851 315.388 161.281L312.588 159.247C312.237 158.992 311.763 158.992 311.412 159.247L308.612 161.281C307.828 161.851 306.774 161.084 307.073 160.163L308.143 156.871C308.277 156.459 308.13 156.008 307.78 155.753L304.979 153.719C304.196 153.149 304.598 151.91 305.567 151.91H309.028C309.462 151.91 309.845 151.631 309.979 151.219L311.049 147.927Z" fill="#48A0F1"/>
<path d="M311.049 177.927C311.348 177.006 312.652 177.006 312.951 177.927L314.021 181.219C314.155 181.631 314.538 181.91 314.972 181.91H318.433C319.402 181.91 319.804 183.149 319.021 183.719L316.22 185.753C315.87 186.008 315.723 186.459 315.857 186.871L316.927 190.163C317.226 191.084 316.172 191.851 315.388 191.281L312.588 189.247C312.237 188.992 311.763 188.992 311.412 189.247L308.612 191.281C307.828 191.851 306.774 191.084 307.073 190.163L308.143 186.871C308.277 186.459 308.13 186.008 307.78 185.753L304.979 183.719C304.196 183.149 304.598 181.91 305.567 181.91H309.028C309.462 181.91 309.845 181.631 309.979 181.219L311.049 177.927Z" fill="#48A0F1"/>
<mask id="mask0" mask-type="alpha" maskUnits="userSpaceOnUse" x="312" y="176" width="8" height="16">
<rect width="8" height="16" transform="matrix(-1 0 0 1 320 176)" fill="#C4C4C4"/>
</mask>
<g mask="url(#mask0)">
<path d="M311.049 177.927C311.348 177.006 312.652 177.006 312.951 177.927L314.021 181.219C314.155 181.631 314.538 181.91 314.972 181.91H318.433C319.402 181.91 319.804 183.149 319.021 183.719L316.22 185.753C315.87 186.008 315.723 186.459 315.857 186.871L316.927 190.163C317.226 191.084 316.172 191.851 315.388 191.281L312.588 189.247C312.237 188.992 311.763 188.992 311.412 189.247L308.612 191.281C307.828 191.851 306.774 191.084 307.073 190.163L308.143 186.871C308.277 186.459 308.13 186.008 307.78 185.753L304.979 183.719C304.196 183.149 304.598 181.91 305.567 181.91H309.028C309.462 181.91 309.845 181.631 309.979 181.219L311.049 177.927Z" fill="#D9DBDD"/>
</g>
<path d="M311.049 207.927C311.348 207.006 312.652 207.006 312.951 207.927L314.021 211.219C314.155 211.631 314.538 211.91 314.972 211.91H318.433C319.402 211.91 319.804 213.149 319.021 213.719L316.22 215.753C315.87 216.008 315.723 216.459 315.857 216.871L316.927 220.163C317.226 221.084 316.172 221.851 315.388 221.281L312.588 219.247C312.237 218.992 311.763 218.992 311.412 219.247L308.612 221.281C307.828 221.851 306.774 221.084 307.073 220.163L308.143 216.871C308.277 216.459 308.13 216.008 307.78 215.753L304.979 213.719C304.196 213.149 304.598 211.91 305.567 211.91H309.028C309.462 211.91 309.845 211.631 309.979 211.219L311.049 207.927Z" fill="#D9DBDD"/>
<path d="M269 189C269 188.448 268.552 188 268 188C267.448 188 267 188.448 267 189H269ZM283 189C283 188.448 282.552 188 282 188C281.448 188 281 188.448 281 189H283ZM267 189V202H269V189H267ZM270 205H280V203H270V205ZM283 202V189H281V202H283ZM280 205C281.657 205 283 203.657 283 202H281C281 202.552 280.552 203 280 203V205ZM267 202C267 203.657 268.343 205 270 205V203C269.448 203 269 202.552 269 202H267Z" fill="black"/>
<path d="M266.5 187C265.948 187 265.5 187.448 265.5 188C265.5 188.552 265.948 189 266.5 189V187ZM283.5 189C284.052 189 284.5 188.552 284.5 188C284.5 187.448 284.052 187 283.5 187V189ZM266.5 189H283.5V187H266.5V189Z" fill="black"/>
<path d="M278.5 193C278.5 192.448 278.052 192 277.5 192C276.948 192 276.5 192.448 276.5 193H278.5ZM276.5 199C276.5 199.552 276.948 200 277.5 200C278.052 200 278.5 199.552 278.5 199H276.5ZM276.5 193V199H278.5V193H276.5Z" fill="black"/>
<path d="M273.5 193C273.5 192.448 273.052 192 272.5 192C271.948 192 271.5 192.448 271.5 193H273.5ZM271.5 199C271.5 199.552 271.948 200 272.5 200C273.052 200 273.5 199.552 273.5 199H271.5ZM271.5 193V199H273.5V193H271.5Z" fill="black"/>
<path d="M269.944 187.222C269.944 187.775 270.392 188.222 270.944 188.222C271.497 188.222 271.944 187.775 271.944 187.222H269.944ZM277.722 187.222C277.722 187.775 278.17 188.222 278.722 188.222C279.274 188.222 279.722 187.775 279.722 187.222H277.722ZM271.944 187.222V186H269.944V187.222H271.944ZM271.944 186H277.722V184H271.944V186ZM277.722 186V187.222H279.722V186H277.722ZM277.722 186L277.722 186H279.722C279.722 184.895 278.827 184 277.722 184V186ZM271.944 186V186V184C270.84 184 269.944 184.895 269.944 186H271.944Z" fill="black"/>
<path d="M36.1399 246V235.965H39.383L39.8686 232.054H36.1399V229.557C36.1399 228.424 36.4426 227.653 38.0061 227.653L40 227.652V224.154C39.655 224.106 38.4715 224 37.0945 224C34.2197 224 32.2515 225.822 32.2515 229.17V232.054H29V235.965H32.2514V246L36.1399 246Z" fill="black"/>
<rect x="65" y="225" width="20" height="20" rx="6" stroke="black" stroke-width="2"/>
<path d="M82 229.5C82 230.328 81.3284 231 80.5 231C79.6716 231 79 230.328 79 229.5C79 228.672 79.6716 228 80.5 228C81.3284 228 82 228.672 82 229.5Z" fill="black"/>
<circle cx="75" cy="235" r="4" stroke="black" stroke-width="2"/>
<path d="M125 236.131V243.156H120.928V236.602C120.928 234.955 120.339 233.832 118.865 233.832C117.739 233.832 117.07 234.589 116.775 235.321C116.668 235.583 116.64 235.948 116.64 236.314V243.156H112.566C112.566 243.156 112.621 232.055 112.566 230.905H116.64V232.642C116.631 232.655 116.621 232.669 116.613 232.681H116.64V232.642C117.181 231.808 118.147 230.617 120.311 230.617C122.991 230.617 125 232.368 125 236.131ZM108.305 225C106.912 225 106 225.914 106 227.116C106 228.292 106.885 229.234 108.251 229.234H108.278C109.699 229.234 110.582 228.292 110.582 227.116C110.556 225.914 109.699 225 108.305 225ZM106.242 243.156H110.314V230.905H106.242V243.156Z" fill="black"/>
<path d="M281.98 242.73L277.5 238.25" stroke="black" stroke-width="2" stroke-linecap="round"/>
<circle cx="273" cy="233" r="6" stroke="black" stroke-width="2"/>
<path d="M233.192 224.574L236.164 226.937L239.757 225.709L240.772 229.367L244.401 230.485L243.072 234.042L245.35 237.079L242.184 239.175L242.242 242.972L238.449 242.807L236.265 245.912L233.293 243.549L229.7 244.778L228.685 241.119L225.056 240.001L226.385 236.445L224.107 233.407L227.273 231.311L227.215 227.515L231.008 227.68L233.192 224.574Z" stroke="black" stroke-width="2" stroke-linejoin="round"/>
<path d="M233.5 232C233.5 232.828 232.828 233.5 232 233.5C231.172 233.5 230.5 232.828 230.5 232C230.5 231.172 231.172 230.5 232 230.5C232.828 230.5 233.5 231.172 233.5 232Z" fill="black"/>
<path d="M239.5 238C239.5 238.828 238.828 239.5 238 239.5C237.172 239.5 236.5 238.828 236.5 238C236.5 237.172 237.172 236.5 238 236.5C238.828 236.5 239.5 237.172 239.5 238Z" fill="black"/>
<path d="M237.5 232.5L232 238" stroke="black" stroke-width="2" stroke-linecap="round"/>
<g clip-path="url(#clip0)">
<path d="M201 233C201 231.409 200.368 229.883 199.243 228.757C198.117 227.632 196.591 227 195 227C193.409 227 191.883 227.632 190.757 228.757C189.632 229.883 189 231.409 189 233C189 240 186 242 186 242H204C204 242 201 240 201 233Z" stroke="#0A1F44" stroke-width="2" stroke-linecap="round" stroke-linejoin="round"/>
<path d="M196.73 243C196.554 243.303 196.302 243.555 195.998 243.73C195.695 243.904 195.35 243.996 195 243.996C194.65 243.996 194.305 243.904 194.002 243.73C193.698 243.555 193.446 243.303 193.27 243" stroke="#0A1F44" stroke-width="2" stroke-linecap="round" stroke-linejoin="round"/>
<circle cx="201" cy="229" r="5" fill="#3CA5F1" stroke="white" stroke-width="2"/>
</g>
<defs>
<linearGradient id="paint0_linear" x1="194.448" y1="153.331" x2="197.125" y2="157.084" gradientUnits="userSpaceOnUse">
<stop stop-color="#DE4526"/>
<stop offset="0.588542" stop-color="#E97725"/>
<stop offset="1" stop-color="#F4D229"/>
</linearGradient>
<clipPath id="clip0">
<rect width="24" height="24" fill="white" transform="translate(183 223)"/>
</clipPath>
</defs>
</svg>
