<svg width="380" height="339" fill="none" xmlns="http://www.w3.org/2000/svg"><mask id="a" maskUnits="userSpaceOnUse" x="0" y="0" width="380" height="339"><rect width="380" height="339" rx="12" fill="#F6F6F7"/></mask><g mask="url(#a)" fill="#3CBBF1" fill-opacity=".15"><path d="M102.549 310.277l-78.921-93.443c-11.326-13.409 3.337-32.885 19.355-25.709l62.711 28.094a16.502 16.502 0 0016.486-1.738L280.665 101.63c16.23-11.864 35.549 10.099 21.71 24.683L127.128 310.988c-6.769 7.133-18.234 6.801-24.579-.711z"/><path fill-rule="evenodd" clip-rule="evenodd" d="M110.731 26.567c6.077 0 11.003 4.926 11.003 11.002v49.683c0 6.076-4.926 11.002-11.003 11.002-6.076 0-11.002-4.926-11.002-11.002V37.57c0-6.077 4.926-11.003 11.002-11.003zm104.866 28.099c5.263 3.038 7.066 9.767 4.027 15.029l-24.841 43.026c-3.038 5.262-9.767 7.065-15.029 4.027-5.262-3.038-7.065-9.767-4.027-15.029l24.841-43.026c3.038-5.262 9.767-7.065 15.029-4.027zm33.179 181.631c0-6.076 4.925-11.002 11.002-11.002h49.682c6.076 0 11.002 4.926 11.002 11.002 0 6.077-4.926 11.002-11.002 11.002h-49.682c-6.077 0-11.002-4.925-11.002-11.002zm-18.482 69.031a10.743 10.743 0 0114.832-4.134l43.026 24.841c5.256 3.034 7.135 9.804 4.199 15.122a10.743 10.743 0 01-14.832 4.134l-43.026-24.841c-5.256-3.034-7.135-9.804-4.199-15.122zM5.873 54.68c5.307-2.93 12.069-1.045 15.103 4.21l24.841 43.026a10.732 10.732 0 01-4.115 14.822c-5.307 2.931-12.068 1.046-15.102-4.209L1.758 69.503A10.733 10.733 0 015.873 54.68z"/><path fill-rule="evenodd" clip-rule="evenodd" d="M215.589 54.68a10.733 10.733 0 014.115 14.821l-24.841 43.026c-3.034 5.256-9.796 7.141-15.103 4.21a10.734 10.734 0 01-4.115-14.822l24.842-43.026c3.034-5.255 9.796-7.14 15.102-4.21z"/></g></svg>