<svg width="380" height="339" viewBox="0 0 380 339" fill="none" xmlns="http://www.w3.org/2000/svg">
<mask id="mask0" mask-type="alpha" maskUnits="userSpaceOnUse" x="0" y="0" width="380" height="339">
<rect width="380" height="339" rx="12" fill="#F6F6F7"/>
</mask>
<g mask="url(#mask0)">
<path d="M102.549 310.277L23.628 216.834C12.3022 203.425 26.9647 183.949 42.9832 191.125L105.694 219.219C111.102 221.642 117.395 220.979 122.18 217.481L280.665 101.63C296.895 89.7655 316.214 111.729 302.375 126.313L127.128 310.988C120.359 318.121 108.894 317.789 102.549 310.277Z" fill="#3CBBF1" fill-opacity="0.15"/>
<path fill-rule="evenodd" clip-rule="evenodd" d="M110.731 26.5674C116.808 26.5674 121.734 31.4932 121.734 37.5695V87.2517C121.734 93.328 116.808 98.2538 110.731 98.2538C104.655 98.2538 99.7294 93.328 99.7294 87.2517V37.5695C99.7294 31.4932 104.655 26.5674 110.731 26.5674Z" fill="#3CBBF1" fill-opacity="0.15"/>
<path fill-rule="evenodd" clip-rule="evenodd" d="M215.597 54.6659C220.86 57.704 222.663 64.4328 219.624 69.695L194.783 112.721C191.745 117.983 185.016 119.786 179.754 116.748C174.492 113.71 172.689 106.981 175.727 101.719L200.568 58.6929C203.606 53.4307 210.335 51.6278 215.597 54.6659Z" fill="#3CBBF1" fill-opacity="0.15"/>
<path fill-rule="evenodd" clip-rule="evenodd" d="M248.776 236.297C248.776 230.221 253.701 225.295 259.778 225.295L309.46 225.295C315.536 225.295 320.462 230.221 320.462 236.297C320.462 242.374 315.536 247.299 309.46 247.299L259.778 247.299C253.701 247.299 248.776 242.374 248.776 236.297Z" fill="#3CBBF1" fill-opacity="0.15"/>
<path fill-rule="evenodd" clip-rule="evenodd" d="M230.294 305.328C233.231 300.011 239.871 298.16 245.126 301.194L288.152 326.035C293.408 329.069 295.287 335.839 292.351 341.157C289.414 346.474 282.774 348.325 277.519 345.291L234.493 320.45C229.237 317.416 227.358 310.646 230.294 305.328Z" fill="#3CBBF1" fill-opacity="0.15"/>
<path fill-rule="evenodd" clip-rule="evenodd" d="M5.8734 54.6808C11.1802 51.7503 17.942 53.6349 20.9762 58.8903L45.8172 101.916C48.8514 107.172 47.0091 113.808 41.7023 116.738C36.3954 119.669 29.6337 117.784 26.5995 112.529L1.75842 69.5028C-1.27577 64.2474 0.566564 57.6114 5.8734 54.6808Z" fill="#3CBBF1" fill-opacity="0.15"/>
<path fill-rule="evenodd" clip-rule="evenodd" d="M215.589 54.6795C220.896 57.6101 222.738 64.2461 219.704 69.5015L194.863 112.527C191.829 117.783 185.067 119.668 179.76 116.737C174.454 113.806 172.611 107.17 175.645 101.915L200.487 58.889C203.521 53.6336 210.283 51.749 215.589 54.6795Z" fill="#3CBBF1" fill-opacity="0.15"/>
</g>
</svg>
