<svg width="40" height="40" fill="none" xmlns="http://www.w3.org/2000/svg"><path fill-rule="evenodd" clip-rule="evenodd" d="M33.333 11.86c-.933.428-1.935.718-2.985.847a5.358 5.358 0 002.282-2.982 10.195 10.195 0 01-3.3 1.309 5.11 5.11 0 00-3.794-1.7c-2.868 0-5.196 2.413-5.196 5.387 0 .423.045.834.136 1.226-4.32-.223-8.149-2.37-10.711-5.63a5.522 5.522 0 00-.703 2.707c0 1.87.918 3.519 2.313 4.482a5.046 5.046 0 01-2.355-.674v.067c0 2.61 1.792 4.788 4.17 5.281a5.031 5.031 0 01-2.347.09c.66 2.14 2.58 3.7 4.852 3.742A10.193 10.193 0 018 28.245a14.333 14.333 0 007.967 2.422c9.558 0 14.785-8.208 14.785-15.327 0-.235-.004-.466-.015-.698a10.732 10.732 0 002.593-2.79l.003.009z" fill="#fff"/></svg>