<svg width="24" height="24" fill="none" xmlns="http://www.w3.org/2000/svg"><path d="M17.868 4H6.132A2.145 2.145 0 004 6.153v11.694C4 19.034 4.956 20 6.132 20h11.736A2.145 2.145 0 0020 17.847V6.153A2.145 2.145 0 0017.868 4z" stroke="#A1B3C5" stroke-width="3"/><path d="M10 12a1 1 0 11-2 0 1 1 0 012 0z" fill="#A1B3C5"/><circle cx="12" cy="12" r="1" fill="#A1B3C5"/><circle cx="15" cy="12" r="1" fill="#A1B3C5"/><circle cx="9" cy="9" r="1" fill="#A1B3C5"/><circle cx="12" cy="9" r="1" fill="#A1B3C5"/><circle cx="15" cy="9" r="1" fill="#A1B3C5"/><circle cx="9" cy="15" r="1" fill="#A1B3C5"/><circle cx="12" cy="15" r="1" fill="#A1B3C5"/></svg>