<svg width="162" height="144" fill="none" xmlns="http://www.w3.org/2000/svg"><path d="M17.868 4H6.132A2.145 2.145 0 004 6.153v11.694C4 19.034 4.956 20 6.132 20h11.736A2.145 2.145 0 0020 17.847V6.153A2.145 2.145 0 0017.868 4z" stroke="#A1B3C5" stroke-width="3"/><path d="M10 12a1 1 0 11-2 0 1 1 0 012 0z" fill="#A1B3C5"/><circle cx="12" cy="12" r="1" fill="#A1B3C5"/><circle cx="15" cy="12" r="1" fill="#A1B3C5"/><circle cx="9" cy="9" r="1" fill="#A1B3C5"/><circle cx="12" cy="9" r="1" fill="#A1B3C5"/><circle cx="15" cy="9" r="1" fill="#A1B3C5"/><circle cx="9" cy="15" r="1" fill="#A1B3C5"/><circle cx="12" cy="15" r="1" fill="#A1B3C5"/><path d="M28.5 43.5h15" stroke="#A1B3C5" stroke-width="3" stroke-linecap="round" stroke-linejoin="round"/><path d="M28.5 38.5v-2m5 2V32m5 6.5v-5m5 5v-9" stroke="#A1B3C5" stroke-width="3" stroke-linecap="round"/><circle cx="108" cy="12" r="8" stroke="#A1B3C5" stroke-width="3"/><path d="M108 7.5V12h3" stroke="#A1B3C5" stroke-width="2" stroke-linecap="round" stroke-linejoin="round"/><path d="M38.148 20.063c.263-.969.131-1.936-.29-2.671-.332-.583-.845-1.02-1.486-1.197l.913-3.356c2.262-.75 7.335-2.434 8.174-2.662 1.083-.296 1.197-1.821 1.197-1.821l-8.804 2.399L40.25 1.95s-1.525.114-1.82 1.198c-.228.839-1.91 5.914-2.662 8.174l-3.354.915c-.178-.642-.616-1.156-1.197-1.487-.737-.422-1.702-.554-2.672-.29-1.744.474-2.83 2.047-2.433 3.511.175.65.616 1.167 1.201 1.502.735.42 1.703.552 2.67.29.427-.116.813-.3 1.148-.529.003-.002.005-.004.01-.004l.083-.063c2.019-1.496 3.412-1.899 4.198-1.984-.084.787-.487 2.18-1.982 4.2-.024.028-.043.055-.064.082l-.004.01c-.23.335-.413.722-.53 1.146-.263.968-.131 1.935.29 2.672.337.586.853 1.026 1.504 1.202 1.466.396 3.037-.692 3.51-2.433zm-8.549-5.726c-.55.15-1.13.096-1.55-.145-.188-.106-.427-.299-.512-.61-.18-.663.46-1.442 1.396-1.697.556-.15 1.123-.098 1.55.145.185.106.427.299.512.61.18.663-.458 1.44-1.396 1.697zm5.425 6.733c-.312-.084-.502-.323-.61-.512-.24-.42-.294-1-.144-1.55.256-.938 1.034-1.577 1.697-1.397.312.087.504.327.61.512.245.427.297.994.146 1.55-.256.937-1.034 1.579-1.699 1.397z" fill="#A1B3C5" stroke="#A1B3C5"/><path fill-rule="evenodd" clip-rule="evenodd" d="M67 10c0 1.777-.662 3.4-1.754 4.635l-4.453 5.79a1 1 0 01-1.586 0l-4.453-5.79A7 7 0 1167 10zm-7-1.91a1.91 1.91 0 100 3.82 1.91 1.91 0 000-3.82z" fill="#A1B3C5"/><path d="M86.5 15l5 5" stroke="#A1B3C5" stroke-width="3" stroke-linecap="round"/><circle cx="82" cy="10" r="6" stroke="#A1B3C5" stroke-width="3"/><path d="M126 6l12 12m0-12l-12 12m-9.515 42h-16.97m16.97-6h-16.97m16.97 12h-16.97" stroke="#A1B3C5" stroke-width="3" stroke-linecap="round"/><path d="M89 56.286l-6.429 6.428L79 59.143" stroke="#A1B3C5" stroke-width="3" stroke-linecap="round" stroke-linejoin="round"/><path fill-rule="evenodd" clip-rule="evenodd" d="M15.727 38.488a5.107 5.107 0 10-7.654 0l3.035 3.944a1 1 0 001.585 0l3.034-3.944z" fill="#C60D37"/><path d="M63.889 32.51c0 2.49-1.672 4.51-3.735 4.51-2.063 0-3.735-2.019-3.735-4.51 0-2.491 1.672-4.51 3.735-4.51 2.063 0 3.735 2.02 3.735 4.51zm-3.71 5.607c1.032 0 1.984-.38 2.77-1.017a6.419 6.419 0 013.387 5.656c-1.579.698-3.727 1.13-6.099 1.13-2.481 0-4.716-.473-6.311-1.228a6.415 6.415 0 013.445-5.594c.793.657 1.759 1.053 2.808 1.053z" stroke="#A1B3C5" stroke-width="3" stroke-linecap="round" stroke-linejoin="round"/><path d="M84.436 28.06l-1.06-1.061 1.06 1.06zm-8.377 8.376L75 35.376l1.06 1.06zm12.496-8.377L89.616 27l-1.06 1.06zm4.374 4.374l-1.06 1.06 1.06-1.06zm0 4.12l-1.06-1.061 1.06 1.06zm-8.377 8.376l1.061 1.06-1.06-1.06zm-4.119 0l1.06-1.06-1.06 1.06zm-1.15-1.15l-.784-1.278a1.5 1.5 0 00-.276 2.339l1.06-1.06zm-2.062-2.063l-1.061 1.061a1.5 1.5 0 002.34-.276l-1.28-.784zm-1.162-1.16l1.061-1.061-1.06 1.06zm7.317-13.557l-8.377 8.377 2.121 2.121 8.377-8.377L83.376 27zm6.24 0a4.412 4.412 0 00-6.24 0l2.121 2.121a1.412 1.412 0 011.998 0L89.616 27zm4.374 4.374l-4.374-4.374-2.121 2.121 4.373 4.374 2.122-2.121zm0 6.24a4.413 4.413 0 000-6.24l-2.121 2.12a1.413 1.413 0 010 1.999l2.12 2.121zm-8.377 8.377l8.377-8.377-2.121-2.121-8.377 8.377 2.121 2.12zm-6.24 0a4.413 4.413 0 006.24 0l-2.121-2.122a1.413 1.413 0 01-1.998 0l-2.121 2.122zm-1.15-1.15l1.15 1.15 2.12-2.122-1.149-1.15-2.121 2.122zm.277-2.34v-.001c.001 0 0 0 0 0l-.001.002 1.57 2.557A3 3 0 0081.5 42.5h-3zm0 0h3a3 3 0 00-3-3v3zm0 .001V39.5a3 3 0 00-2.558 1.432l2.557 1.57zm-3.501-.885l1.161 1.161 2.121-2.121-1.16-1.161-2.122 2.121zm0-6.24a4.412 4.412 0 000 6.24l2.121-2.121a1.412 1.412 0 010-1.998L75 35.376z" fill="#A1B3C5"/><circle cx="81" cy="36" r=".5" stroke="#A1B3C5"/><circle cx="83" cy="38" r=".5" stroke="#A1B3C5"/><circle cx="85" cy="40" r=".5" stroke="#A1B3C5"/><path d="M114 31H99v9h15v-9z" stroke="#A1B3C5" stroke-width="3" stroke-linejoin="round"/><path d="M101 43h15a1 1 0 001-1v-9" stroke="#A1B3C5" stroke-width="1.5" stroke-linecap="round" stroke-linejoin="round"/><path d="M4.285 57.292l1.418.489c-.247.717-.82 1.223-1.21 1.507a4.921 4.921 0 01-.993.561v.461c.367.139.732.335 1.048.551.402.275.99.763 1.267 1.463.062.155.13.309.202.46m-1.732-5.492l1.732 5.492m-1.732-5.492l1.418.489a6.7 6.7 0 01.236-.591c.313-.688.241-1.446.155-1.91a4.938 4.938 0 00-.326-1.066l.02-.02.313-.314c.331.133.69.226 1.03.277.462.069 1.225.112 1.904-.245a6.62 6.62 0 01.706-.321c.667-.257 1.157-.8 1.44-1.17a5.51 5.51 0 00.57-.921h.617c.43 1.04 1.293 1.77 2.213 2.15.125.052.247.107.369.166.657.32 1.397.288 1.855.23.343-.042.7-.123 1.026-.233l.021.021.044-.044-.044.044.416.416c-.443 1.033-.362 2.164.034 3.097l1.38-.586-1.38.586c.05.12.098.243.142.366.243.683.786 1.184 1.154 1.47.276.215.589.414.902.569v.611c-1.069.4-1.826 1.254-2.228 2.178l1.376.598-1.376-.598a6.88 6.88 0 01-.116.252c-.326.675-.296 1.439-.235 1.924.047.378.138.77.262 1.125l-.059.059.13.13-.13-.13-.361.361c-1.055-.526-2.234-.47-3.2-.078h0c-.075.03-.15.06-.226.087-.714.26-1.21.844-1.485 1.237a4.912 4.912 0 00-.537.992h-.464a5.017 5.017 0 00-.562-1.016c-.28-.392-.776-.965-1.477-1.226a6.561 6.561 0 01-.49-.206l-.635 1.36.635-1.36c-.7-.327-1.479-.261-1.964-.174a5.017 5.017 0 00-1.15.351l-.045-.046-.223-.223a13.336 13.336 0 01-.053-.052c.158-.368.272-.776.335-1.164.079-.488.131-1.266-.205-1.96m-1.732-5.492l1.732 5.492m.372-9.179l-.002.001a.017.017 0 01.002-.001z" stroke="#A1B3C5" stroke-width="3" stroke-linecap="round" stroke-linejoin="round"/><circle cx="12" cy="60" r="1" stroke="#A1B3C5" stroke-width="2"/><path d="M124 27h15v18l-2.565-1.461L133.944 45l-2.432-1.461-2.5 1.461-2.544-1.461L124 45V27z" stroke="#A1B3C5" stroke-width="3" stroke-linejoin="round"/><path d="M128 31h5m-5 3h5m-5 3h5" stroke="#A1B3C5" stroke-width="2" stroke-linecap="round"/><path d="M44.465 62.009L38.11 51s-3.512 6.345-6.472 8.054c-1.615.932-3.543 2.564-2.497 4.377 1.047 1.813 3.096 1.321 5.114.156 2.422-1.398 10.211-1.578 10.211-1.578zM32.31 58.752l5.085 8.806" stroke="#A1B3C5" stroke-width="3" stroke-linecap="round" stroke-linejoin="round"/><path d="M60 50.5v7" stroke="#A1B3C5" stroke-width="3" stroke-linecap="round"/><path d="M65.5 54.5a7.778 7.778 0 11-11 0" stroke="#A1B3C5" stroke-width="3" stroke-linecap="round" stroke-linejoin="round"/><path d="M36 79.5v21" stroke="#A1B3C5" stroke-width="3" stroke-linecap="round"/><path d="M52.5 91.5c9.113 9.113 9.113 23.887 0 33s-23.887 9.113-33 0-9.113-23.887 0-33" stroke="#A1B3C5" stroke-width="3" stroke-linecap="round" stroke-linejoin="round"/></svg>