<svg width="24" height="24" fill="none" xmlns="http://www.w3.org/2000/svg"><path d="M14.148 20.063c.263-.969.131-1.936-.29-2.671-.332-.583-.845-1.02-1.487-1.197l.914-3.356c2.262-.75 7.335-2.434 8.174-2.662 1.083-.296 1.197-1.821 1.197-1.821l-8.804 2.399L16.25 1.95s-1.525.114-1.82 1.198c-.228.839-1.91 5.914-2.662 8.174l-3.354.915c-.178-.642-.616-1.156-1.197-1.487-.737-.422-1.702-.554-2.672-.29-1.743.474-2.83 2.047-2.433 3.511.175.65.616 1.167 1.201 1.502.736.42 1.703.552 2.67.29a3.818 3.818 0 001.158-.533l.083-.063c2.019-1.496 3.412-1.899 4.198-1.984-.084.787-.487 2.18-1.982 4.2-.024.028-.043.055-.064.082l-.004.01c-.23.335-.413.722-.53 1.146-.263.968-.131 1.935.29 2.672.337.586.853 1.026 1.504 1.202 1.466.396 3.037-.692 3.51-2.433zm-8.549-5.726c-.55.15-1.13.096-1.55-.145-.188-.106-.427-.299-.512-.61-.18-.663.46-1.442 1.396-1.697.556-.15 1.123-.098 1.55.145.185.106.427.299.512.61.18.663-.458 1.44-1.396 1.697zm5.425 6.733c-.312-.084-.502-.323-.61-.512-.24-.42-.294-1-.144-1.55.256-.938 1.034-1.577 1.697-1.397.312.087.503.327.61.512.245.427.296.994.146 1.55-.257.937-1.034 1.579-1.699 1.397z" fill="#A1B3C5" stroke="#A1B3C5"/></svg>