<svg width="264" height="216" viewBox="0 0 264 216" fill="none" xmlns="http://www.w3.org/2000/svg">
<g clip-path="url(#clip0)">
<circle cx="204" cy="36" r="8" fill="#333333"/>
<path d="M173 79.3333L178.444 84.7778V90L181.556 91V84.7778L187 79.3333V77H173V79.3333Z" stroke="#333333" stroke-width="1.5" stroke-linejoin="round"/>
<path d="M39.5 66.5L33 60L39.5 53.5" stroke="#97A6B5" stroke-width="2" stroke-linecap="round" stroke-linejoin="round"/>
<path d="M206 75V79C206 79.2652 206.105 79.5196 206.293 79.7071C206.48 79.8946 206.735 80 207 80H211" stroke="#333333" stroke-width="1.5" stroke-linecap="round" stroke-linejoin="round"/>
<path d="M203.5 93H199C198.47 93 197.961 92.7893 197.586 92.4142C197.211 92.0391 197 91.5304 197 91V77C197 76.4696 197.211 75.9609 197.586 75.5858C197.961 75.2107 198.47 75 199 75H206L211 80V85M206 91H213M213 91L210 88M213 91L210 94" stroke="#333333" stroke-width="1.5" stroke-linecap="round" stroke-linejoin="round"/>
<path d="M67 53L53 67" stroke="#333333" stroke-width="2" stroke-linecap="round" stroke-linejoin="round"/>
<path d="M67 67L53 53" stroke="#333333" stroke-width="2" stroke-linecap="round" stroke-linejoin="round"/>
<path d="M232 56L224 64" stroke="#ED7F7F" stroke-width="1.5" stroke-linecap="round" stroke-linejoin="round"/>
<path d="M232 64L224 56" stroke="#ED7F7F" stroke-width="1.5" stroke-linecap="round" stroke-linejoin="round"/>
<path fill-rule="evenodd" clip-rule="evenodd" d="M87.7109 52.7109C88.1014 52.3204 88.7346 52.3204 89.1251 52.7109L91.9904 55.5762C92.3809 55.9668 92.3809 56.5999 91.9904 56.9904L82.8213 66.1595C82.7012 66.2797 82.5524 66.3673 82.3889 66.4139L78.3775 67.5601C78.0283 67.6598 77.6524 67.5625 77.3956 67.3057C77.1388 67.0489 77.0415 66.673 77.1412 66.3238L78.2874 62.3124C78.3341 62.149 78.4216 62.0001 78.5418 61.88L87.7109 52.7109ZM88.418 54.8322L80.1392 63.111L79.5588 65.1425L81.5903 64.5621L89.8691 56.2833L88.418 54.8322Z" fill="#333333"/>
<path d="M102 58C102 54.6863 104.686 52 108 52V52C111.314 52 114 54.6863 114 58V58.4401C114 59.4572 113.699 60.4516 113.135 61.2979L108.661 68.0082C108.347 68.48 107.653 68.48 107.339 68.0082L102.865 61.2979C102.301 60.4516 102 59.4572 102 58.4401V58Z" stroke="#333333" stroke-width="2"/>
<rect x="106" y="56" width="4" height="4" rx="2" fill="#333333"/>
<path d="M244 115H259" stroke="#333333" stroke-width="2" stroke-linecap="round"/>
<path d="M244 106.5L248.76 102.154L253.375 105.6L259 100.5" stroke="#333333" stroke-width="2" stroke-linecap="round" stroke-linejoin="round"/>
<path d="M244 111V110.5" stroke="#333333" stroke-width="2" stroke-linecap="round"/>
<path d="M249 111V109.125V108.5" stroke="#333333" stroke-width="2" stroke-linecap="round"/>
<path d="M254 111V109.5" stroke="#333333" stroke-width="2" stroke-linecap="round"/>
<path d="M259 111V106.5" stroke="#333333" stroke-width="2" stroke-linecap="round"/>
<path d="M251.246 122.43C253.185 122.277 255.123 122.716 256.807 123.69C258.49 124.663 259.837 126.124 260.672 127.88C261.506 129.636 261.788 131.604 261.479 133.524C261.171 135.443 260.287 137.224 258.944 138.63C257.601 140.036 255.863 141.002 253.96 141.398C252.057 141.795 250.078 141.605 248.285 140.852C246.493 140.1 244.971 138.82 243.921 137.184C242.871 135.548 242.343 133.631 242.406 131.688C242.41 131.57 242.436 131.453 242.485 131.346C242.533 131.238 242.603 131.141 242.689 131.06C242.775 130.978 242.876 130.915 242.987 130.873C243.097 130.831 243.215 130.811 243.333 130.815C243.451 130.819 243.568 130.845 243.675 130.894C243.783 130.942 243.88 131.012 243.961 131.098C244.043 131.184 244.106 131.285 244.148 131.396C244.19 131.506 244.21 131.624 244.206 131.742C244.145 133.581 244.737 135.383 245.876 136.828C247.015 138.274 248.629 139.27 250.432 139.64C252.235 140.011 254.11 139.732 255.727 138.852C257.344 137.973 258.598 136.551 259.268 134.836C259.937 133.122 259.979 131.226 259.385 129.484C258.791 127.742 257.601 126.266 256.024 125.317C254.447 124.368 252.586 124.007 250.768 124.298C248.951 124.589 247.295 125.513 246.094 126.907L245.849 127.205H248.704L248.826 127.214C249.041 127.244 249.239 127.351 249.382 127.515C249.525 127.678 249.603 127.889 249.603 128.106C249.603 128.323 249.525 128.534 249.382 128.697C249.239 128.861 249.041 128.968 248.826 128.998L248.704 129.006H243.904L243.781 128.998C243.587 128.971 243.406 128.881 243.267 128.742C243.128 128.603 243.039 128.423 243.012 128.228L243.004 128.106V123.306L243.012 123.184C243.039 122.989 243.128 122.809 243.267 122.67C243.406 122.531 243.587 122.441 243.781 122.414L243.904 122.406L244.026 122.414C244.221 122.441 244.401 122.531 244.54 122.67C244.679 122.809 244.768 122.989 244.795 123.184L244.804 123.306L244.802 125.65C246.449 123.779 248.761 122.624 251.246 122.431V122.43ZM251.7 127.205L251.822 127.213C252.017 127.24 252.197 127.33 252.336 127.468C252.475 127.607 252.565 127.788 252.592 127.982L252.6 128.105V131.999L254.7 132L254.822 132.008C255.039 132.037 255.237 132.143 255.381 132.307C255.525 132.472 255.604 132.682 255.604 132.901C255.604 133.119 255.525 133.33 255.381 133.494C255.237 133.658 255.039 133.764 254.822 133.793L254.7 133.8H251.7L251.578 133.793C251.383 133.766 251.202 133.676 251.063 133.537C250.924 133.398 250.835 133.217 250.808 133.022L250.8 132.9V128.105L250.808 127.982C250.835 127.788 250.925 127.607 251.064 127.468C251.203 127.33 251.383 127.24 251.578 127.213L251.7 127.205Z" fill="#333333"/>
<path d="M159.77 150.001C159.054 150.716 158.743 151.446 158.623 152.176M150.001 159.77C152.829 156.942 155.459 159.967 157.713 157.713C158.285 157.142 158.53 156.533 158.62 155.901" stroke="#333333" stroke-width="2"/>
<path d="M162.597 152.828C159.967 155.458 157.139 152.63 154.885 154.885C154.303 155.466 154.073 156.072 154.003 156.701M152.828 162.597C153.533 161.892 153.874 161.2 154.024 160.522" stroke="#333333" stroke-width="2"/>
<path d="M174.873 185.129C173.028 183.819 171.568 182.115 170.743 181.039C170.512 180.742 170.387 180.377 170.387 180C170.387 179.624 170.512 179.259 170.743 178.962C172.236 177.013 175.818 173 180 173C181.876 173 183.63 173.807 185.13 174.874" stroke="#333333" stroke-width="2" stroke-linecap="round" stroke-linejoin="round"/>
<path d="M182.13 177.887C181.852 177.605 181.521 177.38 181.157 177.226C180.792 177.072 180.4 176.992 180.004 176.991C179.608 176.989 179.215 177.066 178.849 177.217C178.483 177.367 178.15 177.589 177.87 177.869C177.59 178.149 177.368 178.482 177.217 178.848C177.067 179.214 176.99 179.607 176.991 180.003C176.993 180.399 177.073 180.79 177.227 181.155C177.38 181.52 177.605 181.851 177.887 182.129" stroke="#333333" stroke-width="2" stroke-linecap="round" stroke-linejoin="round"/>
<path d="M172 188L188 172" stroke="#333333" stroke-width="2" stroke-linecap="round" stroke-linejoin="round"/>
<path d="M178 186.704C178.649 186.897 179.323 186.997 180 187C184.182 187 187.764 182.987 189.257 181.038C189.488 180.741 189.613 180.375 189.613 179.999C189.612 179.623 189.487 179.257 189.256 178.96C188.731 178.275 188.168 177.621 187.57 177" stroke="#333333" stroke-width="2" stroke-linecap="round" stroke-linejoin="round"/>
<path d="M128 11L132 15L136 11" stroke="#C2C8CE" stroke-width="1.5" stroke-linecap="round" stroke-linejoin="round"/>
<path d="M136 38L132 34L128 38" stroke="#97A6B5" stroke-width="1.5" stroke-linecap="round" stroke-linejoin="round"/>
<path d="M153.5 36H163" stroke="#333333" stroke-width="2" stroke-linecap="round" stroke-linejoin="round"/>
<path d="M160 32L164 36L160 40" stroke="#333333" stroke-width="2" stroke-linecap="round" stroke-linejoin="round"/>
<path d="M154 28H151C149.895 28 149 28.8954 149 30V42C149 43.1046 149.895 44 151 44H154" stroke="#333333" stroke-width="2" stroke-linecap="round"/>
<path d="M158 13L161 16L158 19" stroke="#F2CB67" stroke-width="1.5" stroke-linecap="round" stroke-linejoin="round"/>
<path d="M159 8H155C153.343 8 152 9.34315 152 11V13C152 14.6569 153.343 16 155 16H160" stroke="#F2CB67" stroke-width="1.5" stroke-linecap="round"/>
<path d="M73 101L73 85" stroke="#333333" stroke-width="3" stroke-linecap="round" stroke-linejoin="round"/>
<path d="M66 90L73 83L80 90" stroke="#333333" stroke-width="3" stroke-linecap="round" stroke-linejoin="round"/>
<path d="M59 100L59 107C59 108.105 59.8954 109 61 109L85 109C86.1046 109 87 108.105 87 107L87 100" stroke="#333333" stroke-width="3" stroke-linecap="round"/>
<path d="M81 135L87 129" stroke="#333333" stroke-width="2" stroke-linecap="round" stroke-linejoin="round"/>
<path d="M81.5 130C81.7761 130 82 129.776 82 129.5C82 129.224 81.7761 129 81.5 129C81.2239 129 81 129.224 81 129.5C81 129.776 81.2239 130 81.5 130Z" fill="#333333" stroke="#333333" stroke-width="2" stroke-linecap="round" stroke-linejoin="round"/>
<path d="M86.5 135C86.7761 135 87 134.776 87 134.5C87 134.224 86.7761 134 86.5 134C86.2239 134 86 134.224 86 134.5C86 134.776 86.2239 135 86.5 135Z" fill="#333333" stroke="#333333" stroke-width="2" stroke-linecap="round" stroke-linejoin="round"/>
<path d="M77 127.2C77 126.617 77.2318 126.057 77.6444 125.644C78.0569 125.232 78.6165 125 79.2 125H80.2C80.7809 125 81.3381 124.77 81.75 124.36L82.45 123.66C82.6544 123.454 82.8975 123.291 83.1652 123.18C83.433 123.069 83.7201 123.011 84.01 123.011C84.2999 123.011 84.587 123.069 84.8548 123.18C85.1225 123.291 85.3656 123.454 85.57 123.66L86.27 124.36C86.6819 124.77 87.2391 125 87.82 125H88.82C89.4035 125 89.9631 125.232 90.3756 125.644C90.7882 126.057 91.02 126.617 91.02 127.2V128.2C91.0203 128.781 91.2504 129.338 91.66 129.75L92.36 130.45C92.5656 130.654 92.7288 130.898 92.8401 131.165C92.9514 131.433 93.0087 131.72 93.0087 132.01C93.0087 132.3 92.9514 132.587 92.8401 132.855C92.7288 133.122 92.5656 133.366 92.36 133.57L91.66 134.27C91.2504 134.682 91.0203 135.239 91.02 135.82V136.82C91.02 137.403 90.7882 137.963 90.3756 138.376C89.9631 138.788 89.4035 139.02 88.82 139.02H87.82C87.2391 139.02 86.6819 139.25 86.27 139.66L85.57 140.36C85.3656 140.566 85.1225 140.729 84.8548 140.84C84.587 140.951 84.2999 141.009 84.01 141.009C83.7201 141.009 83.433 140.951 83.1652 140.84C82.8975 140.729 82.6544 140.566 82.45 140.36L81.75 139.66C81.3381 139.25 80.7809 139.02 80.2 139.02H79.2C78.6165 139.02 78.0569 138.788 77.6444 138.376C77.2318 137.963 77 137.403 77 136.82V135.82C76.9997 135.239 76.7696 134.682 76.36 134.27L75.66 133.57C75.4544 133.366 75.2912 133.122 75.1799 132.855C75.0686 132.587 75.0113 132.3 75.0113 132.01C75.0113 131.72 75.0686 131.433 75.1799 131.165C75.2912 130.898 75.4544 130.654 75.66 130.45L76.36 129.75C76.7696 129.338 76.9997 128.781 77 128.2V127.2" stroke="#333333" stroke-width="2" stroke-linecap="round" stroke-linejoin="round"/>
<path fill-rule="evenodd" clip-rule="evenodd" d="M180 158C179.448 158 179 157.552 179 157L179 150C179 149.448 179.448 149 180 149C180.552 149 181 149.448 181 150L181 157C181 157.552 180.552 158 180 158Z" fill="#333333"/>
<path fill-rule="evenodd" clip-rule="evenodd" d="M176.293 153.707C175.902 153.317 175.902 152.683 176.293 152.293L179.293 149.293C179.683 148.902 180.317 148.902 180.707 149.293L183.707 152.293C184.098 152.683 184.098 153.317 183.707 153.707C183.317 154.098 182.683 154.098 182.293 153.707L180 151.414L177.707 153.707C177.317 154.098 176.683 154.098 176.293 153.707Z" fill="#333333"/>
<path fill-rule="evenodd" clip-rule="evenodd" d="M176 163C174.343 163 173 161.657 173 160L173 158C173 157.448 173.448 157 174 157C174.552 157 175 157.448 175 158L175 160C175 160.552 175.448 161 176 161L184 161C184.552 161 185 160.552 185 160L185 158C185 157.448 185.448 157 186 157C186.552 157 187 157.448 187 158L187 160C187 161.657 185.657 163 184 163L176 163Z" fill="#333333"/>
<path d="M132.527 144.263H108" stroke="#333333" stroke-width="3" stroke-linecap="round" stroke-linejoin="round"/>
<path d="M120.263 156.527V132" stroke="#333333" stroke-width="3" stroke-linecap="round" stroke-linejoin="round"/>
<path d="M147.75 123C147.551 123 147.36 123.079 147.22 123.22C147.079 123.36 147 123.551 147 123.75C147 123.949 147.079 124.14 147.22 124.28C147.36 124.421 147.551 124.5 147.75 124.5H148.119C148.282 124.5 148.44 124.554 148.57 124.652C148.7 124.75 148.794 124.888 148.839 125.044L151.218 133.37C151.353 133.839 151.636 134.253 152.027 134.547C152.417 134.841 152.892 135 153.381 135H160.234C160.684 135 161.124 134.865 161.496 134.613C161.869 134.361 162.157 134.003 162.324 133.586L164.535 128.056C164.626 127.829 164.66 127.583 164.633 127.339C164.607 127.096 164.522 126.862 164.384 126.659C164.247 126.456 164.062 126.29 163.846 126.175C163.629 126.06 163.388 126 163.143 126H150.672L150.28 124.632C150.146 124.162 149.863 123.749 149.473 123.454C149.083 123.16 148.608 123 148.119 123H147.75ZM152.661 132.955L151.101 127.5H163.141L160.931 133.029C160.875 133.168 160.779 133.287 160.655 133.371C160.531 133.455 160.384 133.5 160.234 133.5H153.381C153.218 133.5 153.06 133.446 152.93 133.348C152.8 133.25 152.706 133.112 152.661 132.955Z" fill="#333333"/>
<path d="M153.75 141C154.045 141 154.338 140.942 154.611 140.829C154.884 140.716 155.132 140.55 155.341 140.341C155.55 140.132 155.716 139.884 155.829 139.611C155.942 139.338 156 139.045 156 138.75C156 138.455 155.942 138.162 155.829 137.889C155.716 137.616 155.55 137.368 155.341 137.159C155.132 136.95 154.884 136.784 154.611 136.671C154.338 136.558 154.045 136.5 153.75 136.5C153.153 136.5 152.581 136.737 152.159 137.159C151.737 137.581 151.5 138.153 151.5 138.75C151.5 139.347 151.737 139.919 152.159 140.341C152.581 140.763 153.153 141 153.75 141ZM153.75 139.5C153.551 139.5 153.36 139.421 153.22 139.28C153.079 139.14 153 138.949 153 138.75C153 138.551 153.079 138.36 153.22 138.22C153.36 138.079 153.551 138 153.75 138C153.949 138 154.14 138.079 154.28 138.22C154.421 138.36 154.5 138.551 154.5 138.75C154.5 138.949 154.421 139.14 154.28 139.28C154.14 139.421 153.949 139.5 153.75 139.5Z" fill="#333333"/>
<path d="M159.75 141C160.045 141 160.338 140.942 160.611 140.829C160.884 140.716 161.132 140.55 161.341 140.341C161.55 140.132 161.716 139.884 161.829 139.611C161.942 139.338 162 139.045 162 138.75C162 138.455 161.942 138.162 161.829 137.889C161.716 137.616 161.55 137.368 161.341 137.159C161.132 136.95 160.884 136.784 160.611 136.671C160.338 136.558 160.045 136.5 159.75 136.5C159.153 136.5 158.581 136.737 158.159 137.159C157.737 137.581 157.5 138.153 157.5 138.75C157.5 139.347 157.737 139.919 158.159 140.341C158.581 140.763 159.153 141 159.75 141ZM159.75 139.5C159.551 139.5 159.36 139.421 159.22 139.28C159.079 139.14 159 138.949 159 138.75C159 138.551 159.079 138.36 159.22 138.22C159.36 138.079 159.551 138 159.75 138C159.949 138 160.14 138.079 160.28 138.22C160.421 138.36 160.5 138.551 160.5 138.75C160.5 138.949 160.421 139.14 160.28 139.28C160.14 139.421 159.949 139.5 159.75 139.5Z" fill="#333333"/>
<circle cx="120" cy="96" r="15" stroke="#333333" stroke-width="2"/>
<path d="M119 87V97H125" stroke="#333333" stroke-width="2" stroke-linecap="round" stroke-linejoin="round"/>
<circle cx="24" cy="192" r="22" fill="#FAC748"/>
<path fill-rule="evenodd" clip-rule="evenodd" d="M35.8989 185.101C36.8752 186.077 36.8752 187.66 35.8989 188.637L24.1009 200.434C23.1246 201.411 21.5417 201.411 20.5654 200.434L13.4867 193.356C12.5103 192.379 12.5103 190.796 13.4867 189.82C14.463 188.844 16.0459 188.844 17.0222 189.82L22.3332 195.131L32.3633 185.101C33.3396 184.125 34.9226 184.125 35.8989 185.101Z" fill="white"/>
<circle cx="156" cy="84" r="9" stroke="#333333" stroke-width="2"/>
<path d="M156 79V84H159" stroke="#333333" stroke-width="2" stroke-linecap="round" stroke-linejoin="round"/>
<circle cx="252" cy="60" r="5.25" stroke="#93479F" stroke-width="1.5"/>
<path d="M252 57V60H254" stroke="#93479F" stroke-width="1.5" stroke-linecap="round" stroke-linejoin="round"/>
<path d="M57.3553 29.2857H61.6816C61.8164 29.2857 61.9489 29.3186 62.0667 29.3812C62.1846 29.4439 62.2839 29.5342 62.3553 29.6438L65.1008 33.8571H68.6025C68.6715 33.8571 68.7393 33.8743 68.7992 33.907C68.8592 33.9397 68.9092 33.9868 68.9444 34.0437C68.9796 34.1006 68.9987 34.1653 68.9999 34.2315C69.0011 34.2976 68.9844 34.3629 68.9512 34.4209L65.8054 39.9524H65.2994C64.8878 39.9527 64.4779 39.902 64.0799 39.8015L66.5942 35.3809H52.9066L53.7391 39.8183C53.3628 39.9076 52.9765 39.9526 52.5888 39.9524H52.1559L51.1708 34.7554C51.15 34.6457 51.1545 34.533 51.1841 34.4252C51.2137 34.3174 51.2676 34.2171 51.342 34.1314C51.4164 34.0458 51.5095 33.9768 51.6147 33.9294C51.7199 33.882 51.8347 33.8573 51.9509 33.8571H52.5888V30.0476C52.5888 29.8455 52.6725 29.6518 52.8215 29.5089C52.9705 29.366 53.1725 29.2857 53.3832 29.2857H54.1776V27H57.3553V29.2857ZM54.1776 33.8571H63.2275L61.2415 30.8095H54.1776V33.8571ZM52.5888 41.4762C53.7616 41.4777 54.8935 41.063 55.7665 40.312C56.6394 41.063 57.7713 41.4777 58.9441 41.4762C60.1168 41.4777 61.2487 41.063 62.1217 40.312C62.9947 41.063 64.1266 41.4777 65.2994 41.4762H66.8882V43H65.2994C64.1837 43.0017 63.0874 42.7205 62.1217 42.1848C61.156 42.7205 60.0597 43.0017 58.9441 43C57.8285 43.0017 56.7322 42.7205 55.7665 42.1848C54.8007 42.7205 53.7045 43.0017 52.5888 43H51V41.4762H52.5888Z" fill="#333333"/>
<circle cx="156" cy="108" r="9" stroke="#333333" stroke-width="2"/>
<path d="M156 107.5V111" stroke="#333333" stroke-width="2" stroke-linecap="round" stroke-linejoin="round"/>
<path d="M156 104V104.5" stroke="#333333" stroke-width="2" stroke-linecap="round" stroke-linejoin="round"/>
<path d="M28.5 5.5H43.5" stroke="#333333" stroke-width="2" stroke-linecap="square"/>
<path d="M28.5 11.5H43.5" stroke="#333333" stroke-width="2" stroke-linecap="square"/>
<path d="M28.5 17.5H33.5" stroke="#333333" stroke-width="2" stroke-linecap="square"/>
<path d="M39 17.5H44" stroke="#333333" stroke-width="2" stroke-linecap="square"/>
<path d="M41.5 20L41.5 15" stroke="#333333" stroke-width="2" stroke-linecap="square"/>
<path d="M52.5 5.5H67.5" stroke="#53B423" stroke-width="2" stroke-linecap="square"/>
<path d="M52.5 11.5H67.5" stroke="#53B423" stroke-width="2" stroke-linecap="square"/>
<path d="M52.5 17.5H57.5" stroke="#53B423" stroke-width="2" stroke-linecap="square"/>
<path d="M65 20L69 16" stroke="#53B423" stroke-width="2" stroke-linecap="square"/>
<path d="M65 20L62 17" stroke="#53B423" stroke-width="2" stroke-linecap="square"/>
<path d="M76.5 5.5H91.5" stroke="#333333" stroke-width="2" stroke-linecap="square"/>
<path d="M76.5 11.5H91.5" stroke="#333333" stroke-width="2" stroke-linecap="square"/>
<path d="M76.5 17.5H81.5" stroke="#333333" stroke-width="2" stroke-linecap="square"/>
<path d="M86 20H91" stroke="#333333" stroke-width="2" stroke-linecap="square"/>
<circle cx="174" cy="12" r="2" fill="#333333"/>
<circle cx="180" cy="12" r="2" fill="#333333"/>
<circle cx="186" cy="12" r="2" fill="#333333"/>
<circle cx="177.5" cy="36.5" r="1.5" fill="#333333"/>
<circle cx="177.5" cy="42.5" r="1.5" fill="#333333"/>
<circle cx="182.5" cy="36.5" r="1.5" fill="#333333"/>
<circle cx="177.5" cy="30.5" r="1.5" fill="#333333"/>
<circle cx="182.5" cy="30.5" r="1.5" fill="#333333"/>
<circle cx="182.5" cy="42.5" r="1.5" fill="#333333"/>
<path d="M247 36L257 36" stroke="#C2C8CE" stroke-width="2" stroke-linecap="round"/>
<path d="M252 31L252 41" stroke="#C2C8CE" stroke-width="2" stroke-linecap="round"/>
<path d="M247 12L257 12" stroke="#C2C8CE" stroke-width="2" stroke-linecap="round"/>
<path d="M80.4645 39.5355L87.5355 32.4645" stroke="#97A6B5" stroke-width="2" stroke-linecap="round"/>
<path d="M80.4645 32.4645L87.5355 39.5355" stroke="#97A6B5" stroke-width="2" stroke-linecap="round"/>
<g filter="url(#filter0_d)">
<path d="M103 36.1087L106.393 39L113 32" stroke="#53B423" stroke-width="1.5" stroke-linecap="round" stroke-linejoin="round"/>
</g>
<path d="M100.5 8.5C100.5 7.39543 101.395 6.5 102.5 6.5H113.5C114.605 6.5 115.5 7.39543 115.5 8.5V18.5C115.5 19.6046 114.605 20.5 113.5 20.5H102.5C101.395 20.5 100.5 19.6046 100.5 18.5V8.5Z" stroke="#333333" stroke-width="1.5"/>
<path d="M100.5 11.5H115.5" stroke="#333333" stroke-width="1.5"/>
<path d="M104.5 6.5V4.5" stroke="#333333" stroke-width="1.5" stroke-linecap="round"/>
<path d="M111.5 6.5V4.5" stroke="#333333" stroke-width="1.5" stroke-linecap="round"/>
<path d="M184.5 113V112C183.948 112 183.5 112.448 183.5 113H184.5ZM184.5 116.5L183.793 117.207C184.079 117.493 184.509 117.579 184.883 117.424C185.256 117.269 185.5 116.904 185.5 116.5H184.5ZM181 113L181.707 112.293C181.52 112.105 181.265 112 181 112V113ZM171 103V110H173V103H171ZM175 99C172.791 99 171 100.791 171 103H173C173 101.895 173.895 101 175 101V99ZM185 99H175V101H185V99ZM189 103C189 100.791 187.209 99 185 99V101C186.105 101 187 101.895 187 103H189ZM189 110V103H187V110H189ZM185 114C187.209 114 189 112.209 189 110H187C187 111.105 186.105 112 185 112V114ZM184.5 114H185V112H184.5V114ZM185.5 116.5V113H183.5V116.5H185.5ZM180.293 113.707L183.793 117.207L185.207 115.793L181.707 112.293L180.293 113.707ZM175 114H181V112H175V114ZM171 110C171 112.209 172.791 114 175 114V112C173.895 112 173 111.105 173 110H171Z" fill="#333333"/>
<path d="M180 103.5V106" stroke="#333333" stroke-width="2" stroke-linecap="round"/>
<circle cx="180" cy="109" r="1" fill="#333333"/>
<path d="M187 136.5H173L173.306 136.347C174.33 135.835 174.94 134.753 174.849 133.612L174.478 128.981C174.221 125.758 176.767 123 180 123C183.233 123 185.779 125.758 185.522 128.981L185.151 133.612C185.06 134.753 185.67 135.835 186.694 136.347L187 136.5Z" stroke="#333333" stroke-width="2" stroke-linecap="round" stroke-linejoin="round"/>
<path d="M180 142C181.657 142 183 140.657 183 139H177C177 140.657 178.343 142 180 142Z" fill="#333333"/>
<path d="M197 136V129H195V136H197ZM199 127H209V125H199V127ZM211 129V136H213V129H211ZM199 140H209V138H199V140ZM211 136C211 137.105 210.105 138 209 138V140C211.209 140 213 138.209 213 136H211ZM209 127C210.105 127 211 127.895 211 129H213C213 126.791 211.209 125 209 125V127ZM197 129C197 127.895 197.895 127 199 127V125C196.791 125 195 126.791 195 129H197ZM195 136C195 138.209 196.791 140 199 140V138C197.895 138 197 137.105 197 136H195Z" fill="#333333"/>
<path d="M199.514 129.643C199.041 129.358 198.427 129.512 198.143 129.986C197.858 130.459 198.012 131.073 198.486 131.357L199.514 129.643ZM204 133.5L203.486 134.357C203.802 134.548 204.198 134.548 204.514 134.357L204 133.5ZM209.514 131.357C209.988 131.073 210.142 130.459 209.857 129.986C209.573 129.512 208.959 129.358 208.486 129.643L209.514 131.357ZM198.486 131.357L203.486 134.357L204.514 132.643L199.514 129.643L198.486 131.357ZM204.514 134.357L209.514 131.357L208.486 129.643L203.486 132.643L204.514 134.357Z" fill="#333333"/>
<path d="M208.375 99.6251L212.375 103.625L201.744 114.256C201.262 114.738 200.631 115.041 199.954 115.116L196.5 115.5L196.884 112.046C196.959 111.369 197.262 110.738 197.744 110.256L208.375 99.6251Z" stroke="#333333" stroke-width="2" stroke-linejoin="round"/>
<path d="M205.5 102.5L209.5 106.5" stroke="#333333" stroke-width="2"/>
<path d="M227.109 100.745C227.48 100.018 228.52 100.018 228.891 100.745L230.467 103.833C230.612 104.118 230.885 104.316 231.2 104.367L234.624 104.911C235.431 105.039 235.752 106.028 235.175 106.605L232.725 109.058C232.499 109.285 232.395 109.605 232.445 109.921L232.985 113.346C233.112 114.152 232.271 114.763 231.544 114.393L228.453 112.821C228.169 112.676 227.831 112.676 227.547 112.821L224.456 114.393C223.729 114.763 222.888 114.152 223.015 113.346L223.555 109.921C223.605 109.605 223.501 109.285 223.275 109.058L220.825 106.605C220.248 106.028 220.569 105.039 221.376 104.911L224.8 104.367C225.115 104.316 225.388 104.118 225.533 103.833L227.109 100.745Z" stroke="#333333" stroke-width="2"/>
<path d="M210.364 149.636L206.828 153.172L210.364 149.636ZM206.828 158.828L210.364 162.364L206.828 158.828ZM201.172 153.172L197.636 149.636L201.172 153.172ZM201.172 158.828L197.636 162.364L201.172 158.828ZM213 156C213 157.182 212.767 158.352 212.315 159.444C211.863 160.536 211.2 161.528 210.364 162.364C209.528 163.2 208.536 163.863 207.444 164.315C206.352 164.767 205.182 165 204 165C202.818 165 201.648 164.767 200.556 164.315C199.464 163.863 198.472 163.2 197.636 162.364C196.8 161.528 196.137 160.536 195.685 159.444C195.233 158.352 195 157.182 195 156C195 153.613 195.948 151.324 197.636 149.636C199.324 147.948 201.613 147 204 147C206.387 147 208.676 147.948 210.364 149.636C212.052 151.324 213 153.613 213 156ZM208 156C208 157.061 207.579 158.078 206.828 158.828C206.078 159.579 205.061 160 204 160C202.939 160 201.922 159.579 201.172 158.828C200.421 158.078 200 157.061 200 156C200 154.939 200.421 153.922 201.172 153.172C201.922 152.421 202.939 152 204 152C205.061 152 206.078 152.421 206.828 153.172C207.579 153.922 208 154.939 208 156V156Z" stroke="#333333" stroke-width="2" stroke-linecap="round" stroke-linejoin="round"/>
<path d="M220 7H236M235 7L234.133 19.142C234.097 19.6466 233.871 20.1188 233.501 20.4636C233.131 20.8083 232.644 21 232.138 21H223.862C223.356 21 222.869 20.8083 222.499 20.4636C222.129 20.1188 221.903 19.6466 221.867 19.142L221 7H235ZM226 11V17V11ZM230 11V17V11ZM231 7V4C231 3.73478 230.895 3.48043 230.707 3.29289C230.52 3.10536 230.265 3 230 3H226C225.735 3 225.48 3.10536 225.293 3.29289C225.105 3.48043 225 3.73478 225 4V7H231Z" stroke="#333333" stroke-width="1.5" stroke-linecap="round" stroke-linejoin="round"/>
<path d="M176 53C176.133 53 176.26 53.0527 176.354 53.1464C176.447 53.2402 176.5 53.3674 176.5 53.5V57.293L177.646 56.146C177.74 56.0521 177.867 55.9994 178 55.9994C178.133 55.9994 178.26 56.0521 178.354 56.146C178.448 56.2399 178.501 56.3672 178.501 56.5C178.501 56.6328 178.448 56.7601 178.354 56.854L176.354 58.854C176.308 58.9006 176.252 58.9375 176.192 58.9627C176.131 58.9879 176.066 59.0009 176 59.0009C175.934 59.0009 175.869 58.9879 175.808 58.9627C175.748 58.9375 175.692 58.9006 175.646 58.854L173.646 56.854C173.6 56.8075 173.563 56.7523 173.537 56.6916C173.512 56.6308 173.499 56.5657 173.499 56.5C173.499 56.4343 173.512 56.3692 173.537 56.3084C173.563 56.2477 173.6 56.1925 173.646 56.146C173.74 56.0521 173.867 55.9994 174 55.9994C174.066 55.9994 174.131 56.0123 174.192 56.0375C174.252 56.0626 174.308 56.0995 174.354 56.146L175.5 57.293V53.5C175.5 53.3674 175.553 53.2402 175.646 53.1464C175.74 53.0527 175.867 53 176 53Z" fill="#333333"/>
<path d="M172 49C171.47 49 170.961 49.2107 170.586 49.5858C170.211 49.9609 170 50.4696 170 51V61C170 61.5304 170.211 62.0391 170.586 62.4142C170.961 62.7893 171.47 63 172 63H180C180.53 63 181.039 62.7893 181.414 62.4142C181.789 62.0391 182 61.5304 182 61V51C182 50.4696 181.789 49.9609 181.414 49.5858C181.039 49.2107 180.53 49 180 49H172ZM172 50H180C180.265 50 180.52 50.1054 180.707 50.2929C180.895 50.4804 181 50.7348 181 51V61C181 61.2652 180.895 61.5196 180.707 61.7071C180.52 61.8946 180.265 62 180 62H172C171.735 62 171.48 61.8946 171.293 61.7071C171.105 61.5196 171 61.2652 171 61V51C171 50.7348 171.105 50.4804 171.293 50.2929C171.48 50.1054 171.735 50 172 50Z" fill="#333333"/>
<path d="M196.715 54.542L195.343 55.914C194.78 56.4767 194.464 57.2398 194.464 58.0355C194.464 58.8312 194.78 59.5943 195.343 60.157C195.906 60.7197 196.669 61.0358 197.465 61.0358C198.26 61.0358 199.023 60.7197 199.586 60.157L201.414 58.328C201.753 57.9887 202.006 57.5729 202.152 57.1155C202.297 56.6582 202.33 56.1727 202.249 55.6997C202.168 55.2268 201.975 54.7802 201.685 54.3974C201.396 54.0146 201.019 53.7069 200.586 53.5L200 54.086C199.941 54.1456 199.889 54.2125 199.846 54.285C200.181 54.3812 200.484 54.563 200.727 54.8125C200.97 55.0619 201.143 55.3704 201.23 55.7075C201.317 56.0445 201.314 56.3984 201.223 56.7342C201.131 57.07 200.953 57.376 200.707 57.622L198.88 59.45C198.505 59.8253 197.996 60.0361 197.465 60.0361C196.934 60.0361 196.425 59.8253 196.05 59.45C195.675 59.0747 195.464 58.5657 195.464 58.035C195.464 57.5043 195.675 56.9953 196.05 56.62L196.843 55.828C196.731 55.4087 196.688 54.9741 196.715 54.541V54.542Z" fill="#333333"/>
<path d="M198.586 52.672C198.247 53.0113 197.994 53.4271 197.848 53.8844C197.703 54.3418 197.67 54.8273 197.751 55.3003C197.832 55.7732 198.025 56.2198 198.315 56.6026C198.604 56.9853 198.981 57.2931 199.414 57.5L200.189 56.724C199.85 56.6331 199.541 56.4545 199.293 56.2062C199.044 55.9579 198.866 55.6487 198.775 55.3096C198.684 54.9705 198.684 54.6135 198.775 54.2744C198.866 53.9354 199.045 53.6262 199.293 53.378L201.12 51.55C201.495 51.1747 202.004 50.9639 202.535 50.9639C203.066 50.9639 203.575 51.1747 203.95 51.55C204.325 51.9253 204.536 52.4343 204.536 52.965C204.536 53.4957 204.325 54.0047 203.95 54.38L203.157 55.172C203.269 55.592 203.312 56.027 203.285 56.459L204.657 55.087C205.22 54.5243 205.536 53.7612 205.536 52.9655C205.536 52.1698 205.22 51.4067 204.657 50.844C204.094 50.2813 203.331 49.9652 202.536 49.9652C201.74 49.9652 200.977 50.2813 200.414 50.844L198.586 52.672Z" fill="#333333"/>
<path d="M31 81L28 84L31 87" stroke="#97A6B5" stroke-width="1.5" stroke-linecap="round" stroke-linejoin="round"/>
<path d="M39 81L42 84L39 87" stroke="#97A6B5" stroke-width="1.5" stroke-linecap="round" stroke-linejoin="round"/>
<path d="M37 78L33 90" stroke="#97A6B5" stroke-width="1.5" stroke-linecap="round" stroke-linejoin="round"/>
<path d="M235.2 123H226.2C225.207 123 224.4 123.807 224.4 124.8V128.4H220.8C219.807 128.4 219 129.207 219 130.2V139.2C219 140.193 219.807 141 220.8 141H229.8C230.793 141 231.6 140.193 231.6 139.2V135.6H235.2C236.193 135.6 237 134.793 237 133.8V124.8C237 123.807 236.193 123 235.2 123ZM220.8 139.2V130.2H229.8L229.802 139.2H220.8ZM235.2 133.8H231.6V130.2C231.6 129.207 230.793 128.4 229.8 128.4H226.2V124.8H235.2V133.8Z" fill="#333333"/>
<path d="M227.1 151.547V148.875C227.1 148.702 227.047 148.533 226.948 148.389C226.849 148.245 226.709 148.133 226.544 148.067C226.38 148 226.199 147.983 226.025 148.017C225.85 148.051 225.69 148.134 225.564 148.256L219.264 154.381C219.18 154.462 219.114 154.558 219.069 154.665C219.023 154.771 219 154.884 219 154.999C219 155.114 219.023 155.228 219.069 155.334C219.114 155.44 219.18 155.537 219.264 155.618L225.564 161.743C225.69 161.865 225.85 161.949 226.025 161.983C226.199 162.017 226.38 162 226.545 161.933C226.71 161.867 226.85 161.755 226.949 161.611C227.048 161.467 227.1 161.297 227.1 161.124V158.415C227.356 158.398 227.609 158.39 227.859 158.39C232.742 158.39 235.274 161.515 235.385 161.653C235.498 161.799 235.656 161.907 235.836 161.961C236.015 162.014 236.208 162.012 236.386 161.953C236.565 161.895 236.72 161.784 236.831 161.635C236.941 161.486 237 161.307 237 161.124C237 153.141 229.723 151.779 227.1 151.547ZM227.859 156.64C227.276 156.64 226.678 156.679 226.081 156.756C225.865 156.784 225.667 156.888 225.523 157.048C225.379 157.207 225.3 157.412 225.3 157.624V159.012L221.173 154.999L225.3 150.987V152.375C225.3 152.858 225.724 153.249 226.22 153.249C227.039 153.249 233.522 153.425 234.931 158.871C233.442 157.805 231.078 156.64 227.859 156.64Z" fill="#333333"/>
<path fill-rule="evenodd" clip-rule="evenodd" d="M248.667 148C248.37 148 248 148.284 248 148.8V163.2C248 163.716 248.37 164 248.667 164H255.333C255.63 164 256 163.716 256 163.2V148.8C256 148.284 255.63 148 255.333 148H248.667ZM246 148.8C246 147.327 247.123 146 248.667 146H255.333C256.877 146 258 147.327 258 148.8V163.2C258 164.673 256.877 166 255.333 166H248.667C247.123 166 246 164.673 246 163.2V148.8Z" fill="#333333"/>
<path fill-rule="evenodd" clip-rule="evenodd" d="M251 162C251 161.448 251.448 161 252 161H252.1C252.652 161 253.1 161.448 253.1 162C253.1 162.552 252.652 163 252.1 163H252C251.448 163 251 162.552 251 162Z" fill="#333333"/>
<path d="M165.257 178.962C165.731 179.582 165.731 180.419 165.257 181.038C163.764 182.987 160.182 187 156 187C151.818 187 148.236 182.987 146.743 181.038C146.512 180.741 146.387 180.376 146.387 180C146.387 179.624 146.512 179.259 146.743 178.962C148.236 177.013 151.818 173 156 173C160.182 173 163.764 177.013 165.257 178.962V178.962Z" stroke="#333333" stroke-width="2" stroke-linecap="round" stroke-linejoin="round"/>
<path d="M156 183C157.657 183 159 181.657 159 180C159 178.343 157.657 177 156 177C154.343 177 153 178.343 153 180C153 181.657 154.343 183 156 183Z" stroke="#333333" stroke-width="2" stroke-linecap="round" stroke-linejoin="round"/>
<path d="M4 123L7 126L4 129" stroke="#97A6B5" stroke-width="1.5" stroke-linecap="square"/>
<path d="M36 45.35L34.55 44.03C29.4 39.36 26 36.28 26 32.5C26 29.42 28.42 27 31.5 27C33.24 27 34.91 27.81 36 29.09C37.09 27.81 38.76 27 40.5 27C43.58 27 46 29.42 46 32.5C46 36.28 42.6 39.36 37.45 44.04L36 45.35Z" fill="#333333"/>
<path d="M16.5 27C14.76 27 13.09 27.81 12 29.09C10.91 27.81 9.24 27 7.5 27C4.42 27 2 29.42 2 32.5C2 36.28 5.4 39.36 10.55 44.04L12 45.35L13.45 44.03C18.6 39.36 22 36.28 22 32.5C22 29.42 19.58 27 16.5 27ZM12.1 42.55L12 42.65L11.9 42.55C7.14 38.24 4 35.39 4 32.5C4 30.5 5.5 29 7.5 29C9.04 29 10.54 29.99 11.07 31.36H12.94C13.46 29.99 14.96 29 16.5 29C18.5 29 20 30.5 20 32.5C20 35.39 16.86 38.24 12.1 42.55Z" fill="#333333"/>
<path d="M14.0684 12.6297C13.7925 11.9674 13.3921 11.3657 12.8895 10.8583C12.3884 10.3494 11.7948 9.94362 11.1415 9.66344C11.1356 9.66048 11.1298 9.659 11.1239 9.65603C12.0352 8.98895 12.6276 7.90234 12.6276 6.67638C12.6276 4.64548 11.004 3 9 3C6.99602 3 5.37236 4.64548 5.37236 6.67638C5.37236 7.90234 5.96478 8.98894 6.87608 9.65751C6.87023 9.66048 6.86438 9.66196 6.85852 9.66492C6.20321 9.9451 5.61518 10.3468 5.11053 10.8597C4.60838 11.3676 4.20802 11.9691 3.93155 12.6312C3.65995 13.2794 3.51347 13.9744 3.50004 14.6784C3.49965 14.6943 3.50238 14.71 3.50809 14.7247C3.5138 14.7395 3.52235 14.7529 3.53326 14.7642C3.54416 14.7756 3.5572 14.7846 3.57159 14.7907C3.58598 14.7968 3.60144 14.8 3.61706 14.8H4.49471C4.55907 14.8 4.61027 14.7481 4.61173 14.6844C4.64099 13.54 5.09444 12.4682 5.89603 11.6558C6.72541 10.8153 7.82687 10.3528 9 10.3528C10.1731 10.3528 11.2746 10.8153 12.104 11.6558C12.9056 12.4682 13.359 13.54 13.3883 14.6844C13.3897 14.7496 13.4409 14.8 13.5053 14.8H14.3829C14.3986 14.8 14.414 14.7968 14.4284 14.7907C14.4428 14.7846 14.4558 14.7756 14.4667 14.7642C14.4776 14.7529 14.4862 14.7395 14.4919 14.7247C14.4976 14.71 14.5004 14.6943 14.5 14.6784C14.4853 13.9698 14.3405 13.2805 14.0684 12.6297ZM9 9.22613C8.32859 9.22613 7.69668 8.96078 7.22129 8.479C6.74589 7.99721 6.48406 7.35681 6.48406 6.67638C6.48406 5.99595 6.74589 5.35555 7.22129 4.87377C7.69668 4.39198 8.32859 4.12663 9 4.12663C9.6714 4.12663 10.3033 4.39198 10.7787 4.87377C11.2541 5.35555 11.5159 5.99595 11.5159 6.67638C11.5159 7.35681 11.2541 7.99721 10.7787 8.479C10.3033 8.96078 9.6714 9.22613 9 9.22613Z" fill="#333333"/>
<path d="M20.46 81.63C20.3196 80.1689 19.8032 78.7691 18.9612 77.5668C18.1191 76.3646 16.9801 75.4008 15.655 74.7695C14.3299 74.1382 12.8639 73.8607 11.3997 73.9642C9.93555 74.0677 8.52314 74.5486 7.3 75.36C6.2492 76.0626 5.36706 76.9893 4.71695 78.0734C4.06684 79.1575 3.6649 80.3721 3.54 81.63C3.41749 82.8797 3.57468 84.1409 4.00017 85.3223C4.42567 86.5036 5.1088 87.5755 6 88.46L11.3 93.77C11.393 93.8637 11.5036 93.9381 11.6254 93.9889C11.7473 94.0397 11.878 94.0658 12.01 94.0658C12.142 94.0658 12.2727 94.0397 12.3946 93.9889C12.5164 93.9381 12.627 93.8637 12.72 93.77L18 88.46C18.8912 87.5755 19.5743 86.5036 19.9998 85.3223C20.4253 84.1409 20.5825 82.8797 20.46 81.63ZM16.6 87.05L12 91.65L7.4 87.05C6.72209 86.3721 6.20281 85.5523 5.87947 84.6498C5.55614 83.7472 5.43679 82.7842 5.53 81.83C5.62382 80.8611 5.93177 79.9252 6.43157 79.0898C6.93138 78.2545 7.61056 77.5407 8.42 77C9.48095 76.2952 10.7263 75.9193 12 75.9193C13.2737 75.9193 14.5191 76.2952 15.58 77C16.387 77.5386 17.0647 78.2493 17.5644 79.0809C18.064 79.9126 18.3733 80.8446 18.47 81.81C18.5663 82.7674 18.4484 83.7343 18.125 84.6406C17.8016 85.5468 17.2807 86.3698 16.6 87.05ZM12 78C11.11 78 10.24 78.2639 9.49994 78.7584C8.75992 79.2529 8.18314 79.9557 7.84255 80.7779C7.50195 81.6002 7.41284 82.505 7.58647 83.3779C7.7601 84.2508 8.18869 85.0526 8.81802 85.682C9.44736 86.3113 10.2492 86.7399 11.1221 86.9135C11.995 87.0872 12.8998 86.9981 13.7221 86.6575C14.5443 86.3169 15.2471 85.7401 15.7416 85.0001C16.2361 84.26 16.5 83.39 16.5 82.5C16.4974 81.3073 16.0224 80.1643 15.1791 79.3209C14.3357 78.4776 13.1927 78.0026 12 78ZM12 85C11.5055 85 11.0222 84.8534 10.6111 84.5787C10.2 84.304 9.87952 83.9135 9.6903 83.4567C9.50109 82.9999 9.45158 82.4972 9.54804 82.0123C9.6445 81.5273 9.88261 81.0819 10.2322 80.7322C10.5819 80.3826 11.0273 80.1445 11.5123 80.048C11.9972 79.9516 12.4999 80.0011 12.9567 80.1903C13.4135 80.3795 13.804 80.7 14.0787 81.1111C14.3534 81.5222 14.5 82.0056 14.5 82.5C14.5 83.163 14.2366 83.7989 13.7678 84.2678C13.2989 84.7366 12.663 85 12 85Z" fill="#8D9AA3"/>
<path d="M12 115C12.1978 115 12.3911 114.941 12.5556 114.831C12.72 114.722 12.8482 114.565 12.9239 114.383C12.9996 114.2 13.0194 113.999 12.9808 113.805C12.9422 113.611 12.847 113.433 12.7071 113.293C12.5673 113.153 12.3891 113.058 12.1951 113.019C12.0011 112.981 11.8 113 11.6173 113.076C11.4346 113.152 11.2784 113.28 11.1685 113.444C11.0586 113.609 11 113.802 11 114C11 114.265 11.1054 114.52 11.2929 114.707C11.4804 114.895 11.7348 115 12 115ZM17 115C17.1978 115 17.3911 114.941 17.5556 114.831C17.72 114.722 17.8482 114.565 17.9239 114.383C17.9996 114.2 18.0194 113.999 17.9808 113.805C17.9422 113.611 17.847 113.433 17.7071 113.293C17.5673 113.153 17.3891 113.058 17.1951 113.019C17.0011 112.981 16.8 113 16.6173 113.076C16.4346 113.152 16.2784 113.28 16.1685 113.444C16.0586 113.609 16 113.802 16 114C16 114.265 16.1054 114.52 16.2929 114.707C16.4804 114.895 16.7348 115 17 115ZM17 111C17.1978 111 17.3911 110.941 17.5556 110.831C17.72 110.722 17.8482 110.565 17.9239 110.383C17.9996 110.2 18.0194 109.999 17.9808 109.805C17.9422 109.611 17.847 109.433 17.7071 109.293C17.5673 109.153 17.3891 109.058 17.1951 109.019C17.0011 108.981 16.8 109 16.6173 109.076C16.4346 109.152 16.2784 109.28 16.1685 109.444C16.0586 109.609 16 109.802 16 110C16 110.265 16.1054 110.52 16.2929 110.707C16.4804 110.895 16.7348 111 17 111ZM12 111C12.1978 111 12.3911 110.941 12.5556 110.831C12.72 110.722 12.8482 110.565 12.9239 110.383C12.9996 110.2 13.0194 109.999 12.9808 109.805C12.9422 109.611 12.847 109.433 12.7071 109.293C12.5673 109.153 12.3891 109.058 12.1951 109.019C12.0011 108.981 11.8 109 11.6173 109.076C11.4346 109.152 11.2784 109.28 11.1685 109.444C11.0586 109.609 11 109.802 11 110C11 110.265 11.1054 110.52 11.2929 110.707C11.4804 110.895 11.7348 111 12 111ZM19 99H18V98C18 97.7348 17.8946 97.4804 17.7071 97.2929C17.5196 97.1054 17.2652 97 17 97C16.7348 97 16.4804 97.1054 16.2929 97.2929C16.1054 97.4804 16 97.7348 16 98V99H8V98C8 97.7348 7.89464 97.4804 7.70711 97.2929C7.51957 97.1054 7.26522 97 7 97C6.73478 97 6.48043 97.1054 6.29289 97.2929C6.10536 97.4804 6 97.7348 6 98V99H5C4.20435 99 3.44129 99.3161 2.87868 99.8787C2.31607 100.441 2 101.204 2 102V116C2 116.796 2.31607 117.559 2.87868 118.121C3.44129 118.684 4.20435 119 5 119H19C19.7956 119 20.5587 118.684 21.1213 118.121C21.6839 117.559 22 116.796 22 116V102C22 101.204 21.6839 100.441 21.1213 99.8787C20.5587 99.3161 19.7956 99 19 99ZM20 116C20 116.265 19.8946 116.52 19.7071 116.707C19.5196 116.895 19.2652 117 19 117H5C4.73478 117 4.48043 116.895 4.29289 116.707C4.10536 116.52 4 116.265 4 116V107H20V116ZM20 105H4V102C4 101.735 4.10536 101.48 4.29289 101.293C4.48043 101.105 4.73478 101 5 101H6V102C6 102.265 6.10536 102.52 6.29289 102.707C6.48043 102.895 6.73478 103 7 103C7.26522 103 7.51957 102.895 7.70711 102.707C7.89464 102.52 8 102.265 8 102V101H16V102C16 102.265 16.1054 102.52 16.2929 102.707C16.4804 102.895 16.7348 103 17 103C17.2652 103 17.5196 102.895 17.7071 102.707C17.8946 102.52 18 102.265 18 102V101H19C19.2652 101 19.5196 101.105 19.7071 101.293C19.8946 101.48 20 101.735 20 102V105ZM7 111C7.19778 111 7.39112 110.941 7.55557 110.831C7.72002 110.722 7.84819 110.565 7.92388 110.383C7.99957 110.2 8.01937 109.999 7.98079 109.805C7.9422 109.611 7.84696 109.433 7.70711 109.293C7.56725 109.153 7.38907 109.058 7.19509 109.019C7.00111 108.981 6.80004 109 6.61732 109.076C6.43459 109.152 6.27841 109.28 6.16853 109.444C6.05865 109.609 6 109.802 6 110C6 110.265 6.10536 110.52 6.29289 110.707C6.48043 110.895 6.73478 111 7 111ZM7 115C7.19778 115 7.39112 114.941 7.55557 114.831C7.72002 114.722 7.84819 114.565 7.92388 114.383C7.99957 114.2 8.01937 113.999 7.98079 113.805C7.9422 113.611 7.84696 113.433 7.70711 113.293C7.56725 113.153 7.38907 113.058 7.19509 113.019C7.00111 112.981 6.80004 113 6.61732 113.076C6.43459 113.152 6.27841 113.28 6.16853 113.444C6.05865 113.609 6 113.802 6 114C6 114.265 6.10536 114.52 6.29289 114.707C6.48043 114.895 6.73478 115 7 115Z" fill="#8D9AA3"/>
<path d="M18.0917 64.9083L15 61.8417C16.2001 60.3454 16.7813 58.4461 16.624 56.5344C16.4668 54.6228 15.5831 52.844 14.1546 51.5639C12.7262 50.2838 10.8615 49.5996 8.94412 49.6521C7.02671 49.7045 5.20228 50.4896 3.84596 51.846C2.48965 53.2023 1.70454 55.0267 1.65207 56.9441C1.5996 58.8615 2.28377 60.7262 3.56388 62.1546C4.844 63.5831 6.62276 64.4668 8.53443 64.624C10.4461 64.7813 12.3454 64.2001 13.8417 63L16.9083 66.0667C16.9858 66.1448 17.078 66.2068 17.1795 66.2491C17.2811 66.2914 17.39 66.3132 17.5 66.3132C17.61 66.3132 17.7189 66.2914 17.8205 66.2491C17.922 66.2068 18.0142 66.1448 18.0917 66.0667C18.2419 65.9113 18.3258 65.7036 18.3258 65.4875C18.3258 65.2714 18.2419 65.0637 18.0917 64.9083ZM9.16668 63C8.01296 63 6.88514 62.6579 5.92585 62.0169C4.96657 61.3759 4.21889 60.4649 3.77738 59.399C3.33587 58.3331 3.22035 57.1602 3.44543 56.0287C3.67051 54.8971 4.22608 53.8577 5.04189 53.0419C5.8577 52.2261 6.8971 51.6705 8.02865 51.4454C9.16021 51.2204 10.3331 51.3359 11.399 51.7774C12.4649 52.2189 13.3759 52.9666 14.0169 53.9259C14.6579 54.8851 15 56.013 15 57.1667C15 58.7138 14.3854 60.1975 13.2915 61.2915C12.1975 62.3854 10.7138 63 9.16668 63Z" fill="#272727"/>
<path d="M29.5 96C27.21 96 25.3535 97.8564 25.3535 100.146C25.3535 100.912 25.5034 101.703 25.9336 102.273L29.5 107L33.0664 102.273C33.4571 101.756 33.6465 100.84 33.6465 100.146C33.6465 97.8564 31.79 96 29.5 96ZM29.5 98.4015C30.4636 98.4015 31.2449 99.1829 31.2449 100.146C31.2449 101.11 30.4636 101.891 29.5 101.891C28.5364 101.891 27.7551 101.11 27.7551 100.146C27.7551 99.1829 28.5364 98.4015 29.5 98.4015Z" fill="white"/>
<path d="M34.3579 155.477C34.3579 156.126 33.8318 156.652 33.1827 156.652C32.5337 156.652 32.0075 156.126 32.0075 155.477C32.0075 154.828 32.5337 154.301 33.1827 154.301C33.8318 154.301 34.3579 154.828 34.3579 155.477Z" fill="#4F4F4F"/>
<path d="M40.1219 155.477C40.1219 156.126 39.5958 156.652 38.9467 156.652C38.2977 156.652 37.7715 156.126 37.7715 155.477C37.7715 154.828 38.2977 154.302 38.9467 154.302C39.5958 154.302 40.1219 154.828 40.1219 155.477Z" fill="#4F4F4F"/>
<path d="M37.6037 159.282C37.6037 159.931 36.5739 160.737 35.9248 160.737C35.2758 160.737 34.246 159.903 34.246 159.254C34.246 158.605 35.2758 158.387 35.9248 158.387C36.5739 158.387 37.6037 158.633 37.6037 159.282Z" fill="#4F4F4F"/>
<path fill-rule="evenodd" clip-rule="evenodd" d="M25.9737 154.931C26.8426 150.665 30.5947 147.6 34.9485 147.6H36.8883C41.0911 147.6 44.7546 150.46 45.7739 154.538L45.9543 155.259C46.4309 157.166 44.9888 159.013 43.0234 159.013H42.4792C41.7209 161.884 39.1062 164 35.9971 164C32.8881 164 30.2734 161.884 29.5151 159.013H28.8407C26.9299 159.013 25.4991 157.261 25.8804 155.389L25.9737 154.931ZM29.2989 157.574C29.2952 157.482 29.2933 157.389 29.2933 157.296V154.304C29.2933 153.907 29.6153 153.585 30.0125 153.585C30.4098 153.585 30.7318 153.907 30.7318 154.304V157.296C30.7318 160.204 33.0892 162.561 35.9971 162.561C38.905 162.561 41.2624 160.204 41.2624 157.296V154.304C41.2624 153.907 41.5844 153.585 41.9817 153.585C42.3789 153.585 42.701 153.907 42.701 154.304V157.296C42.701 157.389 42.6991 157.482 42.6953 157.574H43.0234C44.0529 157.574 44.8083 156.607 44.5586 155.608L44.3783 154.887C43.519 151.45 40.431 149.039 36.8883 149.039H34.9485C31.2785 149.039 28.1158 151.622 27.3833 155.218L27.2901 155.676C27.0903 156.657 27.8398 157.574 28.8407 157.574H29.2989Z" fill="#4F4F4F"/>
<path d="M91.3258 159.47L89.9501 158.094C89.8296 157.982 89.7471 157.836 89.714 157.675C89.6809 157.514 89.6989 157.347 89.7655 157.197C90.0581 156.568 90.2125 155.885 90.2185 155.192C90.2224 155.164 90.2224 155.136 90.2185 155.108C90.2214 154.104 89.9105 153.124 89.3293 152.306C88.2062 150.736 86.7177 149.464 84.9925 148.598C83.8981 148.062 82.6642 147.88 81.4618 148.077C80.2594 148.274 79.148 148.84 78.2817 149.697L77.7196 150.259C76.8538 151.129 76.2823 152.248 76.0852 153.459C75.8881 154.67 76.0754 155.913 76.6207 157.012L76.7046 157.155C76.257 157.619 76.0047 158.238 76 158.883C76.0033 159.328 76.1247 159.764 76.3516 160.147C76.5786 160.53 76.903 160.846 77.2919 161.063C77.6807 161.279 78.1201 161.389 78.5651 161.38C79.0102 161.372 79.445 161.245 79.8252 161.014C79.9761 161.131 80.1104 161.257 80.2614 161.366C80.5789 161.587 80.9226 161.767 81.2848 161.903H81.3602C81.5112 161.962 81.6706 162.012 81.8384 162.062H81.9642C82.2253 162.129 82.4921 162.171 82.7611 162.188H83.2812C83.4574 162.188 83.6251 162.188 83.8013 162.138H83.9439C84.3563 162.067 84.7571 161.94 85.1351 161.76C85.2857 161.7 85.4507 161.684 85.61 161.715C85.7693 161.746 85.9161 161.823 86.0326 161.936L87.2574 163.161C87.7887 163.694 88.5094 163.996 89.2622 164C89.8937 163.993 90.4968 163.737 90.9399 163.287L91.2587 162.968C91.7214 162.508 91.987 161.885 91.9995 161.233C92.0121 160.58 91.7705 159.948 91.3258 159.47ZM78.4914 159.738C78.3255 159.738 78.1633 159.689 78.0253 159.597C77.8874 159.505 77.7799 159.374 77.7164 159.221C77.6529 159.067 77.6363 158.899 77.6687 158.736C77.701 158.573 77.7809 158.424 77.8982 158.306C78.0155 158.189 78.165 158.109 78.3277 158.077C78.4905 158.044 78.6591 158.061 78.8124 158.125C78.9657 158.188 79.0967 158.296 79.1889 158.434C79.281 158.571 79.3302 158.734 79.3302 158.9C79.3302 159.122 79.2419 159.335 79.0845 159.493C78.9272 159.65 78.7139 159.738 78.4914 159.738ZM81.0918 159.856L80.8737 159.688C80.9611 159.434 81.0064 159.168 81.0079 158.9C81.0079 158.232 80.7428 157.592 80.2709 157.12C79.7989 156.648 79.1588 156.383 78.4914 156.383H78.1726L78.0971 156.249C77.707 155.464 77.5724 154.577 77.7123 153.712C77.8522 152.846 78.2596 152.047 78.8773 151.425L79.4393 150.863C80.069 150.26 80.8711 149.867 81.7341 149.741C82.5972 149.615 83.4781 149.761 84.2543 150.158C85.6634 150.863 86.8874 151.889 87.8278 153.153L81.0918 159.856ZM90.1346 161.844L89.8242 162.163C89.4719 162.515 88.9267 162.448 88.4737 161.995L87.249 160.779C86.8883 160.42 86.4276 160.18 85.9274 160.088C85.4273 159.997 84.9113 160.059 84.4472 160.267C84.1828 160.397 83.8998 160.484 83.6084 160.527C83.4481 160.558 83.285 160.572 83.1218 160.569H82.7527L88.5156 154.806C88.5744 155.381 88.4758 155.961 88.2304 156.484C88.0227 156.948 87.9604 157.464 88.0518 157.964C88.1431 158.464 88.3838 158.925 88.7421 159.285L90.1178 160.67C90.2738 160.824 90.3629 161.034 90.3661 161.253C90.3692 161.473 90.2861 161.685 90.1346 161.844Z" fill="#4F4F4F"/>
<path d="M127.771 51.8536C128.086 51.5386 127.863 51 127.418 51H123.5C123.224 51 123 51.2239 123 51.5V55.4179C123 55.8633 123.539 56.0864 123.854 55.7714L124.665 54.96C124.863 54.7623 125.184 54.7652 125.378 54.9665L127.709 57.3835C127.903 57.5848 128.225 57.5877 128.423 57.39L129.39 56.4225C129.588 56.2248 129.585 55.9032 129.383 55.7091L126.967 53.3784C126.765 53.1843 126.762 52.8627 126.96 52.665L127.771 51.8536ZM136.582 51C136.137 51 135.914 51.5386 136.229 51.8536L137.04 52.665C137.238 52.8627 137.235 53.1843 137.033 53.3784L134.617 55.7091C134.415 55.9032 134.412 56.2248 134.61 56.4225L135.584 57.3964C135.779 57.5917 136.096 57.5917 136.291 57.3964L138.631 55.0561C138.823 54.8648 139.132 54.8604 139.328 55.0461L140.157 55.8285C140.476 56.1297 141 55.9036 141 55.465V51.5C141 51.2239 140.776 51 140.5 51H136.582ZM136.291 62.6165C136.097 62.4152 135.775 62.4123 135.577 62.61L134.604 63.5839C134.408 63.7792 134.408 64.0958 134.604 64.2911L136.944 66.6314C137.135 66.8227 137.14 67.1316 136.954 67.3283L136.171 68.1567C135.87 68.4756 136.096 69 136.535 69H140.5C140.776 69 141 68.7761 141 68.5V64.5821C141 64.1367 140.461 63.9136 140.146 64.2286L139.335 65.04C139.137 65.2377 138.816 65.2348 138.622 65.0335L136.291 62.6165ZM128.416 62.6036C128.221 62.4083 127.904 62.4083 127.709 62.6036L125.369 64.9439C125.177 65.1352 124.868 65.1396 124.672 64.9539L123.843 64.1715C123.524 63.8703 123 64.0964 123 64.535V68.5C123 68.7761 123.224 69 123.5 69H127.418C127.863 69 128.086 68.4614 127.771 68.1464L126.96 67.335C126.762 67.1373 126.765 66.8157 126.967 66.6216L129.383 64.2909C129.585 64.0968 129.588 63.7752 129.39 63.5775L128.416 62.6036Z" fill="#4F4F4F"/>
<path d="M4.68249 160.019C4.24547 160.457 4 161.05 4 161.668C4 162.287 4.24547 162.88 4.68249 163.318C5.12006 163.755 5.7132 164 6.33162 164C6.95005 164 7.54319 163.755 7.98075 163.318C8.39297 162.875 8.61739 162.29 8.60672 161.685C8.59606 161.081 8.35114 160.504 7.92357 160.076C7.496 159.649 6.91916 159.404 6.31458 159.393C5.71 159.383 5.12488 159.607 4.68249 160.019ZM6.88393 162.221C6.73745 162.367 6.53878 162.449 6.33162 162.449C6.12447 162.449 5.9258 162.367 5.77932 162.221C5.63284 162.074 5.55055 161.876 5.55055 161.668C5.55055 161.461 5.63284 161.263 5.77932 161.116C5.85163 161.043 5.93767 160.985 6.03246 160.946C6.12726 160.906 6.22893 160.886 6.33162 160.886C6.43431 160.886 6.53599 160.906 6.63078 160.946C6.72557 160.985 6.81161 161.043 6.88393 161.116C6.95684 161.188 7.01471 161.274 7.0542 161.369C7.09369 161.464 7.11402 161.566 7.11402 161.668C7.11402 161.771 7.09369 161.873 7.0542 161.968C7.01471 162.062 6.95684 162.148 6.88393 162.221ZM6.33162 156.223C6.12531 156.223 5.92745 156.305 5.78157 156.451C5.63569 156.597 5.55373 156.795 5.55373 157.001C5.55373 157.207 5.63569 157.405 5.78157 157.551C5.92745 157.697 6.12531 157.779 6.33162 157.779C7.36317 157.779 8.35247 158.189 9.08189 158.918C9.8113 159.648 10.2211 160.637 10.2211 161.668C10.2211 161.875 10.303 162.073 10.4489 162.218C10.5948 162.364 10.7927 162.446 10.999 162.446C11.2053 162.446 11.4031 162.364 11.549 162.218C11.6949 162.073 11.7769 161.875 11.7769 161.668C11.7769 160.224 11.2032 158.839 10.182 157.818C9.16081 156.797 7.77579 156.223 6.33162 156.223ZM6.33162 153.112C6.12531 153.112 5.92745 153.194 5.78157 153.339C5.63569 153.485 5.55373 153.683 5.55373 153.889C5.55373 154.096 5.63569 154.294 5.78157 154.44C5.92745 154.585 6.12531 154.667 6.33162 154.667C8.18841 154.667 9.96915 155.405 11.2821 156.718C12.595 158.031 13.3326 159.812 13.3326 161.668C13.3326 161.875 13.4146 162.073 13.5605 162.218C13.7064 162.364 13.9042 162.446 14.1105 162.446C14.3169 162.446 14.5147 162.364 14.6606 162.218C14.8065 162.073 14.8884 161.875 14.8884 161.668C14.8824 159.4 13.9824 157.226 12.3836 155.616C10.7745 154.018 8.59997 153.118 6.33162 153.112ZM14.5851 153.415C12.3905 151.235 9.42495 150.008 6.33162 150C6.12531 150 5.92745 150.082 5.78157 150.228C5.63569 150.374 5.55373 150.572 5.55373 150.778C5.55373 150.984 5.63569 151.182 5.78157 151.328C5.92745 151.474 6.12531 151.556 6.33162 151.556C9.01365 151.556 11.5858 152.621 13.4823 154.518C15.3788 156.414 16.4442 158.986 16.4442 161.668C16.4442 161.875 16.5262 162.073 16.6721 162.218C16.8179 162.364 17.0158 162.446 17.2221 162.446C17.4284 162.446 17.6263 162.364 17.7722 162.218C17.918 162.073 18 161.875 18 161.668C17.9921 158.575 16.7651 155.61 14.5851 153.415Z" fill="#4F4F4F"/>
<path d="M39.8094 131.718C40.1272 131.722 40.4427 131.662 40.7371 131.541C41.0315 131.42 41.2988 131.242 41.5235 131.015L43.7692 128.755C43.917 128.605 44 128.403 44 128.192C44 127.981 43.917 127.779 43.7692 127.629C43.6955 127.554 43.6077 127.495 43.511 127.454C43.4143 127.414 43.3106 127.393 43.2058 127.393C43.1011 127.393 42.9973 127.414 42.9006 127.454C42.8039 127.495 42.7162 127.554 42.6424 127.629L40.3728 129.881C40.299 129.956 40.2113 130.015 40.1146 130.056C40.0179 130.096 39.9141 130.117 39.8094 130.117C39.7046 130.117 39.6009 130.096 39.5042 130.056C39.4075 130.015 39.3197 129.956 39.2459 129.881L42.0551 127.062C42.1291 126.988 42.1878 126.899 42.2279 126.802C42.2679 126.705 42.2885 126.6 42.2885 126.495C42.2885 126.39 42.2679 126.285 42.2279 126.188C42.1878 126.091 42.1291 126.002 42.0551 125.928C41.9812 125.853 41.8933 125.794 41.7966 125.754C41.7 125.714 41.5964 125.693 41.4917 125.693C41.3871 125.693 41.2835 125.714 41.1868 125.754C41.0901 125.794 41.0023 125.853 40.9283 125.928L38.127 128.755C37.9792 128.605 37.8963 128.403 37.8963 128.192C37.8963 127.981 37.9792 127.779 38.127 127.629L40.3728 125.369C40.4468 125.294 40.5055 125.206 40.5455 125.109C40.5856 125.011 40.6062 124.907 40.6062 124.802C40.6062 124.697 40.5856 124.592 40.5455 124.495C40.5055 124.398 40.4468 124.309 40.3728 124.235C40.2988 124.16 40.211 124.101 40.1143 124.061C40.0176 124.021 39.914 124 39.8094 124C39.7047 124 39.6011 124.021 39.5044 124.061C39.4078 124.101 39.3199 124.16 39.2459 124.235L37.0002 126.495C36.5543 126.944 36.3039 127.553 36.3039 128.188C36.3039 128.823 36.5543 129.432 37.0002 129.881L35.9685 130.911L29.4058 124.283L29.3264 124.235C29.2859 124.199 29.2404 124.17 29.1915 124.147L29.0487 124.091L28.9535 124.027H28.7392C28.6919 124.02 28.6437 124.02 28.5964 124.027C28.5483 124.045 28.5029 124.069 28.4614 124.099L28.3345 124.179H28.2789L28.2313 124.259C28.1977 124.301 28.1685 124.346 28.144 124.395C28.1208 124.443 28.1022 124.494 28.0885 124.546V124.634C27.8959 125.985 28.0187 127.362 28.4471 128.657C28.8755 129.952 29.5977 131.128 30.5564 132.093L32.6515 134.194L28.3583 138.506C28.2839 138.581 28.2249 138.669 28.1846 138.766C28.1443 138.863 28.1236 138.968 28.1236 139.073C28.1236 139.179 28.1443 139.283 28.1846 139.38C28.2249 139.478 28.2839 139.566 28.3583 139.64C28.4324 139.714 28.5204 139.773 28.6171 139.813C28.7137 139.852 28.8173 139.873 28.9217 139.872C29.0262 139.873 29.1297 139.852 29.2264 139.813C29.3231 139.773 29.411 139.714 29.4851 139.64L34.3021 134.865L36.5478 132.604L38.135 131.007C38.5777 131.458 39.1798 131.713 39.8094 131.718ZM33.7386 133.171L31.6516 131.063C30.5076 129.896 29.7913 128.373 29.62 126.743L34.8655 132.013L33.7386 133.171ZM38.6904 133.627C38.541 133.475 38.3379 133.39 38.1259 133.389C37.9138 133.388 37.7101 133.472 37.5596 133.623C37.4091 133.773 37.3242 133.977 37.3234 134.191C37.3227 134.404 37.4062 134.609 37.5557 134.761L42.5551 139.792C42.7067 139.931 42.9057 140.005 43.1106 140C43.215 140 43.3186 139.98 43.4152 139.94C43.5119 139.901 43.5999 139.842 43.674 139.768C43.7484 139.694 43.8074 139.606 43.8477 139.508C43.888 139.411 43.9087 139.307 43.9087 139.201C43.9087 139.096 43.888 138.991 43.8477 138.894C43.8074 138.797 43.7484 138.708 43.674 138.634L38.6904 133.627Z" fill="#4F4F4F"/>
<path d="M67.8267 125.296C67.9196 125.179 67.9778 125.038 67.9948 124.89C68.0118 124.741 67.9868 124.591 67.9228 124.456C67.8579 124.32 67.7559 124.205 67.6284 124.124C67.501 124.043 67.3534 124 67.2025 124H52.7975C52.6466 124 52.499 124.043 52.3716 124.124C52.2441 124.205 52.1421 124.32 52.0772 124.456C52.0132 124.591 51.9882 124.741 52.0052 124.89C52.0221 125.038 52.0804 125.179 52.1733 125.296L59.1997 134.08V138.4H54.5981C54.3859 138.4 54.1823 138.484 54.0322 138.634C53.8821 138.784 53.7978 138.988 53.7978 139.2C53.7978 139.412 53.8821 139.616 54.0322 139.766C54.1823 139.916 54.3859 140 54.5981 140H65.4019C65.6141 140 65.8177 139.916 65.9678 139.766C66.1179 139.616 66.2022 139.412 66.2022 139.2C66.2022 138.988 66.1179 138.784 65.9678 138.634C65.8177 138.484 65.6141 138.4 65.4019 138.4H60.8003V134.08L67.8267 125.296ZM54.4621 125.6H65.5379L63.6173 128H56.4147L54.4621 125.6ZM60 132.52L57.6632 129.6H62.3368L60 132.52Z" fill="#4F4F4F"/>
<path d="M66.1247 151.707C65.311 151.264 64.362 151.169 63.4814 151.442C63.4385 150.514 63.0525 149.639 62.4035 148.998C61.7544 148.358 60.8921 148 59.9955 148C59.0988 148 58.2365 148.358 57.5875 148.998C56.9384 149.639 56.5525 150.514 56.5096 151.442C55.6313 151.168 54.6851 151.254 53.8662 151.682C53.2632 152.01 52.7661 152.514 52.4363 153.132C52.1065 153.749 51.9583 154.453 52.0101 155.157C52.0619 155.86 52.3114 156.533 52.7278 157.091C53.1441 157.65 53.7092 158.07 54.3534 158.3C53.9422 158.906 53.7193 159.627 53.7145 160.368C53.718 160.576 53.7367 160.783 53.7704 160.988C53.9049 161.828 54.3233 162.591 54.9508 163.141C55.5784 163.692 56.3743 163.993 57.1964 163.991C57.3665 164.003 57.5373 164.003 57.7075 163.991C58.6203 163.842 59.4403 163.328 59.9915 162.56C60.5483 163.316 61.3676 163.817 62.2755 163.958C62.4456 163.97 62.6164 163.97 62.7866 163.958C63.424 163.957 64.0489 163.775 64.5934 163.432C65.1378 163.088 65.5808 162.597 65.874 162.011C66.1673 161.424 66.2996 160.766 66.2565 160.107C66.2134 159.449 65.9965 158.815 65.6296 158.275C66.2768 158.049 66.8457 157.631 67.2653 157.073C67.6849 156.515 67.9368 155.841 67.9896 155.136C68.0424 154.43 67.8937 153.724 67.5621 153.106C67.2305 152.487 66.7307 151.984 66.1247 151.657V151.707ZM58.6658 150.102C59.0226 149.748 59.4975 149.55 59.9915 149.55C60.4855 149.55 60.9604 149.748 61.3171 150.102C61.5895 150.385 61.7745 150.745 61.8485 151.137C61.9224 151.529 61.882 151.934 61.7324 152.302L61.5248 152.79L60.9977 153.27C60.6737 153.155 60.334 153.094 59.9915 153.088C59.5487 153.089 59.1109 153.184 58.7057 153.369L58.2585 152.302C58.1035 151.936 58.0595 151.53 58.1322 151.137C58.2049 150.744 58.391 150.383 58.6658 150.102ZM53.7943 155.76C53.6161 155.354 53.577 154.897 53.6836 154.464C53.7901 154.032 54.036 153.65 54.3805 153.382C54.725 153.114 55.1475 152.975 55.5782 152.99C56.0089 153.004 56.422 153.17 56.7492 153.46L57.1405 153.816L57.42 154.478C57.0199 155.032 56.8016 155.705 56.7971 156.397C56.7876 156.521 56.7876 156.645 56.7971 156.769H56.3578L55.687 156.836C55.3033 156.877 54.9164 156.797 54.5782 156.605C54.2399 156.413 53.9664 156.118 53.7943 155.76ZM59.0651 160.79C58.969 161.231 58.7288 161.625 58.3852 161.905C58.0415 162.184 57.6153 162.333 57.1784 162.325C56.7414 162.317 56.3204 162.154 55.9862 161.862C55.652 161.57 55.4251 161.168 55.3436 160.723C55.336 160.608 55.336 160.492 55.3436 160.376C55.3465 160.04 55.4343 159.71 55.5982 159.42C55.7621 159.13 55.9965 158.889 56.278 158.722L56.6853 158.424L57.412 158.341C57.87 159.001 58.5466 159.463 59.3127 159.64L59.0651 160.79ZM59.9915 158.052C59.6756 158.052 59.3668 157.954 59.1041 157.773C58.8415 157.591 58.6367 157.333 58.5159 157.03C58.395 156.728 58.3633 156.395 58.425 156.074C58.4866 155.753 58.6387 155.459 58.8621 155.227C59.0855 154.996 59.37 154.838 59.6799 154.774C59.9897 154.711 60.3108 154.743 60.6027 154.869C60.8945 154.994 61.144 155.206 61.3195 155.478C61.495 155.75 61.5887 156.07 61.5887 156.397C61.5887 156.836 61.4204 157.257 61.1209 157.567C60.8213 157.877 60.4151 158.052 59.9915 158.052ZM64.6393 160.715C64.5569 161.22 64.2865 161.671 63.8861 161.971C63.4858 162.271 62.9877 162.397 62.4991 162.32C62.1141 162.264 61.7548 162.087 61.4693 161.814C61.1839 161.54 60.9859 161.183 60.9019 160.79L60.7901 160.293L60.9578 159.532C61.6945 159.284 62.3189 158.766 62.7147 158.076L63.114 158.325H63.1859L63.7129 158.647C64.0554 158.85 64.3285 159.158 64.4945 159.528C64.6605 159.899 64.7111 160.314 64.6393 160.715ZM66.1886 155.752C66.0315 156.081 65.7892 156.358 65.4888 156.552C65.1884 156.746 64.8417 156.85 64.4876 156.852H64.2959L63.7848 156.769L63.1859 156.43C63.1848 155.626 62.9009 154.85 62.3873 154.246L62.7307 153.94L63.2338 153.46C63.5619 153.158 63.9812 152.984 64.4199 152.967C64.8586 152.949 65.2894 153.091 65.6386 153.366C65.9878 153.642 66.2336 154.035 66.3339 154.478C66.4342 154.92 66.3829 155.385 66.1886 155.793V155.752Z" fill="#4F4F4F"/>
<path d="M64.401 177.599C64.7535 177.599 65.098 177.493 65.3911 177.295C65.6842 177.098 65.9126 176.817 66.0475 176.488C66.1823 176.159 66.2176 175.797 66.1489 175.448C66.0801 175.099 65.9104 174.779 65.6611 174.527C65.4119 174.275 65.0944 174.104 64.7487 174.035C64.403 173.965 64.0447 174.001 63.719 174.137C63.3934 174.273 63.1151 174.504 62.9192 174.8C62.7234 175.096 62.6189 175.443 62.6189 175.799C62.6189 176.277 62.8067 176.734 63.1409 177.072C63.4751 177.409 63.9284 177.599 64.401 177.599ZM51.6679 181.773C51.8445 181.83 52.0147 181.905 52.1758 181.998C52.73 182.325 53.3604 182.498 54.0024 182.498C54.6445 182.498 55.2749 182.325 55.8291 181.998C56.1776 181.801 56.5703 181.697 56.9696 181.697C57.369 181.697 57.7617 181.801 58.1102 181.998L58.2973 182.088C58.838 182.354 59.4348 182.482 60.0359 182.462C60.6369 182.441 61.2239 182.273 61.7457 181.971C62.0941 181.774 62.4868 181.67 62.8862 181.67C63.2856 181.67 63.6783 181.774 64.0268 181.971C64.5915 182.297 65.2298 182.47 65.8801 182.475C66.5078 182.468 67.1225 182.294 67.6622 181.971C67.8234 181.878 67.9936 181.803 68.1701 181.746C68.3018 181.737 68.4299 181.698 68.545 181.633C68.6601 181.568 68.7595 181.478 68.8358 181.369C68.9122 181.26 68.9636 181.136 68.9865 181.004C69.0094 180.873 69.0031 180.738 68.9681 180.61C68.9331 180.481 68.8702 180.362 68.784 180.261C68.6979 180.16 68.5906 180.08 68.4699 180.026C68.3492 179.972 68.2181 179.946 68.0861 179.949C67.9542 179.953 67.8246 179.986 67.7068 180.046C67.3959 180.143 67.0969 180.276 66.8157 180.442C66.5313 180.607 66.2086 180.695 65.8801 180.695C65.5517 180.695 65.229 180.607 64.9445 180.442C64.3273 180.09 63.6306 179.905 62.9219 179.905C62.2132 179.905 61.5164 180.09 60.8992 180.442C60.8153 180.483 60.729 180.519 60.6408 180.549L62.0308 179.146C62.0627 179.104 62.0896 179.059 62.111 179.011C62.1513 178.967 62.1871 178.919 62.2179 178.867C62.2221 178.81 62.2221 178.753 62.2179 178.696C62.223 178.639 62.223 178.582 62.2179 178.525C62.2222 178.471 62.2222 178.417 62.2179 178.363C62.223 178.306 62.223 178.249 62.2179 178.192C62.1916 178.14 62.1618 178.088 62.1288 178.039C62.1057 177.988 62.0757 177.939 62.0397 177.896L59.3042 174.9C59.2322 174.82 59.148 174.754 59.0547 174.702C58.9926 174.693 58.9297 174.693 58.8676 174.702C58.8174 174.694 58.7663 174.694 58.7161 174.702C58.5975 174.654 58.4691 174.635 58.3419 174.648L55.1875 175.835C54.9655 175.916 54.7844 176.083 54.6842 176.299C54.5839 176.515 54.5727 176.763 54.6529 176.987C54.7333 177.211 54.8987 177.394 55.1125 177.495C55.3264 177.596 55.5713 177.608 55.7935 177.527L58.4042 176.564L60.1863 178.471L58.4933 180.181C57.9261 179.958 57.317 179.865 56.71 179.909C56.1029 179.952 55.513 180.131 54.9826 180.433C54.6981 180.598 54.3755 180.686 54.047 180.686C53.7185 180.686 53.3959 180.598 53.1114 180.433C52.8302 180.267 52.5313 180.134 52.2203 180.037C52.1063 179.994 51.9848 179.975 51.8633 179.981C51.7418 179.987 51.6228 180.019 51.5137 180.073C51.4047 180.128 51.3078 180.204 51.2291 180.298C51.1505 180.392 51.0916 180.501 51.0563 180.618C51.0209 180.736 51.0098 180.859 51.0235 180.981C51.0373 181.103 51.0757 181.221 51.1364 181.328C51.197 181.434 51.2786 181.527 51.3762 181.601C51.4737 181.674 51.5851 181.727 51.7035 181.755L51.6679 181.773ZM67.7068 184.553C67.3959 184.65 67.0969 184.783 66.8157 184.949C66.5313 185.115 66.2086 185.202 65.8801 185.202C65.5517 185.202 65.229 185.115 64.9445 184.949C64.3273 184.597 63.6306 184.412 62.9219 184.412C62.2132 184.412 61.5164 184.597 60.8992 184.949C60.6123 185.117 60.2864 185.206 59.9547 185.206C59.6229 185.206 59.297 185.117 59.0102 184.949C58.3929 184.597 57.6962 184.412 56.9875 184.412C56.2788 184.412 55.582 184.597 54.9648 184.949C54.6803 185.115 54.3576 185.202 54.0292 185.202C53.7007 185.202 53.378 185.115 53.0936 184.949C52.8124 184.783 52.5134 184.65 52.2025 184.553C52.0885 184.51 51.967 184.491 51.8455 184.497C51.724 184.504 51.605 184.535 51.4959 184.589C51.3869 184.644 51.29 184.72 51.2113 184.814C51.1326 184.908 51.0738 185.017 51.0384 185.134C51.0031 185.252 50.992 185.376 51.0057 185.498C51.0195 185.62 51.0579 185.738 51.1185 185.844C51.1792 185.951 51.2608 186.044 51.3583 186.117C51.4559 186.19 51.5673 186.243 51.6857 186.271C51.8623 186.328 52.0325 186.404 52.1936 186.496C52.7478 186.823 53.3782 186.996 54.0203 186.996C54.6623 186.996 55.2928 186.823 55.8469 186.496C56.1954 186.299 56.5881 186.196 56.9875 186.196C57.3868 186.196 57.7795 186.299 58.128 186.496C58.687 186.819 59.3197 186.989 59.9636 186.989C60.6075 186.989 61.2402 186.819 61.7991 186.496C62.1476 186.299 62.5403 186.196 62.9397 186.196C63.3391 186.196 63.7318 186.299 64.0802 186.496C64.6449 186.822 65.2832 186.996 65.9336 187C66.5612 186.993 67.176 186.82 67.7157 186.496C67.8768 186.404 68.047 186.328 68.2236 186.271C68.3359 186.237 68.4405 186.181 68.5313 186.106C68.6221 186.031 68.6974 185.938 68.7528 185.834C68.8082 185.729 68.8427 185.615 68.8544 185.497C68.866 185.379 68.8545 185.26 68.8206 185.147C68.7867 185.033 68.7309 184.928 68.6566 184.836C68.5823 184.744 68.4908 184.668 68.3874 184.612C68.2839 184.556 68.1706 184.522 68.0538 184.51C67.9371 184.498 67.8191 184.51 67.7068 184.544V184.553Z" fill="#4F4F4F"/>
<path d="M59.8 209L59.8 199" stroke="#97A6B5" stroke-width="2" stroke-linecap="round"/>
<path d="M55 203.8L59.8 199L64.6 203.8" stroke="#97A6B5" stroke-width="2" stroke-linecap="round"/>
<path d="M101 171V177H99V174.41L95.71 177.71L94.29 176.29L97.59 173H95V171H101ZM83 171V177H85V174.41L88.29 177.71L89.71 176.29L86.41 173H89V171H83ZM101 189V183H99V185.59L95.71 182.3L94.3 183.71L97.59 187H95V189H101ZM89 189V187H86.41L89.7 183.71L88.29 182.29L85 185.59V183H83V189H89Z" fill="black"/>
</g>
<defs>
<filter id="filter0_d" x="92.25" y="24.25" width="31.5" height="28.5" filterUnits="userSpaceOnUse" color-interpolation-filters="sRGB">
<feFlood flood-opacity="0" result="BackgroundImageFix"/>
<feColorMatrix in="SourceAlpha" type="matrix" values="0 0 0 0 0 0 0 0 0 0 0 0 0 0 0 0 0 0 127 0" result="hardAlpha"/>
<feOffset dy="3"/>
<feGaussianBlur stdDeviation="5"/>
<feColorMatrix type="matrix" values="0 0 0 0 0.411765 0 0 0 0 0.745098 0 0 0 0 0.247059 0 0 0 0.2 0"/>
<feBlend mode="normal" in2="BackgroundImageFix" result="effect1_dropShadow"/>
<feBlend mode="normal" in="SourceGraphic" in2="effect1_dropShadow" result="shape"/>
</filter>
<clipPath id="clip0">
<rect width="264" height="216" fill="white"/>
</clipPath>
</defs>
</svg>
